<svg width="143" height="19" viewBox="0 0 143 19" fill="none" xmlns="http://www.w3.org/2000/svg">
<path d="M51.486 15.1931L45.166 17.2431C43.316 17.8431 41.336 16.8331 40.736 14.9831L38.686 8.66307C38.086 6.81307 39.096 4.83308 40.946 4.23308L47.266 2.18306C49.116 1.58306 51.096 2.59307 51.696 4.44307L53.746 10.7631C54.346 12.6031 53.336 14.5931 51.486 15.1931Z" fill="#FF5A5A" fill-opacity="0.3" stroke="#FF5A5A" stroke-miterlimit="10"/>
<path d="M61.0959 16.3331L54.4659 16.7531C52.5259 16.8731 50.8559 15.4031 50.7359 13.4631L50.3159 6.83312C50.1959 4.89312 51.6659 3.22314 53.6059 3.10314L60.2359 2.68312C62.1759 2.56312 63.8459 4.03313 63.9659 5.97313L64.3859 12.6031C64.5059 14.5331 63.0359 16.2031 61.0959 16.3331Z" fill="#FF5A5A" fill-opacity="0.3" stroke="#FF5A5A" stroke-miterlimit="10"/>
<path d="M139.256 16.1131L132.656 16.8831C130.726 17.1131 128.976 15.7331 128.756 13.8031L127.986 7.20311C127.756 5.27311 129.136 3.52309 131.066 3.30309L137.666 2.5331C139.596 2.3031 141.346 3.68312 141.566 5.61312L142.336 12.2131C142.566 14.1431 141.186 15.8931 139.256 16.1131Z" fill="#FF5A5A" fill-opacity="0.3" stroke="#FF5A5A" stroke-miterlimit="10"/>
<path d="M115.716 14.183L109.396 16.233C107.546 16.833 105.566 15.823 104.966 13.973L102.916 7.65303C102.316 5.80303 103.326 3.82304 105.176 3.22304L111.496 1.17305C113.346 0.573052 115.326 1.58303 115.926 3.43303L117.976 9.75304C118.576 11.593 117.566 13.573 115.716 14.183Z" fill="#FF5A5A" fill-opacity="0.3" stroke="#FF5A5A" stroke-miterlimit="10"/>
<path d="M79.0759 16.883L72.476 16.143C70.546 15.923 69.156 14.1829 69.366 12.2529L70.1059 5.65294C70.3259 3.72294 72.066 2.33295 73.996 2.54295L80.596 3.28294C82.526 3.50294 83.9159 5.24296 83.7059 7.17296L82.966 13.7729C82.746 15.7029 81.0059 17.093 79.0759 16.883Z" fill="#FF5A5A" fill-opacity="0.3" stroke="#FF5A5A" stroke-miterlimit="10"/>
<path d="M9.47602 17.283L3.26602 14.913C1.44602 14.223 0.536017 12.183 1.23602 10.373L3.60601 4.16299C4.29601 2.34299 6.33602 1.43299 8.14602 2.13299L14.356 4.50298C16.176 5.19298 17.086 7.23299 16.386 9.04299L14.016 15.253C13.326 17.063 11.286 17.983 9.47602 17.283Z" fill="#FF5A5A" fill-opacity="0.3" stroke="#FF5A5A" stroke-miterlimit="10"/>
<path d="M94.296 15.1931L87.976 17.2431C86.126 17.8431 84.146 16.8331 83.546 14.9831L81.496 8.66307C80.896 6.81307 81.906 4.83308 83.756 4.23308L90.076 2.18306C91.926 1.58306 93.906 2.59307 94.506 4.44307L96.556 10.7631C97.156 12.6031 96.146 14.5931 94.296 15.1931Z" fill="#FF5A5A" fill-opacity="0.3" stroke="#FF5A5A" stroke-miterlimit="10"/>
<path d="M127.166 15.9532L120.606 16.9832C118.686 17.2832 116.886 15.9731 116.586 14.0531L115.556 7.49315C115.256 5.57315 116.566 3.77316 118.486 3.47316L125.046 2.44316C126.966 2.14316 128.766 3.45315 129.066 5.37315L130.096 11.9332C130.396 13.8532 129.086 15.6532 127.166 15.9532Z" fill="#FF5A5A" fill-opacity="0.3" stroke="#FF5A5A" stroke-miterlimit="10"/>
<path d="M26.8161 16.103L20.4961 18.153C18.6461 18.753 16.6661 17.743 16.0661 15.893L14.0161 9.57298C13.4161 7.72298 14.4261 5.74299 16.2761 5.14299L22.5961 3.09297C24.4461 2.49297 26.4261 3.50298 27.0261 5.35298L29.0761 11.673C29.6761 13.523 28.6661 15.503 26.8161 16.103Z" fill="#FF5A5A" fill-opacity="0.3" stroke="#FF5A5A" stroke-miterlimit="10"/>
<path d="M6.88601 6.96313C7.52601 6.96313 7.52601 5.96313 6.88601 5.96313C6.24601 5.96313 6.24601 6.96313 6.88601 6.96313Z" fill="#FF5A5A"/>
<path d="M5.26606 10.4331C5.90606 10.4331 5.90606 9.43311 5.26606 9.43311C4.61606 9.43311 4.61606 10.4331 5.26606 10.4331Z" fill="#FF5A5A"/>
<path d="M9.92604 10.323C10.566 10.323 10.566 9.323 9.92604 9.323C9.28604 9.323 9.28604 10.323 9.92604 10.323Z" fill="#FF5A5A"/>
<path d="M21.0961 10.2131C21.7361 10.2131 21.7361 9.21313 21.0961 9.21313C20.4561 9.21313 20.4461 10.2131 21.0961 10.2131Z" fill="#FF5A5A"/>
<path d="M21.966 13.363C22.606 13.363 22.606 12.363 21.966 12.363C21.316 12.363 21.316 13.363 21.966 13.363Z" fill="#FF5A5A"/>
<path d="M47.0061 10.113C47.6461 10.113 47.6461 9.11304 47.0061 9.11304C46.3661 9.11304 46.3661 10.113 47.0061 10.113Z" fill="#FF5A5A"/>
<path d="M43.5362 13.6831C44.1762 13.6831 44.1762 12.6831 43.5362 12.6831C42.8962 12.6831 42.8962 13.6831 43.5362 13.6831Z" fill="#FF5A5A"/>
<path d="M42.886 9.24316C43.526 9.24316 43.526 8.24316 42.886 8.24316C42.246 8.24316 42.246 9.24316 42.886 9.24316Z" fill="#FF5A5A"/>
<path d="M48.416 7.50293C49.056 7.50293 49.056 6.50293 48.416 6.50293C47.776 6.50293 47.776 7.50293 48.416 7.50293Z" fill="#FF5A5A"/>
<path d="M56.5561 11.7332C57.1961 11.7332 57.1961 10.7332 56.5561 10.7332C55.9061 10.7332 55.9061 11.7332 56.5561 11.7332Z" fill="#FF5A5A"/>
<path d="M62.6261 11.623C63.2661 11.623 63.2661 10.623 62.6261 10.623C61.9861 10.623 61.9761 11.623 62.6261 11.623Z" fill="#FF5A5A"/>
<path d="M59.3759 7.94312C60.0159 7.94312 60.0159 6.94312 59.3759 6.94312C58.7259 6.94312 58.7259 7.94312 59.3759 7.94312Z" fill="#FF5A5A"/>
<path d="M112.176 9.35303C112.816 9.35303 112.816 8.35303 112.176 8.35303C111.536 8.35303 111.536 9.35303 112.176 9.35303Z" fill="#FF5A5A"/>
<path d="M107.846 11.1931C108.486 11.1931 108.486 10.1931 107.846 10.1931C107.196 10.1931 107.196 11.1931 107.846 11.1931Z" fill="#FF5A5A"/>
<path d="M122.476 11.9531C123.116 11.9531 123.116 10.9531 122.476 10.9531C121.836 10.9531 121.836 11.9531 122.476 11.9531Z" fill="#FF5A5A"/>
<path d="M138.636 12.4932C139.276 12.4932 139.276 11.4932 138.636 11.4932C137.996 11.4932 137.996 12.4932 138.636 12.4932Z" fill="#FF5A5A"/>
<path d="M136.256 8.59302C136.896 8.59302 136.896 7.59302 136.256 7.59302C135.606 7.59302 135.606 8.59302 136.256 8.59302Z" fill="#FF5A5A"/>
<path d="M75.746 7.83301C76.386 7.83301 76.386 6.83301 75.746 6.83301C75.106 6.83301 75.096 7.83301 75.746 7.83301Z" fill="#FF5A5A"/>
<path d="M80.736 11.083C81.376 11.083 81.376 10.083 80.736 10.083C80.086 10.083 80.086 11.083 80.736 11.083Z" fill="#FF5A5A"/>
<path d="M75.966 12.2729C76.606 12.2729 76.606 11.2729 75.966 11.2729C75.316 11.2729 75.316 12.2729 75.966 12.2729Z" fill="#FF5A5A"/>
</svg>
