<svg width="143" height="32" viewBox="0 0 143 32" fill="none" xmlns="http://www.w3.org/2000/svg">
<path d="M51.486 28.341L45.166 30.391C43.316 30.991 41.336 29.981 40.736 28.131L38.686 21.811C38.086 19.961 39.096 17.981 40.946 17.381L47.266 15.331C49.116 14.731 51.096 15.741 51.696 17.591L53.746 23.911C54.346 25.751 53.336 27.741 51.486 28.341Z" fill="#FF5A5A" fill-opacity="0.3" stroke="#FF5A5A" stroke-miterlimit="10"/>
<path d="M61.0959 29.4811L54.4659 29.9011C52.5259 30.0211 50.8559 28.5511 50.7359 26.6111L50.3159 19.9811C50.1959 18.0411 51.6659 16.3711 53.6059 16.2511L60.2359 15.8311C62.1759 15.7111 63.8459 17.1811 63.9659 19.1211L64.3859 25.7511C64.5059 27.6811 63.0359 29.3511 61.0959 29.4811Z" fill="#FF5A5A" fill-opacity="0.3" stroke="#FF5A5A" stroke-miterlimit="10"/>
<path d="M96.3461 22.011L89.7861 23.041C87.8661 23.341 86.0661 22.031 85.7661 20.111L84.7361 13.551C84.4361 11.631 85.7461 9.83102 87.6661 9.53102L94.2261 8.50102C96.1461 8.20102 97.9461 9.51102 98.2461 11.431L99.2761 17.991C99.5761 19.911 98.2661 21.711 96.3461 22.011Z" fill="#FF5A5A" fill-opacity="0.3" stroke="#FF5A5A" stroke-miterlimit="10"/>
<path d="M139.256 29.2611L132.656 30.0311C130.726 30.2611 128.976 28.881 128.756 26.951L127.986 20.3511C127.756 18.4211 129.136 16.671 131.066 16.451L137.666 15.681C139.596 15.451 141.346 16.8311 141.566 18.7611L142.336 25.361C142.566 27.291 141.186 29.0411 139.256 29.2611Z" fill="#FF5A5A" fill-opacity="0.3" stroke="#FF5A5A" stroke-miterlimit="10"/>
<path d="M115.716 27.331L109.396 29.381C107.546 29.981 105.566 28.971 104.966 27.121L102.916 20.801C102.316 18.951 103.326 16.971 105.176 16.371L111.496 14.321C113.346 13.721 115.326 14.731 115.926 16.581L117.976 22.901C118.576 24.741 117.566 26.721 115.716 27.331Z" fill="#FF5A5A" fill-opacity="0.3" stroke="#FF5A5A" stroke-miterlimit="10"/>
<path d="M79.0759 30.0309L72.476 29.2909C70.546 29.0709 69.156 27.3309 69.366 25.4009L70.1059 18.8009C70.3259 16.8709 72.066 15.4809 73.996 15.6909L80.596 16.4309C82.526 16.6509 83.9159 18.3909 83.7059 20.3209L82.966 26.9209C82.746 28.8509 81.0059 30.2409 79.0759 30.0309Z" fill="#FF5A5A" fill-opacity="0.3" stroke="#FF5A5A" stroke-miterlimit="10"/>
<path d="M9.47602 30.4309L3.26602 28.0609C1.44602 27.3709 0.536017 25.3309 1.23602 23.5209L3.60601 17.3109C4.29601 15.4909 6.33602 14.5809 8.14602 15.2809L14.356 17.6509C16.176 18.3409 17.086 20.3809 16.386 22.1909L14.016 28.4009C13.326 30.2109 11.286 31.1309 9.47602 30.4309Z" fill="#FF5A5A" fill-opacity="0.3" stroke="#FF5A5A" stroke-miterlimit="10"/>
<path d="M94.296 28.341L87.976 30.391C86.126 30.991 84.146 29.981 83.546 28.131L81.496 21.811C80.896 19.961 81.906 17.981 83.756 17.381L90.076 15.331C91.926 14.731 93.906 15.741 94.506 17.591L96.556 23.911C97.156 25.751 96.146 27.741 94.296 28.341Z" fill="#FF5A5A" fill-opacity="0.3" stroke="#FF5A5A" stroke-miterlimit="10"/>
<path d="M114.196 18.0309L107.566 18.4509C105.626 18.5709 103.956 17.1009 103.836 15.1609L103.416 8.53087C103.296 6.59087 104.766 4.92086 106.706 4.80086L113.336 4.38088C115.276 4.26088 116.946 5.73086 117.066 7.67086L117.486 14.3009C117.606 16.2309 116.136 17.9009 114.196 18.0309Z" fill="#FF5A5A" fill-opacity="0.3" stroke="#FF5A5A" stroke-miterlimit="10"/>
<path d="M127.166 29.1011L120.606 30.1311C118.686 30.4311 116.886 29.1211 116.586 27.2011L115.556 20.6411C115.256 18.7211 116.566 16.9211 118.486 16.6211L125.046 15.5911C126.966 15.2911 128.766 16.6011 129.066 18.5211L130.096 25.0811C130.396 27.0011 129.086 28.8011 127.166 29.1011Z" fill="#FF5A5A" fill-opacity="0.3" stroke="#FF5A5A" stroke-miterlimit="10"/>
<path d="M72.1959 21.0709L65.5959 21.8409C63.6659 22.0709 61.9159 20.6909 61.6959 18.7609L60.9259 12.1609C60.6959 10.2309 62.0759 8.48088 64.0059 8.26088L70.6059 7.49086C72.5359 7.26086 74.2859 8.64088 74.5059 10.5709L75.2759 17.1709C75.5059 19.0909 74.1259 20.8409 72.1959 21.0709Z" fill="#FF5A5A" fill-opacity="0.3" stroke="#FF5A5A" stroke-miterlimit="10"/>
<path d="M26.8161 29.2509L20.4961 31.3009C18.6461 31.9009 16.6661 30.8909 16.0661 29.0409L14.0161 22.7209C13.4161 20.8709 14.4261 18.8909 16.2761 18.2909L22.5961 16.2409C24.4461 15.6409 26.4261 16.6509 27.0261 18.5009L29.0761 24.8209C29.6761 26.6709 28.6661 28.6509 26.8161 29.2509Z" fill="#FF5A5A" fill-opacity="0.3" stroke="#FF5A5A" stroke-miterlimit="10"/>
<path d="M128.656 17.601L122.056 16.8609C120.126 16.6409 118.736 14.901 118.946 12.971L119.686 6.37096C119.906 4.44096 121.646 3.05097 123.576 3.26097L130.176 4.00096C132.106 4.22096 133.496 5.96095 133.286 7.89095L132.546 14.491C132.326 16.431 130.586 17.821 128.656 17.601Z" fill="#FF5A5A" fill-opacity="0.3" stroke="#FF5A5A" stroke-miterlimit="10"/>
<path d="M33.926 28.1309L27.716 25.7609C25.896 25.0709 24.986 23.0309 25.686 21.2209L28.056 15.0109C28.746 13.1909 30.786 12.2809 32.596 12.9809L38.806 15.3509C40.626 16.0409 41.536 18.0809 40.836 19.8909L38.466 26.1009C37.776 27.9109 35.736 28.8209 33.926 28.1309Z" fill="#FF5A5A" fill-opacity="0.3" stroke="#FF5A5A" stroke-miterlimit="10"/>
<path d="M19.0259 15.361L12.4259 14.621C10.4959 14.401 9.1059 12.661 9.3159 10.731L10.0559 4.131C10.2759 2.201 12.0159 0.810981 13.9459 1.02098L20.5459 1.761C22.4759 1.981 23.8659 3.72099 23.6559 5.65099L22.9159 12.251C22.7059 14.191 20.9659 15.581 19.0259 15.361Z" fill="#FF5A5A" fill-opacity="0.3" stroke="#FF5A5A" stroke-miterlimit="10"/>
<path d="M51.836 17.601L45.236 16.8609C43.306 16.6409 41.916 14.901 42.126 12.971L42.866 6.37096C43.086 4.44096 44.826 3.05097 46.756 3.26097L53.356 4.00096C55.286 4.22096 56.676 5.96095 56.466 7.89095L55.726 14.491C55.516 16.431 53.776 17.821 51.836 17.601Z" fill="#FF5A5A" fill-opacity="0.3" stroke="#FF5A5A" stroke-miterlimit="10"/>
<path d="M84.2361 15.361L77.6361 14.621C75.7061 14.401 74.3161 12.661 74.5261 10.731L75.2661 4.131C75.4861 2.201 77.2261 0.810981 79.1561 1.02098L85.7561 1.761C87.6861 1.981 89.0761 3.72099 88.8661 5.65099L88.1261 12.251C87.9161 14.191 86.1661 15.581 84.2361 15.361Z" fill="#FF5A5A" fill-opacity="0.3" stroke="#FF5A5A" stroke-miterlimit="10"/>
<path d="M132.796 5.83101L139.376 6.74101C141.306 7.01101 142.646 8.78101 142.386 10.711L141.476 17.291C141.206 19.221 139.436 20.561 137.506 20.301L130.926 19.391C128.996 19.121 127.656 17.351 127.916 15.421L128.826 8.84102C129.096 6.91102 130.876 5.56101 132.796 5.83101Z" fill="#FF5A5A" fill-opacity="0.3" stroke="#FF5A5A" stroke-miterlimit="10"/>
<path d="M62.456 3.02095L69.036 3.93095C70.966 4.20095 72.306 5.97095 72.046 7.90095L71.136 14.4809C70.866 16.4109 69.096 17.751 67.166 17.491L60.586 16.5809C58.656 16.3109 57.316 14.5409 57.576 12.6109L58.486 6.03096C58.756 4.10096 60.536 2.75095 62.456 3.02095Z" fill="#FF5A5A" fill-opacity="0.3" stroke="#FF5A5A" stroke-miterlimit="10"/>
<path d="M44.736 4.39111C45.376 4.39111 45.376 3.39111 44.736 3.39111C44.086 3.39111 44.086 4.39111 44.736 4.39111Z" fill="#FF5A5A"/>
<path d="M57.636 7.64111C58.276 7.64111 58.276 6.64111 57.636 6.64111C56.996 6.64111 56.996 7.64111 57.636 7.64111Z" fill="#FF5A5A"/>
<path d="M83.336 6.8811C83.976 6.8811 83.976 5.8811 83.336 5.8811C82.696 5.8811 82.696 6.8811 83.336 6.8811Z" fill="#FF5A5A"/>
<path d="M80.196 6.99097C80.836 6.99097 80.836 5.99097 80.196 5.99097C79.546 5.99097 79.546 6.99097 80.196 6.99097Z" fill="#FF5A5A"/>
<path d="M79.3261 10.791C79.9661 10.791 79.9661 9.79102 79.3261 9.79102C78.6761 9.79102 78.6761 10.791 79.3261 10.791Z" fill="#FF5A5A"/>
<path d="M83.7661 10.3511C84.4061 10.3511 84.4061 9.35107 83.7661 9.35107C83.1261 9.35107 83.1261 10.3511 83.7661 10.3511Z" fill="#FF5A5A"/>
<path d="M84.966 7.4209C85.606 7.4209 85.606 6.4209 84.966 6.4209C84.316 6.4209 84.316 7.4209 84.966 7.4209Z" fill="#FF5A5A"/>
<path d="M66.416 13.1709C67.056 13.1709 67.056 12.1709 66.416 12.1709C65.776 12.1709 65.776 13.1709 66.416 13.1709Z" fill="#FF5A5A"/>
<path d="M68.3759 9.271C69.0159 9.271 69.0159 8.271 68.3759 8.271C67.7259 8.271 67.7259 9.271 68.3759 9.271Z" fill="#FF5A5A"/>
<path d="M65.336 7.21094C65.976 7.21094 65.976 6.21094 65.336 6.21094C64.696 6.21094 64.696 7.21094 65.336 7.21094Z" fill="#FF5A5A"/>
<path d="M51.566 11.761C52.206 11.761 52.206 10.761 51.566 10.761C50.926 10.761 50.916 11.761 51.566 11.761Z" fill="#FF5A5A"/>
<path d="M17.0861 6.6709C17.7261 6.6709 17.7261 5.6709 17.0861 5.6709C16.4361 5.6709 16.4361 6.6709 17.0861 6.6709Z" fill="#FF5A5A"/>
<path d="M16.5362 11.3311C17.1762 11.3311 17.1762 10.3311 16.5362 10.3311C15.8962 10.3311 15.8962 11.3311 16.5362 11.3311Z" fill="#FF5A5A"/>
<path d="M14.1561 10.4609C14.7961 10.4609 14.7961 9.46094 14.1561 9.46094C13.5161 9.46094 13.5061 10.4609 14.1561 10.4609Z" fill="#FF5A5A"/>
<path d="M6.88601 20.1111C7.52601 20.1111 7.52601 19.1111 6.88601 19.1111C6.24601 19.1111 6.24601 20.1111 6.88601 20.1111Z" fill="#FF5A5A"/>
<path d="M5.26606 23.5811C5.90606 23.5811 5.90606 22.5811 5.26606 22.5811C4.61606 22.5811 4.61606 23.5811 5.26606 23.5811Z" fill="#FF5A5A"/>
<path d="M9.92604 23.4709C10.566 23.4709 10.566 22.4709 9.92604 22.4709C9.28604 22.4709 9.28604 23.4709 9.92604 23.4709Z" fill="#FF5A5A"/>
<path d="M21.0961 23.3611C21.7361 23.3611 21.7361 22.3611 21.0961 22.3611C20.4561 22.3611 20.4461 23.3611 21.0961 23.3611Z" fill="#FF5A5A"/>
<path d="M21.966 26.511C22.606 26.511 22.606 25.511 21.966 25.511C21.316 25.511 21.316 26.511 21.966 26.511Z" fill="#FF5A5A"/>
<path d="M31.5061 22.9309C32.1461 22.9309 32.1461 21.9309 31.5061 21.9309C30.8561 21.9309 30.8561 22.9309 31.5061 22.9309Z" fill="#FF5A5A"/>
<path d="M33.2361 18.7009C33.8761 18.7009 33.8761 17.7009 33.2361 17.7009C32.5961 17.7009 32.5961 18.7009 33.2361 18.7009Z" fill="#FF5A5A"/>
<path d="M37.4661 20.6509C38.1061 20.6509 38.1061 19.6509 37.4661 19.6509C36.8261 19.6509 36.8261 20.6509 37.4661 20.6509Z" fill="#FF5A5A"/>
<path d="M35.5161 23.6909C36.1561 23.6909 36.1561 22.6909 35.5161 22.6909C34.8761 22.6909 34.8761 23.6909 35.5161 23.6909Z" fill="#FF5A5A"/>
<path d="M47.0061 23.261C47.6461 23.261 47.6461 22.261 47.0061 22.261C46.3661 22.261 46.3661 23.261 47.0061 23.261Z" fill="#FF5A5A"/>
<path d="M43.5362 26.8311C44.1762 26.8311 44.1762 25.8311 43.5362 25.8311C42.8962 25.8311 42.8962 26.8311 43.5362 26.8311Z" fill="#FF5A5A"/>
<path d="M42.886 22.3911C43.526 22.3911 43.526 21.3911 42.886 21.3911C42.246 21.3911 42.246 22.3911 42.886 22.3911Z" fill="#FF5A5A"/>
<path d="M48.416 20.6509C49.056 20.6509 49.056 19.6509 48.416 19.6509C47.776 19.6509 47.776 20.6509 48.416 20.6509Z" fill="#FF5A5A"/>
<path d="M56.5561 24.8811C57.1961 24.8811 57.1961 23.8811 56.5561 23.8811C55.9061 23.8811 55.9061 24.8811 56.5561 24.8811Z" fill="#FF5A5A"/>
<path d="M62.6261 24.771C63.2661 24.771 63.2661 23.771 62.6261 23.771C61.9861 23.771 61.9761 24.771 62.6261 24.771Z" fill="#FF5A5A"/>
<path d="M59.3759 21.0911C60.0159 21.0911 60.0159 20.0911 59.3759 20.0911C58.7259 20.0911 58.7259 21.0911 59.3759 21.0911Z" fill="#FF5A5A"/>
<path d="M139.396 7.21094C140.036 7.21094 140.036 6.21094 139.396 6.21094C138.756 6.21094 138.756 7.21094 139.396 7.21094Z" fill="#FF5A5A"/>
<path d="M136.356 13.281C136.996 13.281 136.996 12.281 136.356 12.281C135.716 12.281 135.716 13.281 136.356 13.281Z" fill="#FF5A5A"/>
<path d="M139.506 14.041C140.146 14.041 140.146 13.041 139.506 13.041C138.856 13.041 138.856 14.041 139.506 14.041Z" fill="#FF5A5A"/>
<path d="M132.886 15.231C133.526 15.231 133.526 14.231 132.886 14.231C132.246 14.231 132.246 15.231 132.886 15.231Z" fill="#FF5A5A"/>
<path d="M121.286 8.94092C121.926 8.94092 121.926 7.94092 121.286 7.94092C120.646 7.94092 120.646 8.94092 121.286 8.94092Z" fill="#FF5A5A"/>
<path d="M122.696 13.7109C123.336 13.7109 123.336 12.7109 122.696 12.7109C122.056 12.7109 122.056 13.7109 122.696 13.7109Z" fill="#FF5A5A"/>
<path d="M126.166 10.8911C126.806 10.8911 126.806 9.89111 126.166 9.89111C125.526 9.89111 125.526 10.8911 126.166 10.8911Z" fill="#FF5A5A"/>
<path d="M130.066 13.1709C130.706 13.1709 130.706 12.1709 130.066 12.1709C129.426 12.1709 129.426 13.1709 130.066 13.1709Z" fill="#FF5A5A"/>
<path d="M114.676 13.061C115.316 13.061 115.316 12.061 114.676 12.061C114.026 12.061 114.026 13.061 114.676 13.061Z" fill="#FF5A5A"/>
<path d="M113.476 8.83105C114.116 8.83105 114.116 7.83105 113.476 7.83105C112.836 7.83105 112.836 8.83105 113.476 8.83105Z" fill="#FF5A5A"/>
<path d="M109.686 10.3511C110.326 10.3511 110.326 9.35107 109.686 9.35107C109.046 9.35107 109.036 10.3511 109.686 10.3511Z" fill="#FF5A5A"/>
<path d="M107.736 15.4509C108.376 15.4509 108.376 14.4509 107.736 14.4509C107.086 14.4509 107.086 15.4509 107.736 15.4509Z" fill="#FF5A5A"/>
<path d="M111.966 12.0911C112.606 12.0911 112.606 11.0911 111.966 11.0911C111.316 11.0911 111.316 12.0911 111.966 12.0911Z" fill="#FF5A5A"/>
<path d="M94.2859 11.8711C94.9259 11.8711 94.9259 10.8711 94.2859 10.8711C93.6459 10.8711 93.6459 11.8711 94.2859 11.8711Z" fill="#FF5A5A"/>
<path d="M112.176 22.501C112.816 22.501 112.816 21.501 112.176 21.501C111.536 21.501 111.536 22.501 112.176 22.501Z" fill="#FF5A5A"/>
<path d="M107.846 24.3411C108.486 24.3411 108.486 23.3411 107.846 23.3411C107.196 23.3411 107.196 24.3411 107.846 24.3411Z" fill="#FF5A5A"/>
<path d="M122.476 25.1011C123.116 25.1011 123.116 24.1011 122.476 24.1011C121.836 24.1011 121.836 25.1011 122.476 25.1011Z" fill="#FF5A5A"/>
<path d="M138.636 25.6411C139.276 25.6411 139.276 24.6411 138.636 24.6411C137.996 24.6411 137.996 25.6411 138.636 25.6411Z" fill="#FF5A5A"/>
<path d="M136.256 21.741C136.896 21.741 136.896 20.741 136.256 20.741C135.606 20.741 135.606 21.741 136.256 21.741Z" fill="#FF5A5A"/>
<path d="M75.746 20.981C76.386 20.981 76.386 19.981 75.746 19.981C75.106 19.981 75.096 20.981 75.746 20.981Z" fill="#FF5A5A"/>
<path d="M80.736 24.231C81.376 24.231 81.376 23.231 80.736 23.231C80.086 23.231 80.086 24.231 80.736 24.231Z" fill="#FF5A5A"/>
<path d="M75.966 25.4209C76.606 25.4209 76.606 24.4209 75.966 24.4209C75.316 24.4209 75.316 25.4209 75.966 25.4209Z" fill="#FF5A5A"/>
</svg>
