<svg width="152" height="47" viewBox="0 0 152 47" fill="none" xmlns="http://www.w3.org/2000/svg">
<path d="M52.3153 42.8852L45.9953 44.9352C44.1453 45.5352 42.1653 44.5252 41.5653 42.6752L39.5153 36.3552C38.9153 34.5052 39.9253 32.5252 41.7753 31.9252L48.0953 29.8752C49.9453 29.2752 51.9253 30.2852 52.5253 32.1352L54.5753 38.4552C55.1753 40.2952 54.1653 42.2852 52.3153 42.8852Z" fill="#FF5A5A" fill-opacity="0.3" stroke="#FF5A5A" stroke-miterlimit="10"/>
<path d="M61.9253 44.0253L55.2953 44.4453C53.3553 44.5653 51.6853 43.0953 51.5653 41.1553L51.1453 34.5253C51.0253 32.5853 52.4953 30.9153 54.4353 30.7953L61.0653 30.3753C63.0053 30.2553 64.6753 31.7253 64.7953 33.6653L65.2153 40.2953C65.3353 42.2253 63.8653 43.8953 61.9253 44.0253Z" fill="#FF5A5A" fill-opacity="0.3" stroke="#FF5A5A" stroke-miterlimit="10"/>
<path d="M97.1755 36.5552L90.6155 37.5852C88.6955 37.8852 86.8955 36.5752 86.5955 34.6552L85.5655 28.0952C85.2655 26.1752 86.5755 24.3752 88.4955 24.0752L95.0555 23.0452C96.9755 22.7452 98.7755 24.0552 99.0755 25.9752L100.105 32.5352C100.405 34.4552 99.0955 36.2552 97.1755 36.5552Z" fill="#FF5A5A" fill-opacity="0.3" stroke="#FF5A5A" stroke-miterlimit="10"/>
<path d="M140.085 43.8053L133.485 44.5752C131.555 44.8052 129.805 43.4252 129.585 41.4952L128.815 34.8953C128.585 32.9653 129.965 31.2152 131.895 30.9952L138.495 30.2252C140.425 29.9952 142.175 31.3753 142.395 33.3053L143.165 39.9052C143.395 41.8352 142.015 43.5853 140.085 43.8053Z" fill="#FF5A5A" fill-opacity="0.3" stroke="#FF5A5A" stroke-miterlimit="10"/>
<path d="M116.545 41.8752L110.225 43.9252C108.375 44.5252 106.395 43.5152 105.795 41.6652L103.745 35.3452C103.145 33.4952 104.155 31.5152 106.005 30.9152L112.325 28.8652C114.175 28.2652 116.155 29.2752 116.755 31.1252L118.805 37.4452C119.405 39.2852 118.395 41.2652 116.545 41.8752Z" fill="#FF5A5A" fill-opacity="0.3" stroke="#FF5A5A" stroke-miterlimit="10"/>
<path d="M79.9053 44.5753L73.3053 43.8353C71.3753 43.6153 69.9853 41.8753 70.1953 39.9453L70.9353 33.3453C71.1553 31.4153 72.8953 30.0253 74.8253 30.2353L81.4253 30.9753C83.3553 31.1953 84.7453 32.9353 84.5353 34.8653L83.7953 41.4653C83.5753 43.3953 81.8353 44.7853 79.9053 44.5753Z" fill="#FF5A5A" fill-opacity="0.3" stroke="#FF5A5A" stroke-miterlimit="10"/>
<path d="M10.3054 44.9754L4.09536 42.6054C2.27536 41.9154 1.36536 39.8754 2.06536 38.0654L4.43536 31.8554C5.12536 30.0354 7.16537 29.1254 8.97537 29.8254L15.1854 32.1954C17.0054 32.8854 17.9154 34.9254 17.2154 36.7354L14.8454 42.9454C14.1554 44.7554 12.1154 45.6754 10.3054 44.9754Z" fill="#FF5A5A" fill-opacity="0.3" stroke="#FF5A5A" stroke-miterlimit="10"/>
<path d="M95.1254 42.8852L88.8054 44.9352C86.9554 45.5352 84.9754 44.5252 84.3754 42.6752L82.3254 36.3552C81.7254 34.5052 82.7354 32.5252 84.5854 31.9252L90.9054 29.8752C92.7554 29.2752 94.7354 30.2852 95.3354 32.1352L97.3854 38.4552C97.9854 40.2952 96.9754 42.2852 95.1254 42.8852Z" fill="#FF5A5A" fill-opacity="0.3" stroke="#FF5A5A" stroke-miterlimit="10"/>
<path d="M115.025 32.5753L108.395 32.9953C106.455 33.1153 104.785 31.6453 104.665 29.7053L104.245 23.0753C104.125 21.1353 105.595 19.4653 107.535 19.3453L114.165 18.9253C116.105 18.8053 117.775 20.2753 117.895 22.2153L118.315 28.8453C118.435 30.7753 116.965 32.4453 115.025 32.5753Z" fill="#FF5A5A" fill-opacity="0.3" stroke="#FF5A5A" stroke-miterlimit="10"/>
<path d="M127.995 43.6453L121.435 44.6753C119.515 44.9753 117.715 43.6653 117.415 41.7453L116.385 35.1853C116.085 33.2653 117.395 31.4653 119.315 31.1653L125.875 30.1353C127.795 29.8353 129.595 31.1453 129.895 33.0653L130.925 39.6253C131.225 41.5453 129.915 43.3453 127.995 43.6453Z" fill="#FF5A5A" fill-opacity="0.3" stroke="#FF5A5A" stroke-miterlimit="10"/>
<path d="M73.0255 35.6153L66.4255 36.3853C64.4955 36.6153 62.7455 35.2353 62.5255 33.3053L61.7555 26.7053C61.5255 24.7753 62.9055 23.0253 64.8355 22.8053L71.4355 22.0353C73.3655 21.8053 75.1155 23.1853 75.3355 25.1153L76.1055 31.7153C76.3355 33.6353 74.9555 35.3853 73.0255 35.6153Z" fill="#FF5A5A" fill-opacity="0.3" stroke="#FF5A5A" stroke-miterlimit="10"/>
<path d="M27.6454 43.7954L21.3254 45.8454C19.4754 46.4454 17.4954 45.4354 16.8954 43.5854L14.8454 37.2654C14.2454 35.4154 15.2554 33.4354 17.1054 32.8354L23.4254 30.7854C25.2754 30.1854 27.2554 31.1954 27.8554 33.0454L29.9054 39.3654C30.5054 41.2154 29.4954 43.1954 27.6454 43.7954Z" fill="#FF5A5A" fill-opacity="0.3" stroke="#FF5A5A" stroke-miterlimit="10"/>
<path d="M129.485 32.1452L122.885 31.4051C120.955 31.1851 119.565 29.4452 119.775 27.5152L120.515 20.9151C120.735 18.9851 122.475 17.5952 124.405 17.8052L131.005 18.5452C132.935 18.7652 134.325 20.5051 134.115 22.4351L133.375 29.0351C133.155 30.9751 131.415 32.3652 129.485 32.1452Z" fill="#FF5A5A" fill-opacity="0.3" stroke="#FF5A5A" stroke-miterlimit="10"/>
<path d="M34.7553 42.6753L28.5453 40.3053C26.7253 39.6153 25.8153 37.5753 26.5153 35.7653L28.8853 29.5553C29.5753 27.7353 31.6153 26.8253 33.4253 27.5253L39.6353 29.8953C41.4553 30.5853 42.3653 32.6253 41.6653 34.4353L39.2953 40.6453C38.6053 42.4553 36.5653 43.3653 34.7553 42.6753Z" fill="#FF5A5A" fill-opacity="0.3" stroke="#FF5A5A" stroke-miterlimit="10"/>
<path d="M19.8555 29.9052L13.2555 29.1652C11.3255 28.9452 9.93549 27.2052 10.1455 25.2752L10.8855 18.6752C11.1055 16.7452 12.8455 15.3552 14.7755 15.5652L21.3755 16.3052C23.3055 16.5252 24.6955 18.2652 24.4855 20.1952L23.7455 26.7952C23.5355 28.7352 21.7955 30.1252 19.8555 29.9052Z" fill="#FF5A5A" fill-opacity="0.3" stroke="#FF5A5A" stroke-miterlimit="10"/>
<path d="M52.6653 32.1452L46.0653 31.4051C44.1353 31.1851 42.7453 29.4452 42.9553 27.5152L43.6953 20.9151C43.9153 18.9851 45.6553 17.5952 47.5853 17.8052L54.1853 18.5452C56.1153 18.7652 57.5053 20.5051 57.2953 22.4351L56.5553 29.0351C56.3453 30.9751 54.6053 32.3652 52.6653 32.1452Z" fill="#FF5A5A" fill-opacity="0.3" stroke="#FF5A5A" stroke-miterlimit="10"/>
<path d="M85.0654 29.9052L78.4655 29.1652C76.5355 28.9452 75.1455 27.2052 75.3555 25.2752L76.0954 18.6752C76.3154 16.7452 78.0554 15.3552 79.9854 15.5652L86.5854 16.3052C88.5154 16.5252 89.9055 18.2652 89.6955 20.1952L88.9555 26.7952C88.7455 28.7352 86.9954 30.1252 85.0654 29.9052Z" fill="#FF5A5A" fill-opacity="0.3" stroke="#FF5A5A" stroke-miterlimit="10"/>
<path d="M86.7854 4.0353L93.4254 3.7853C95.3654 3.7153 96.9954 5.2253 97.0754 7.1653L97.3254 13.8053C97.3954 15.7453 95.8854 17.3753 93.9454 17.4553L87.3054 17.7053C85.3654 17.7753 83.7354 16.2653 83.6554 14.3253L83.4054 7.68529C83.3254 5.74529 84.8454 4.1153 86.7854 4.0353Z" fill="#FF5A5A" fill-opacity="0.3" stroke="#FF5A5A" stroke-miterlimit="10"/>
<path d="M51.3553 10.6052L57.9453 9.7452C59.8753 9.4952 61.6353 10.8552 61.8853 12.7752L62.7453 19.3652C62.9953 21.2952 61.6353 23.0552 59.7153 23.3052L53.1253 24.1652C51.1953 24.4152 49.4353 23.0552 49.1853 21.1352L48.3253 14.5452C48.0753 12.6152 49.4353 10.8552 51.3553 10.6052Z" fill="#FF5A5A" fill-opacity="0.3" stroke="#FF5A5A" stroke-miterlimit="10"/>
<path d="M4.19539 13.6853L10.8154 13.0754C12.7554 12.8954 14.4654 14.3253 14.6354 16.2553L15.2454 22.8753C15.4254 24.8153 13.9954 26.5253 12.0654 26.6953L5.44539 27.3054C3.50539 27.4854 1.79539 26.0553 1.62539 24.1253L1.01539 17.5053C0.835385 15.5753 2.25539 13.8653 4.19539 13.6853Z" fill="#FF5A5A" fill-opacity="0.3" stroke="#FF5A5A" stroke-miterlimit="10"/>
<path d="M32.1253 4.79526L38.4953 2.90525C40.3553 2.35525 42.3153 3.41524 42.8653 5.27524L44.7553 11.6453C45.3053 13.5053 44.2453 15.4653 42.3853 16.0153L36.0153 17.9052C34.1553 18.4552 32.1953 17.3953 31.6453 15.5353L29.7553 9.16526C29.1953 7.31526 30.2653 5.35526 32.1253 4.79526Z" fill="#FF5A5A" fill-opacity="0.3" stroke="#FF5A5A" stroke-miterlimit="10"/>
<path d="M68.8253 3.03535L75.4053 3.94536C77.3353 4.21536 78.6753 5.98536 78.4153 7.91536L77.5053 14.4953C77.2353 16.4253 75.4653 17.7654 73.5353 17.5054L66.9553 16.5954C65.0253 16.3254 63.6853 14.5553 63.9453 12.6253L64.8553 6.04536C65.1253 4.11536 66.8953 2.76535 68.8253 3.03535Z" fill="#FF5A5A" fill-opacity="0.3" stroke="#FF5A5A" stroke-miterlimit="10"/>
<path d="M142.875 12.6053L149.015 15.1253C150.815 15.8653 151.675 17.9153 150.935 19.7153L148.415 25.8553C147.675 27.6553 145.625 28.5153 143.825 27.7753L137.685 25.2553C135.885 24.5153 135.025 22.4653 135.765 20.6653L138.285 14.5253C139.025 12.7253 141.075 11.8753 142.875 12.6053Z" fill="#FF5A5A" fill-opacity="0.3" stroke="#FF5A5A" stroke-miterlimit="10"/>
<path d="M53.5653 4.3353L59.9353 2.44529C61.7953 1.89529 63.7553 2.95528 64.3053 4.81528L66.1953 11.1853C66.7453 13.0453 65.6853 15.0053 63.8253 15.5553L57.4553 17.4453C55.5953 17.9953 53.6353 16.9353 53.0853 15.0753L51.1953 8.7053C50.6453 6.8453 51.7053 4.8853 53.5653 4.3353Z" fill="#FF5A5A" fill-opacity="0.3" stroke="#FF5A5A" stroke-miterlimit="10"/>
<path d="M38.5354 10.7453L45.1754 10.4953C47.1154 10.4253 48.7454 11.9353 48.8254 13.8753L49.0754 20.5153C49.1454 22.4553 47.6354 24.0853 45.6954 24.1653L39.0554 24.4153C37.1154 24.4853 35.4854 22.9753 35.4054 21.0353L35.1554 14.3953C35.0754 12.4453 36.5854 10.8153 38.5354 10.7453Z" fill="#FF5A5A" fill-opacity="0.3" stroke="#FF5A5A" stroke-miterlimit="10"/>
<path d="M20.7254 2.73535L27.3154 1.87533C29.2454 1.62533 31.0054 2.98533 31.2554 4.90533L32.1154 11.4953C32.3654 13.4253 31.0054 15.1853 29.0854 15.4353L22.4954 16.2953C20.5654 16.5453 18.8054 15.1853 18.5554 13.2653L17.6954 6.67535C17.4454 4.74535 18.8054 2.98535 20.7254 2.73535Z" fill="#FF5A5A" fill-opacity="0.3" stroke="#FF5A5A" stroke-miterlimit="10"/>
<path d="M78.5954 1.62528L85.2154 1.01529C87.1554 0.835293 88.8654 2.26529 89.0354 4.19529L89.6455 10.8153C89.8255 12.7553 88.3954 14.4653 86.4654 14.6353L79.8454 15.2453C77.9054 15.4253 76.1954 13.9953 76.0254 12.0653L75.4154 5.44529C75.2354 3.51529 76.6654 1.80528 78.5954 1.62528Z" fill="#FF5A5A" fill-opacity="0.3" stroke="#FF5A5A" stroke-miterlimit="10"/>
<path d="M125.665 6.93537L132.035 5.04538C133.895 4.49538 135.855 5.55538 136.405 7.41538L138.295 13.7854C138.845 15.6454 137.785 17.6054 135.925 18.1554L129.555 20.0454C127.695 20.5954 125.735 19.5354 125.185 17.6754L123.295 11.3054C122.745 9.44539 123.805 7.49537 125.665 6.93537Z" fill="#FF5A5A" fill-opacity="0.3" stroke="#FF5A5A" stroke-miterlimit="10"/>
<path d="M24.0753 13.5253L30.6553 14.4353C32.5853 14.7053 33.9253 16.4753 33.6653 18.4053L32.7553 24.9854C32.4853 26.9154 30.7153 28.2553 28.7853 27.9953L22.2053 27.0854C20.2753 26.8154 18.9353 25.0454 19.1953 23.1154L20.1053 16.5354C20.3753 14.6054 22.1453 13.2553 24.0753 13.5253Z" fill="#FF5A5A" fill-opacity="0.3" stroke="#FF5A5A" stroke-miterlimit="10"/>
<path d="M113.915 6.08532L120.055 8.60531C121.855 9.34531 122.715 11.3953 121.975 13.1953L119.455 19.3353C118.715 21.1353 116.665 21.9953 114.865 21.2553L108.725 18.7353C106.925 17.9953 106.065 15.9453 106.805 14.1453L109.325 8.00531C110.065 6.20531 112.115 5.34532 113.915 6.08532Z" fill="#FF5A5A" fill-opacity="0.3" stroke="#FF5A5A" stroke-miterlimit="10"/>
<path d="M133.625 20.3752L140.205 21.2852C142.135 21.5552 143.475 23.3252 143.215 25.2552L142.305 31.8352C142.035 33.7652 140.265 35.1052 138.335 34.8452L131.755 33.9352C129.825 33.6652 128.485 31.8952 128.745 29.9652L129.655 23.3852C129.925 21.4552 131.705 20.1052 133.625 20.3752Z" fill="#FF5A5A" fill-opacity="0.3" stroke="#FF5A5A" stroke-miterlimit="10"/>
<path d="M95.7355 16.1453L102.315 17.0553C104.245 17.3253 105.585 19.0953 105.325 21.0253L104.415 27.6053C104.145 29.5353 102.375 30.8753 100.445 30.6153L93.8655 29.7053C91.9355 29.4353 90.5955 27.6653 90.8555 25.7353L91.7655 19.1553C92.0355 17.2253 93.8055 15.8853 95.7355 16.1453Z" fill="#FF5A5A" fill-opacity="0.3" stroke="#FF5A5A" stroke-miterlimit="10"/>
<path d="M63.2853 17.5654L69.8653 18.4754C71.7953 18.7454 73.1353 20.5154 72.8753 22.4454L71.9653 29.0254C71.6953 30.9554 69.9253 32.2954 67.9953 32.0354L61.4153 31.1254C59.4853 30.8554 58.1453 29.0854 58.4053 27.1554L59.3153 20.5754C59.5853 18.6454 61.3653 17.2954 63.2853 17.5654Z" fill="#FF5A5A" fill-opacity="0.3" stroke="#FF5A5A" stroke-miterlimit="10"/>
<path d="M22.8953 6.89526C23.5353 6.89526 23.5353 5.89526 22.8953 5.89526C22.2553 5.89526 22.2553 6.89526 22.8953 6.89526Z" fill="#FF5A5A"/>
<path d="M26.1555 6.5752C26.7955 6.5752 26.7955 5.5752 26.1555 5.5752C25.5055 5.5752 25.5055 6.5752 26.1555 6.5752Z" fill="#FF5A5A"/>
<path d="M24.5254 11.1252C25.1654 11.1252 25.1654 10.1252 24.5254 10.1252C23.8854 10.1252 23.8854 11.1252 24.5254 11.1252Z" fill="#FF5A5A"/>
<path d="M30.4854 11.3452C31.1254 11.3452 31.1254 10.3452 30.4854 10.3452C29.8454 10.3452 29.8454 11.3452 30.4854 11.3452Z" fill="#FF5A5A"/>
<path d="M39.1653 10.3652C39.8053 10.3652 39.8053 9.36523 39.1653 9.36523C38.5253 9.36523 38.5253 10.3652 39.1653 10.3652Z" fill="#FF5A5A"/>
<path d="M40.2454 16.9854C40.8854 16.9854 40.8854 15.9854 40.2454 15.9854C39.6054 15.9854 39.6054 16.9854 40.2454 16.9854Z" fill="#FF5A5A"/>
<path d="M37.5354 7.11523C38.1754 7.11523 38.1754 6.11523 37.5354 6.11523C36.8954 6.11523 36.8954 7.11523 37.5354 7.11523Z" fill="#FF5A5A"/>
<path d="M34.3954 12.8652C35.0354 12.8652 35.0354 11.8652 34.3954 11.8652C33.7554 11.8652 33.7454 12.8652 34.3954 12.8652Z" fill="#FF5A5A"/>
<path d="M39.3854 16.3352C40.0254 16.3352 40.0254 15.3352 39.3854 15.3352C38.7354 15.3352 38.7354 16.3352 39.3854 16.3352Z" fill="#FF5A5A"/>
<path d="M45.5654 18.9353C46.2054 18.9353 46.2054 17.9353 45.5654 17.9353C44.9154 17.9353 44.9154 18.9353 45.5654 18.9353Z" fill="#FF5A5A"/>
<path d="M55.5354 17.6353C56.1754 17.6353 56.1754 16.6353 55.5354 16.6353C54.8954 16.6353 54.8954 17.6353 55.5354 17.6353Z" fill="#FF5A5A"/>
<path d="M58.4654 22.1853C59.1054 22.1853 59.1054 21.1853 58.4654 21.1853C57.8254 21.1853 57.8254 22.1853 58.4654 22.1853Z" fill="#FF5A5A"/>
<path d="M59.9855 10.3652C60.6255 10.3652 60.6255 9.36523 59.9855 9.36523C59.3455 9.36523 59.3355 10.3652 59.9855 10.3652Z" fill="#FF5A5A"/>
<path d="M64.4253 13.0752C65.0653 13.0752 65.0653 12.0752 64.4253 12.0752C63.7853 12.0752 63.7853 13.0752 64.4253 13.0752Z" fill="#FF5A5A"/>
<path d="M62.6953 7.54541C63.3353 7.54541 63.3353 6.54541 62.6953 6.54541C62.0553 6.54541 62.0553 7.54541 62.6953 7.54541Z" fill="#FF5A5A"/>
<path d="M57.8154 9.49536C58.4554 9.49536 58.4554 8.49536 57.8154 8.49536C57.1754 8.49536 57.1754 9.49536 57.8154 9.49536Z" fill="#FF5A5A"/>
<path d="M57.0554 7.65527C57.6954 7.65527 57.6954 6.65527 57.0554 6.65527C56.4154 6.65527 56.4154 7.65527 57.0554 7.65527Z" fill="#FF5A5A"/>
<path d="M69.4153 13.1853C70.0553 13.1853 70.0553 12.1853 69.4153 12.1853C68.7753 12.1853 68.7753 13.1853 69.4153 13.1853Z" fill="#FF5A5A"/>
<path d="M69.7453 6.35522C70.3853 6.35522 70.3853 5.35522 69.7453 5.35522C69.0953 5.35522 69.0953 6.35522 69.7453 6.35522Z" fill="#FF5A5A"/>
<path d="M75.2753 7.98535C75.9153 7.98535 75.9153 6.98535 75.2753 6.98535C74.6253 6.98535 74.6253 7.98535 75.2753 7.98535Z" fill="#FF5A5A"/>
<path d="M73.1053 11.3452C73.7453 11.3452 73.7453 10.3452 73.1053 10.3452C72.4653 10.3452 72.4553 11.3452 73.1053 11.3452Z" fill="#FF5A5A"/>
<path d="M71.2653 10.4753C71.9053 10.4753 71.9053 9.47534 71.2653 9.47534C70.6153 9.47534 70.6153 10.4753 71.2653 10.4753Z" fill="#FF5A5A"/>
<path d="M68.0054 10.2554C68.6454 10.2554 68.6454 9.25537 68.0054 9.25537C67.3654 9.25537 67.3654 10.2554 68.0054 10.2554Z" fill="#FF5A5A"/>
<path d="M75.1653 15.6853C75.8053 15.6853 75.8053 14.6853 75.1653 14.6853C74.5253 14.6853 74.5253 15.6853 75.1653 15.6853Z" fill="#FF5A5A"/>
<path d="M79.0654 8.63525C79.7054 8.63525 79.7054 7.63525 79.0654 7.63525C78.4254 7.63525 78.4254 8.63525 79.0654 8.63525Z" fill="#FF5A5A"/>
<path d="M80.5855 12.6453C81.2255 12.6453 81.2255 11.6453 80.5855 11.6453C79.9455 11.6453 79.9455 12.6453 80.5855 12.6453Z" fill="#FF5A5A"/>
<path d="M84.2753 11.6653C84.9153 11.6653 84.9153 10.6653 84.2753 10.6653C83.6253 10.6653 83.6253 11.6653 84.2753 11.6653Z" fill="#FF5A5A"/>
<path d="M84.5955 6.89526C85.2355 6.89526 85.2355 5.89526 84.5955 5.89526C83.9555 5.89526 83.9555 6.89526 84.5955 6.89526Z" fill="#FF5A5A"/>
<path d="M87.7453 9.9353C88.3853 9.9353 88.3853 8.9353 87.7453 8.9353C87.0953 8.9353 87.0953 9.9353 87.7453 9.9353Z" fill="#FF5A5A"/>
<path d="M87.7453 11.9954C88.3853 11.9954 88.3853 10.9954 87.7453 10.9954C87.0953 10.9954 87.0953 11.9954 87.7453 11.9954Z" fill="#FF5A5A"/>
<path d="M87.2055 4.72534C87.8455 4.72534 87.8455 3.72534 87.2055 3.72534C86.5555 3.72534 86.5555 4.72534 87.2055 4.72534Z" fill="#FF5A5A"/>
<path d="M81.7754 4.0752C82.4154 4.0752 82.4154 3.0752 81.7754 3.0752C81.1354 3.0752 81.1354 4.0752 81.7754 4.0752Z" fill="#FF5A5A"/>
<path d="M81.2354 7.00537C81.8754 7.00537 81.8754 6.00537 81.2354 6.00537C80.5954 6.00537 80.5954 7.00537 81.2354 7.00537Z" fill="#FF5A5A"/>
<path d="M92.4053 11.5552C93.0453 11.5552 93.0453 10.5552 92.4053 10.5552C91.7653 10.5552 91.7653 11.5552 92.4053 11.5552Z" fill="#FF5A5A"/>
<path d="M95.4455 8.84521C96.0855 8.84521 96.0855 7.84521 95.4455 7.84521C94.7955 7.84521 94.7955 8.84521 95.4455 8.84521Z" fill="#FF5A5A"/>
<path d="M96.2055 13.1853C96.8455 13.1853 96.8455 12.1853 96.2055 12.1853C95.5555 12.1853 95.5555 13.1853 96.2055 13.1853Z" fill="#FF5A5A"/>
<path d="M94.3555 15.0254C94.9955 15.0254 94.9955 14.0254 94.3555 14.0254C93.7155 14.0254 93.7155 15.0254 94.3555 15.0254Z" fill="#FF5A5A"/>
<path d="M90.8853 15.7852C91.5253 15.7852 91.5253 14.7852 90.8853 14.7852C90.2453 14.7852 90.2453 15.7852 90.8853 15.7852Z" fill="#FF5A5A"/>
<path d="M93.4854 8.08521C94.1254 8.08521 94.1254 7.08521 93.4854 7.08521C92.8454 7.08521 92.8454 8.08521 93.4854 8.08521Z" fill="#FF5A5A"/>
<path d="M84.1653 21.4253C84.8053 21.4253 84.8053 20.4253 84.1653 20.4253C83.5253 20.4253 83.5253 21.4253 84.1653 21.4253Z" fill="#FF5A5A"/>
<path d="M81.0253 21.5352C81.6653 21.5352 81.6653 20.5352 81.0253 20.5352C80.3753 20.5352 80.3753 21.5352 81.0253 21.5352Z" fill="#FF5A5A"/>
<path d="M80.1555 25.3352C80.7955 25.3352 80.7955 24.3352 80.1555 24.3352C79.5055 24.3352 79.5055 25.3352 80.1555 25.3352Z" fill="#FF5A5A"/>
<path d="M84.5955 24.8953C85.2355 24.8953 85.2355 23.8953 84.5955 23.8953C83.9555 23.8953 83.9555 24.8953 84.5955 24.8953Z" fill="#FF5A5A"/>
<path d="M85.7954 21.9653C86.4354 21.9653 86.4354 20.9653 85.7954 20.9653C85.1454 20.9653 85.1454 21.9653 85.7954 21.9653Z" fill="#FF5A5A"/>
<path d="M67.2454 27.7153C67.8854 27.7153 67.8854 26.7153 67.2454 26.7153C66.6054 26.7153 66.6054 27.7153 67.2454 27.7153Z" fill="#FF5A5A"/>
<path d="M69.2053 23.8152C69.8453 23.8152 69.8453 22.8152 69.2053 22.8152C68.5553 22.8152 68.5553 23.8152 69.2053 23.8152Z" fill="#FF5A5A"/>
<path d="M66.1653 21.7554C66.8053 21.7554 66.8053 20.7554 66.1653 20.7554C65.5253 20.7554 65.5253 21.7554 66.1653 21.7554Z" fill="#FF5A5A"/>
<path d="M52.3954 26.3052C53.0354 26.3052 53.0354 25.3052 52.3954 25.3052C51.7554 25.3052 51.7454 26.3052 52.3954 26.3052Z" fill="#FF5A5A"/>
<path d="M43.0654 20.9954C43.7054 20.9954 43.7054 19.9954 43.0654 19.9954C42.4254 19.9954 42.4254 20.9954 43.0654 20.9954Z" fill="#FF5A5A"/>
<path d="M26.3655 24.7852C27.0055 24.7852 27.0055 23.7852 26.3655 23.7852C25.7255 23.7852 25.7255 24.7852 26.3655 24.7852Z" fill="#FF5A5A"/>
<path d="M30.4854 25.0054C31.1254 25.0054 31.1254 24.0054 30.4854 24.0054C29.8454 24.0054 29.8454 25.0054 30.4854 25.0054Z" fill="#FF5A5A"/>
<path d="M31.5753 20.5552C32.2153 20.5552 32.2153 19.5552 31.5753 19.5552C30.9353 19.5552 30.9253 20.5552 31.5753 20.5552Z" fill="#FF5A5A"/>
<path d="M27.8853 20.4553C28.5253 20.4553 28.5253 19.4553 27.8853 19.4553C27.2453 19.4553 27.2453 20.4553 27.8853 20.4553Z" fill="#FF5A5A"/>
<path d="M25.1753 21.8652C25.8153 21.8652 25.8153 20.8652 25.1753 20.8652C24.5353 20.8652 24.5353 21.8652 25.1753 21.8652Z" fill="#FF5A5A"/>
<path d="M17.9155 21.2153C18.5555 21.2153 18.5555 20.2153 17.9155 20.2153C17.2655 20.2153 17.2655 21.2153 17.9155 21.2153Z" fill="#FF5A5A"/>
<path d="M17.3655 25.8752C18.0055 25.8752 18.0055 24.8752 17.3655 24.8752C16.7255 24.8752 16.7255 25.8752 17.3655 25.8752Z" fill="#FF5A5A"/>
<path d="M14.9855 25.0054C15.6255 25.0054 15.6255 24.0054 14.9855 24.0054C14.3455 24.0054 14.3355 25.0054 14.9855 25.0054Z" fill="#FF5A5A"/>
<path d="M9.67549 21.3152C10.3155 21.3152 10.3155 20.3152 9.67549 20.3152C9.02549 20.3152 9.02549 21.3152 9.67549 21.3152Z" fill="#FF5A5A"/>
<path d="M6.63527 18.1753C7.27527 18.1753 7.27527 17.1753 6.63527 17.1753C5.99527 17.1753 5.99527 18.1753 6.63527 18.1753Z" fill="#FF5A5A"/>
<path d="M7.71535 34.6553C8.35535 34.6553 8.35535 33.6553 7.71535 33.6553C7.07535 33.6553 7.07535 34.6553 7.71535 34.6553Z" fill="#FF5A5A"/>
<path d="M6.09541 38.1252C6.73541 38.1252 6.73541 37.1252 6.09541 37.1252C5.44541 37.1252 5.44541 38.1252 6.09541 38.1252Z" fill="#FF5A5A"/>
<path d="M10.7554 38.0154C11.3954 38.0154 11.3954 37.0154 10.7554 37.0154C10.1154 37.0154 10.1154 38.0154 10.7554 38.0154Z" fill="#FF5A5A"/>
<path d="M21.9254 37.9053C22.5654 37.9053 22.5654 36.9053 21.9254 36.9053C21.2854 36.9053 21.2754 37.9053 21.9254 37.9053Z" fill="#FF5A5A"/>
<path d="M22.7954 41.0552C23.4354 41.0552 23.4354 40.0552 22.7954 40.0552C22.1454 40.0552 22.1454 41.0552 22.7954 41.0552Z" fill="#FF5A5A"/>
<path d="M32.3354 37.4753C32.9754 37.4753 32.9754 36.4753 32.3354 36.4753C31.6854 36.4753 31.6854 37.4753 32.3354 37.4753Z" fill="#FF5A5A"/>
<path d="M34.0654 33.2454C34.7054 33.2454 34.7054 32.2454 34.0654 32.2454C33.4254 32.2454 33.4254 33.2454 34.0654 33.2454Z" fill="#FF5A5A"/>
<path d="M38.2954 35.1953C38.9354 35.1953 38.9354 34.1953 38.2954 34.1953C37.6554 34.1953 37.6554 35.1953 38.2954 35.1953Z" fill="#FF5A5A"/>
<path d="M36.3455 38.2354C36.9855 38.2354 36.9855 37.2354 36.3455 37.2354C35.7055 37.2354 35.7055 38.2354 36.3455 38.2354Z" fill="#FF5A5A"/>
<path d="M47.8355 37.8052C48.4755 37.8052 48.4755 36.8052 47.8355 36.8052C47.1955 36.8052 47.1955 37.8052 47.8355 37.8052Z" fill="#FF5A5A"/>
<path d="M44.3655 41.3752C45.0055 41.3752 45.0055 40.3752 44.3655 40.3752C43.7255 40.3752 43.7255 41.3752 44.3655 41.3752Z" fill="#FF5A5A"/>
<path d="M43.7154 36.9353C44.3554 36.9353 44.3554 35.9353 43.7154 35.9353C43.0754 35.9353 43.0754 36.9353 43.7154 36.9353Z" fill="#FF5A5A"/>
<path d="M49.2454 35.1953C49.8854 35.1953 49.8854 34.1953 49.2454 34.1953C48.6054 34.1953 48.6054 35.1953 49.2454 35.1953Z" fill="#FF5A5A"/>
<path d="M57.3854 39.4253C58.0254 39.4253 58.0254 38.4253 57.3854 38.4253C56.7354 38.4253 56.7354 39.4253 57.3854 39.4253Z" fill="#FF5A5A"/>
<path d="M63.4554 39.3152C64.0954 39.3152 64.0954 38.3152 63.4554 38.3152C62.8154 38.3152 62.8054 39.3152 63.4554 39.3152Z" fill="#FF5A5A"/>
<path d="M60.2053 35.6353C60.8453 35.6353 60.8453 34.6353 60.2053 34.6353C59.5553 34.6353 59.5553 35.6353 60.2053 35.6353Z" fill="#FF5A5A"/>
<path d="M113.875 11.5552C114.515 11.5552 114.515 10.5552 113.875 10.5552C113.235 10.5552 113.235 11.5552 113.875 11.5552Z" fill="#FF5A5A"/>
<path d="M109.865 15.1353C110.505 15.1353 110.505 14.1353 109.865 14.1353C109.215 14.1353 109.215 15.1353 109.865 15.1353Z" fill="#FF5A5A"/>
<path d="M115.395 16.7654C116.035 16.7654 116.035 15.7654 115.395 15.7654C114.755 15.7654 114.745 16.7654 115.395 16.7654Z" fill="#FF5A5A"/>
<path d="M118.105 14.1653C118.745 14.1653 118.745 13.1653 118.105 13.1653C117.465 13.1653 117.455 14.1653 118.105 14.1653Z" fill="#FF5A5A"/>
<path d="M131.005 13.2954C131.645 13.2954 131.645 12.2954 131.005 12.2954C130.365 12.2954 130.365 13.2954 131.005 13.2954Z" fill="#FF5A5A"/>
<path d="M132.745 10.9053C133.385 10.9053 133.385 9.90527 132.745 9.90527C132.095 9.90527 132.095 10.9053 132.745 10.9053Z" fill="#FF5A5A"/>
<path d="M128.405 11.5552C129.045 11.5552 129.045 10.5552 128.405 10.5552C127.765 10.5552 127.765 11.5552 128.405 11.5552Z" fill="#FF5A5A"/>
<path d="M126.995 15.1353C127.635 15.1353 127.635 14.1353 126.995 14.1353C126.355 14.1353 126.355 15.1353 126.995 15.1353Z" fill="#FF5A5A"/>
<path d="M135.675 17.0852C136.315 17.0852 136.315 16.0852 135.675 16.0852C135.025 16.0852 135.025 17.0852 135.675 17.0852Z" fill="#FF5A5A"/>
<path d="M142.825 22.6152C143.465 22.6152 143.465 21.6152 142.825 21.6152C142.185 21.6152 142.185 22.6152 142.825 22.6152Z" fill="#FF5A5A"/>
<path d="M144.125 18.6052C144.765 18.6052 144.765 17.6052 144.125 17.6052C143.485 17.6052 143.485 18.6052 144.125 18.6052Z" fill="#FF5A5A"/>
<path d="M148.245 20.2354C148.885 20.2354 148.885 19.2354 148.245 19.2354C147.605 19.2354 147.605 20.2354 148.245 20.2354Z" fill="#FF5A5A"/>
<path d="M140.225 21.7554C140.865 21.7554 140.865 20.7554 140.225 20.7554C139.585 20.7554 139.585 21.7554 140.225 21.7554Z" fill="#FF5A5A"/>
<path d="M137.185 27.8252C137.825 27.8252 137.825 26.8252 137.185 26.8252C136.545 26.8252 136.545 27.8252 137.185 27.8252Z" fill="#FF5A5A"/>
<path d="M140.335 28.5852C140.975 28.5852 140.975 27.5852 140.335 27.5852C139.685 27.5852 139.685 28.5852 140.335 28.5852Z" fill="#FF5A5A"/>
<path d="M133.715 29.7754C134.355 29.7754 134.355 28.7754 133.715 28.7754C133.075 28.7754 133.075 29.7754 133.715 29.7754Z" fill="#FF5A5A"/>
<path d="M122.115 23.4854C122.755 23.4854 122.755 22.4854 122.115 22.4854C121.475 22.4854 121.475 23.4854 122.115 23.4854Z" fill="#FF5A5A"/>
<path d="M123.525 28.2554C124.165 28.2554 124.165 27.2554 123.525 27.2554C122.885 27.2554 122.885 28.2554 123.525 28.2554Z" fill="#FF5A5A"/>
<path d="M126.995 25.4353C127.635 25.4353 127.635 24.4353 126.995 24.4353C126.355 24.4353 126.355 25.4353 126.995 25.4353Z" fill="#FF5A5A"/>
<path d="M130.895 27.7153C131.535 27.7153 131.535 26.7153 130.895 26.7153C130.255 26.7153 130.255 27.7153 130.895 27.7153Z" fill="#FF5A5A"/>
<path d="M115.505 27.6052C116.145 27.6052 116.145 26.6052 115.505 26.6052C114.855 26.6052 114.855 27.6052 115.505 27.6052Z" fill="#FF5A5A"/>
<path d="M114.305 23.3752C114.945 23.3752 114.945 22.3752 114.305 22.3752C113.665 22.3752 113.665 23.3752 114.305 23.3752Z" fill="#FF5A5A"/>
<path d="M110.515 24.8953C111.155 24.8953 111.155 23.8953 110.515 23.8953C109.875 23.8953 109.865 24.8953 110.515 24.8953Z" fill="#FF5A5A"/>
<path d="M108.565 29.9954C109.205 29.9954 109.205 28.9954 108.565 28.9954C107.915 28.9954 107.915 29.9954 108.565 29.9954Z" fill="#FF5A5A"/>
<path d="M112.795 26.6353C113.435 26.6353 113.435 25.6353 112.795 25.6353C112.145 25.6353 112.145 26.6353 112.795 26.6353Z" fill="#FF5A5A"/>
<path d="M100.325 21.6453C100.965 21.6453 100.965 20.6453 100.325 20.6453C99.6754 20.6453 99.6754 21.6453 100.325 21.6453Z" fill="#FF5A5A"/>
<path d="M95.7654 20.1252C96.4054 20.1252 96.4054 19.1252 95.7654 19.1252C95.1254 19.1252 95.1254 20.1252 95.7654 20.1252Z" fill="#FF5A5A"/>
<path d="M95.1153 26.4153C95.7553 26.4153 95.7553 25.4153 95.1153 25.4153C94.4753 25.4153 94.4753 26.4153 95.1153 26.4153Z" fill="#FF5A5A"/>
<path d="M100.755 27.4954C101.395 27.4954 101.395 26.4954 100.755 26.4954C100.115 26.4954 100.115 27.4954 100.755 27.4954Z" fill="#FF5A5A"/>
<path d="M113.005 37.0454C113.645 37.0454 113.645 36.0454 113.005 36.0454C112.365 36.0454 112.365 37.0454 113.005 37.0454Z" fill="#FF5A5A"/>
<path d="M108.675 38.8853C109.315 38.8853 109.315 37.8853 108.675 37.8853C108.025 37.8853 108.025 38.8853 108.675 38.8853Z" fill="#FF5A5A"/>
<path d="M123.305 39.6453C123.945 39.6453 123.945 38.6453 123.305 38.6453C122.665 38.6453 122.665 39.6453 123.305 39.6453Z" fill="#FF5A5A"/>
<path d="M139.465 40.1853C140.105 40.1853 140.105 39.1853 139.465 39.1853C138.825 39.1853 138.825 40.1853 139.465 40.1853Z" fill="#FF5A5A"/>
<path d="M137.085 36.2852C137.725 36.2852 137.725 35.2852 137.085 35.2852C136.435 35.2852 136.435 36.2852 137.085 36.2852Z" fill="#FF5A5A"/>
<path d="M76.5753 35.5254C77.2153 35.5254 77.2153 34.5254 76.5753 34.5254C75.9353 34.5254 75.9253 35.5254 76.5753 35.5254Z" fill="#FF5A5A"/>
<path d="M81.5654 38.7754C82.2054 38.7754 82.2054 37.7754 81.5654 37.7754C80.9154 37.7754 80.9154 38.7754 81.5654 38.7754Z" fill="#FF5A5A"/>
<path d="M76.7954 39.9653C77.4354 39.9653 77.4354 38.9653 76.7954 38.9653C76.1454 38.9653 76.1454 39.9653 76.7954 39.9653Z" fill="#FF5A5A"/>
</svg>
