<svg width="363" height="70" viewBox="0 0 363 70" fill="none" xmlns="http://www.w3.org/2000/svg">
<rect width="363" height="70" fill="url(#paint0_linear)"/>
<path d="M55.3332 14.11C56.4732 14.11 57.3282 14.49 57.8982 15.25C58.4782 16.01 58.7682 17.12 58.7682 18.58C58.7682 20.04 58.4782 21.15 57.8982 21.91C57.3282 22.67 56.4732 23.05 55.3332 23.05C54.1932 23.05 53.3382 22.67 52.7682 21.91C52.1982 21.15 51.9132 20.04 51.9132 18.58C51.9132 17.12 52.1982 16.01 52.7682 15.25C53.3382 14.49 54.1932 14.11 55.3332 14.11ZM55.3332 15.43C54.6232 15.43 54.1182 15.7 53.8182 16.24C53.5182 16.77 53.3682 17.55 53.3682 18.58C53.3682 19.61 53.5182 20.395 53.8182 20.935C54.1182 21.465 54.6232 21.73 55.3332 21.73C56.0532 21.73 56.5632 21.465 56.8632 20.935C57.1632 20.395 57.3132 19.61 57.3132 18.58C57.3132 17.55 57.1632 16.77 56.8632 16.24C56.5632 15.7 56.0532 15.43 55.3332 15.43ZM62.1282 13.33C62.3282 13.33 62.5032 13.38 62.6532 13.48C62.8032 13.58 62.8782 13.74 62.8782 13.96V25.66C62.8782 25.88 62.8032 26.04 62.6532 26.14C62.5032 26.24 62.3282 26.29 62.1282 26.29C61.9482 26.29 61.7782 26.24 61.6182 26.14C61.4682 26.04 61.3932 25.88 61.3932 25.66V20.86H59.6832C59.5032 20.86 59.3682 20.8 59.2782 20.68C59.1982 20.55 59.1582 20.395 59.1582 20.215C59.1582 20.045 59.1982 19.9 59.2782 19.78C59.3682 19.65 59.5032 19.585 59.6832 19.585H61.3932V17.575H59.6832C59.5032 17.575 59.3682 17.515 59.2782 17.395C59.1982 17.265 59.1582 17.11 59.1582 16.93C59.1582 16.76 59.1982 16.615 59.2782 16.495C59.3682 16.365 59.5032 16.3 59.6832 16.3H61.3932V13.96C61.3932 13.74 61.4682 13.58 61.6182 13.48C61.7782 13.38 61.9482 13.33 62.1282 13.33ZM70.4706 14.26C70.9106 14.26 71.2106 14.34 71.3706 14.5C71.5406 14.66 71.6256 14.955 71.6256 15.385V18.16C71.6256 18.59 71.5406 18.885 71.3706 19.045C71.2106 19.205 70.9106 19.285 70.4706 19.285H67.4706C67.3506 19.285 67.2656 19.31 67.2156 19.36C67.1756 19.4 67.1556 19.475 67.1556 19.585V21.565C67.1556 21.675 67.1756 21.755 67.2156 21.805C67.2656 21.845 67.3506 21.865 67.4706 21.865C68.4206 21.865 69.3156 21.845 70.1556 21.805C70.9956 21.755 71.8156 21.675 72.6156 21.565C72.7856 21.545 72.9206 21.59 73.0206 21.7C73.1306 21.8 73.1956 21.935 73.2156 22.105C73.2356 22.285 73.2106 22.45 73.1406 22.6C73.0806 22.74 72.9656 22.82 72.7956 22.84C72.4556 22.89 72.0856 22.935 71.6856 22.975C71.2856 23.015 70.8406 23.05 70.3506 23.08C69.8706 23.1 69.3356 23.12 68.7456 23.14C68.1656 23.15 67.5256 23.155 66.8256 23.155C66.3856 23.155 66.0806 23.075 65.9106 22.915C65.7506 22.755 65.6706 22.46 65.6706 22.03V19.165C65.6706 18.735 65.7506 18.445 65.9106 18.295C66.0806 18.135 66.3856 18.055 66.8256 18.055H69.8406C70.0506 18.055 70.1556 17.95 70.1556 17.74V15.85C70.1556 15.65 70.0506 15.55 69.8406 15.55H66.1956C66.0056 15.55 65.8706 15.485 65.7906 15.355C65.7106 15.225 65.6706 15.075 65.6706 14.905C65.6706 14.735 65.7106 14.585 65.7906 14.455C65.8706 14.325 66.0056 14.26 66.1956 14.26H70.4706ZM75.5556 13.33C75.7556 13.33 75.9306 13.38 76.0806 13.48C76.2306 13.58 76.3056 13.74 76.3056 13.96V25.66C76.3056 25.88 76.2306 26.04 76.0806 26.14C75.9306 26.24 75.7556 26.29 75.5556 26.29C75.3656 26.29 75.1956 26.24 75.0456 26.14C74.8956 26.04 74.8206 25.88 74.8206 25.66V19.105H73.0206C72.8306 19.105 72.6906 19.045 72.6006 18.925C72.5206 18.795 72.4806 18.64 72.4806 18.46C72.4806 18.28 72.5206 18.13 72.6006 18.01C72.6906 17.88 72.8306 17.815 73.0206 17.815H74.8206V13.96C74.8206 13.74 74.8956 13.58 75.0456 13.48C75.1956 13.38 75.3656 13.33 75.5556 13.33ZM80.7929 13.645C80.9829 13.645 81.1529 13.695 81.3029 13.795C81.4529 13.895 81.5279 14.05 81.5279 14.26V15.37H87.7379V14.26C87.7379 14.05 87.8129 13.895 87.9629 13.795C88.1129 13.695 88.2779 13.645 88.4579 13.645C88.6479 13.645 88.8179 13.695 88.9679 13.795C89.1279 13.895 89.2079 14.05 89.2079 14.26V18.025C89.2079 18.455 89.1229 18.75 88.9529 18.91C88.7929 19.07 88.4929 19.15 88.0529 19.15H81.2129C80.7729 19.15 80.4729 19.07 80.3129 18.91C80.1529 18.75 80.0729 18.455 80.0729 18.025V14.26C80.0729 14.05 80.1479 13.895 80.2979 13.795C80.4479 13.695 80.6129 13.645 80.7929 13.645ZM81.5279 17.68C81.5279 17.83 81.6079 17.905 81.7679 17.905H87.4979C87.6579 17.905 87.7379 17.83 87.7379 17.68V16.6H81.5279V17.68ZM90.4079 20.455C90.5879 20.455 90.7179 20.52 90.7979 20.65C90.8879 20.78 90.9329 20.93 90.9329 21.1C90.9329 21.27 90.8879 21.415 90.7979 21.535C90.7179 21.655 90.5879 21.715 90.4079 21.715H85.5479V23.68C85.5479 23.88 85.4729 24.025 85.3229 24.115C85.1829 24.205 85.0079 24.25 84.7979 24.25C84.5979 24.25 84.4229 24.205 84.2729 24.115C84.1329 24.025 84.0629 23.88 84.0629 23.68V21.715H78.8579C78.6779 21.715 78.5429 21.655 78.4529 21.535C78.3729 21.415 78.3329 21.27 78.3329 21.1C78.3329 20.93 78.3729 20.78 78.4529 20.65C78.5429 20.52 78.6779 20.455 78.8579 20.455H90.4079ZM80.7929 22.9C80.9929 22.9 81.1679 22.95 81.3179 23.05C81.4679 23.15 81.5429 23.31 81.5429 23.53V25.45C81.5429 25.66 81.6479 25.765 81.8579 25.765H88.9529C89.1329 25.765 89.2629 25.825 89.3429 25.945C89.4329 26.075 89.4779 26.225 89.4779 26.395C89.4779 26.565 89.4329 26.715 89.3429 26.845C89.2629 26.975 89.1329 27.04 88.9529 27.04H81.1829C80.7429 27.04 80.4429 26.96 80.2829 26.8C80.1229 26.64 80.0429 26.345 80.0429 25.915V23.53C80.0429 23.31 80.1179 23.15 80.2679 23.05C80.4179 22.95 80.5929 22.9 80.7929 22.9ZM96.3802 14.11C96.9802 14.11 97.5052 14.195 97.9552 14.365C98.4152 14.525 98.7952 14.755 99.0952 15.055C99.3952 15.345 99.6202 15.69 99.7702 16.09C99.9302 16.49 100.01 16.92 100.01 17.38C100.01 17.85 99.9302 18.285 99.7702 18.685C99.6202 19.085 99.3952 19.435 99.0952 19.735C98.7952 20.025 98.4152 20.255 97.9552 20.425C97.5052 20.585 96.9802 20.665 96.3802 20.665C95.7802 20.665 95.2502 20.585 94.7902 20.425C94.3402 20.255 93.9652 20.025 93.6652 19.735C93.3652 19.435 93.1352 19.085 92.9752 18.685C92.8252 18.285 92.7502 17.85 92.7502 17.38C92.7502 16.92 92.8252 16.49 92.9752 16.09C93.1352 15.69 93.3652 15.345 93.6652 15.055C93.9652 14.755 94.3402 14.525 94.7902 14.365C95.2502 14.195 95.7802 14.11 96.3802 14.11ZM96.3802 15.37C95.6302 15.37 95.0752 15.565 94.7152 15.955C94.3552 16.335 94.1752 16.81 94.1752 17.38C94.1752 17.95 94.3552 18.43 94.7152 18.82C95.0752 19.21 95.6302 19.405 96.3802 19.405C97.1302 19.405 97.6852 19.21 98.0452 18.82C98.4052 18.43 98.5852 17.95 98.5852 17.38C98.5852 16.81 98.4052 16.335 98.0452 15.955C97.6852 15.565 97.1302 15.37 96.3802 15.37ZM100.505 22.36C100.675 22.34 100.805 22.385 100.895 22.495C100.995 22.605 101.05 22.75 101.06 22.93C101.08 23.1 101.05 23.255 100.97 23.395C100.9 23.525 100.78 23.6 100.61 23.62C99.4002 23.73 98.1102 23.81 96.7402 23.86C95.3702 23.91 93.9452 23.935 92.4652 23.935C92.2852 23.935 92.1502 23.87 92.0602 23.74C91.9802 23.61 91.9402 23.46 91.9402 23.29C91.9402 23.12 91.9802 22.97 92.0602 22.84C92.1502 22.71 92.2852 22.645 92.4652 22.645C93.8052 22.645 95.1302 22.63 96.4402 22.6C97.7502 22.57 99.1052 22.49 100.505 22.36ZM102.59 13.33C102.79 13.33 102.965 13.38 103.115 13.48C103.265 13.58 103.34 13.74 103.34 13.96V25.66C103.34 25.88 103.265 26.04 103.115 26.14C102.965 26.24 102.79 26.29 102.59 26.29C102.4 26.29 102.23 26.24 102.08 26.14C101.93 26.04 101.855 25.88 101.855 25.66V13.96C101.855 13.74 101.93 13.58 102.08 13.48C102.23 13.38 102.4 13.33 102.59 13.33ZM112.973 13.78C113.173 13.78 113.348 13.83 113.498 13.93C113.658 14.03 113.738 14.19 113.738 14.41V15.88C113.738 16.36 113.813 16.77 113.963 17.11C114.113 17.45 114.363 17.77 114.713 18.07C115.063 18.36 115.393 18.625 115.703 18.865C116.013 19.105 116.288 19.31 116.528 19.48C116.698 19.6 116.783 19.75 116.783 19.93C116.793 20.1 116.743 20.255 116.633 20.395C116.533 20.525 116.398 20.62 116.228 20.68C116.058 20.74 115.883 20.705 115.703 20.575C115.513 20.435 115.273 20.255 114.983 20.035C114.703 19.805 114.403 19.56 114.083 19.3C113.713 19.01 113.448 18.77 113.288 18.58C113.138 18.38 113.043 18.205 113.003 18.055H112.988C112.948 18.225 112.843 18.415 112.673 18.625C112.513 18.825 112.253 19.075 111.893 19.375C111.573 19.635 111.258 19.885 110.948 20.125C110.638 20.365 110.328 20.595 110.018 20.815C109.848 20.935 109.673 20.97 109.493 20.92C109.323 20.86 109.188 20.765 109.088 20.635C108.988 20.495 108.938 20.335 108.938 20.155C108.938 19.965 109.028 19.805 109.208 19.675C109.558 19.425 109.898 19.175 110.228 18.925C110.558 18.675 110.898 18.405 111.248 18.115C111.598 17.815 111.848 17.495 111.998 17.155C112.148 16.805 112.223 16.39 112.223 15.91V14.41C112.223 14.19 112.298 14.03 112.448 13.93C112.598 13.83 112.773 13.78 112.973 13.78ZM119.378 13.33C119.568 13.33 119.738 13.38 119.888 13.48C120.038 13.58 120.113 13.74 120.113 13.96V20.935C120.113 21.145 120.038 21.3 119.888 21.4C119.738 21.5 119.568 21.55 119.378 21.55C119.178 21.55 119.003 21.5 118.853 21.4C118.703 21.3 118.628 21.145 118.628 20.935V17.38H116.348C116.158 17.38 116.018 17.32 115.928 17.2C115.848 17.07 115.808 16.92 115.808 16.75C115.808 16.57 115.848 16.42 115.928 16.3C116.018 16.17 116.158 16.105 116.348 16.105H118.628V13.96C118.628 13.74 118.703 13.58 118.853 13.48C119.003 13.38 119.178 13.33 119.378 13.33ZM115.793 21.685C117.193 21.685 118.273 21.925 119.033 22.405C119.803 22.875 120.188 23.58 120.188 24.52C120.188 25.46 119.803 26.165 119.033 26.635C118.273 27.115 117.193 27.355 115.793 27.355C114.393 27.355 113.308 27.115 112.538 26.635C111.778 26.165 111.398 25.46 111.398 24.52C111.398 23.58 111.778 22.875 112.538 22.405C113.308 21.925 114.393 21.685 115.793 21.685ZM115.793 22.9C114.773 22.9 114.033 23.05 113.573 23.35C113.113 23.64 112.883 24.03 112.883 24.52C112.883 25.02 113.113 25.415 113.573 25.705C114.033 25.995 114.773 26.14 115.793 26.14C116.813 26.14 117.553 25.995 118.013 25.705C118.473 25.415 118.703 25.02 118.703 24.52C118.703 24.02 118.473 23.625 118.013 23.335C117.553 23.045 116.813 22.9 115.793 22.9ZM126.835 13.585C128.025 13.585 128.915 13.82 129.505 14.29C130.095 14.75 130.39 15.35 130.39 16.09C130.39 16.83 130.095 17.435 129.505 17.905C128.915 18.365 128.025 18.595 126.835 18.595C125.645 18.595 124.755 18.365 124.165 17.905C123.585 17.445 123.295 16.84 123.295 16.09C123.295 15.34 123.585 14.735 124.165 14.275C124.755 13.815 125.645 13.585 126.835 13.585ZM126.835 14.77C126.095 14.77 125.555 14.895 125.215 15.145C124.875 15.395 124.705 15.71 124.705 16.09C124.705 16.47 124.875 16.785 125.215 17.035C125.555 17.285 126.095 17.41 126.835 17.41C127.575 17.41 128.115 17.285 128.455 17.035C128.805 16.785 128.98 16.47 128.98 16.09C128.98 15.71 128.805 15.395 128.455 15.145C128.115 14.895 127.575 14.77 126.835 14.77ZM132.97 13.33C133.17 13.33 133.345 13.38 133.495 13.48C133.645 13.58 133.72 13.74 133.72 13.96V23.29C133.72 23.51 133.645 23.67 133.495 23.77C133.345 23.87 133.17 23.92 132.97 23.92C132.78 23.92 132.61 23.87 132.46 23.77C132.31 23.67 132.235 23.51 132.235 23.29V22.6H129.835C129.665 22.6 129.535 22.545 129.445 22.435C129.365 22.315 129.325 22.17 129.325 22C129.325 21.83 129.365 21.685 129.445 21.565C129.535 21.445 129.665 21.385 129.835 21.385H132.235V13.96C132.235 13.74 132.31 13.58 132.46 13.48C132.61 13.38 132.78 13.33 132.97 13.33ZM130.87 19.21C131.04 19.19 131.175 19.235 131.275 19.345C131.375 19.445 131.43 19.585 131.44 19.765C131.46 19.935 131.43 20.085 131.35 20.215C131.28 20.345 131.16 20.42 130.99 20.44C130.47 20.51 129.91 20.57 129.31 20.62C128.72 20.66 128.1 20.695 127.45 20.725V22.495C127.45 22.695 127.375 22.845 127.225 22.945C127.085 23.035 126.91 23.08 126.7 23.08C126.5 23.08 126.325 23.035 126.175 22.945C126.035 22.845 125.965 22.695 125.965 22.495V20.77C124.915 20.8 123.875 20.815 122.845 20.815C122.665 20.815 122.53 20.755 122.44 20.635C122.36 20.515 122.32 20.37 122.32 20.2C122.32 20.03 122.36 19.885 122.44 19.765C122.53 19.635 122.665 19.57 122.845 19.57C124.105 19.57 125.42 19.55 126.79 19.51C128.17 19.47 129.53 19.37 130.87 19.21ZM125.29 23.32C125.48 23.32 125.65 23.37 125.8 23.47C125.96 23.57 126.04 23.73 126.04 23.95V25.42C126.04 25.53 126.06 25.61 126.1 25.66C126.15 25.71 126.235 25.735 126.355 25.735H133.555C133.735 25.735 133.865 25.795 133.945 25.915C134.035 26.045 134.08 26.195 134.08 26.365C134.08 26.535 134.035 26.685 133.945 26.815C133.865 26.945 133.735 27.01 133.555 27.01H125.68C125.24 27.01 124.935 26.93 124.765 26.77C124.605 26.61 124.525 26.315 124.525 25.885V23.95C124.525 23.73 124.6 23.57 124.75 23.47C124.91 23.37 125.09 23.32 125.29 23.32ZM145.752 14.065C145.932 14.065 146.062 14.13 146.142 14.26C146.232 14.38 146.277 14.525 146.277 14.695C146.277 14.865 146.232 15.015 146.142 15.145C146.062 15.275 145.932 15.34 145.752 15.34H141.672C141.562 15.34 141.482 15.365 141.432 15.415C141.382 15.455 141.357 15.535 141.357 15.655V19.195C141.357 19.395 141.462 19.495 141.672 19.495C142.662 19.495 143.582 19.47 144.432 19.42C145.282 19.37 146.112 19.29 146.922 19.18C147.092 19.16 147.227 19.2 147.327 19.3C147.437 19.4 147.502 19.535 147.522 19.705C147.542 19.885 147.517 20.05 147.447 20.2C147.387 20.34 147.272 20.42 147.102 20.44C146.752 20.49 146.372 20.535 145.962 20.575C145.562 20.615 145.117 20.65 144.627 20.68C144.137 20.71 143.592 20.735 142.992 20.755C142.402 20.765 141.742 20.77 141.012 20.77C140.572 20.77 140.267 20.69 140.097 20.53C139.937 20.37 139.857 20.075 139.857 19.645V15.19C139.857 14.76 139.937 14.465 140.097 14.305C140.267 14.145 140.572 14.065 141.012 14.065H145.752ZM149.742 13.33C149.942 13.33 150.117 13.38 150.267 13.48C150.417 13.58 150.492 13.74 150.492 13.96V20.905C150.492 21.125 150.417 21.285 150.267 21.385C150.117 21.485 149.942 21.535 149.742 21.535C149.552 21.535 149.382 21.485 149.232 21.385C149.082 21.285 149.007 21.125 149.007 20.905V17.875H145.977C145.797 17.875 145.662 17.81 145.572 17.68C145.492 17.55 145.452 17.4 145.452 17.23C145.452 17.06 145.492 16.915 145.572 16.795C145.662 16.665 145.797 16.6 145.977 16.6H149.007V13.96C149.007 13.74 149.082 13.58 149.232 13.48C149.382 13.38 149.552 13.33 149.742 13.33ZM149.337 22.18C149.777 22.18 150.077 22.26 150.237 22.42C150.407 22.58 150.492 22.875 150.492 23.305V26.65C150.492 26.87 150.417 27.03 150.267 27.13C150.117 27.23 149.942 27.28 149.742 27.28C149.542 27.28 149.367 27.23 149.217 27.13C149.067 27.03 148.992 26.87 148.992 26.65V23.77C148.992 23.57 148.887 23.47 148.677 23.47H141.942C141.752 23.47 141.612 23.405 141.522 23.275C141.442 23.145 141.402 22.995 141.402 22.825C141.402 22.655 141.442 22.505 141.522 22.375C141.612 22.245 141.752 22.18 141.942 22.18H149.337ZM154.98 13.645C155.17 13.645 155.34 13.695 155.49 13.795C155.64 13.895 155.715 14.05 155.715 14.26V15.37H161.925V14.26C161.925 14.05 162 13.895 162.15 13.795C162.3 13.695 162.465 13.645 162.645 13.645C162.835 13.645 163.005 13.695 163.155 13.795C163.315 13.895 163.395 14.05 163.395 14.26V18.025C163.395 18.455 163.31 18.75 163.14 18.91C162.98 19.07 162.68 19.15 162.24 19.15H155.4C154.96 19.15 154.66 19.07 154.5 18.91C154.34 18.75 154.26 18.455 154.26 18.025V14.26C154.26 14.05 154.335 13.895 154.485 13.795C154.635 13.695 154.8 13.645 154.98 13.645ZM155.715 17.68C155.715 17.83 155.795 17.905 155.955 17.905H161.685C161.845 17.905 161.925 17.83 161.925 17.68V16.6H155.715V17.68ZM164.595 20.455C164.775 20.455 164.905 20.52 164.985 20.65C165.075 20.78 165.12 20.93 165.12 21.1C165.12 21.27 165.075 21.415 164.985 21.535C164.905 21.655 164.775 21.715 164.595 21.715H159.735V23.68C159.735 23.88 159.66 24.025 159.51 24.115C159.37 24.205 159.195 24.25 158.985 24.25C158.785 24.25 158.61 24.205 158.46 24.115C158.32 24.025 158.25 23.88 158.25 23.68V21.715H153.045C152.865 21.715 152.73 21.655 152.64 21.535C152.56 21.415 152.52 21.27 152.52 21.1C152.52 20.93 152.56 20.78 152.64 20.65C152.73 20.52 152.865 20.455 153.045 20.455H164.595ZM154.98 22.9C155.18 22.9 155.355 22.95 155.505 23.05C155.655 23.15 155.73 23.31 155.73 23.53V25.45C155.73 25.66 155.835 25.765 156.045 25.765H163.14C163.32 25.765 163.45 25.825 163.53 25.945C163.62 26.075 163.665 26.225 163.665 26.395C163.665 26.565 163.62 26.715 163.53 26.845C163.45 26.975 163.32 27.04 163.14 27.04H155.37C154.93 27.04 154.63 26.96 154.47 26.8C154.31 26.64 154.23 26.345 154.23 25.915V23.53C154.23 23.31 154.305 23.15 154.455 23.05C154.605 22.95 154.78 22.9 154.98 22.9ZM169.067 14.215C170.107 14.215 170.872 14.585 171.362 15.325C171.852 16.065 172.097 17.15 172.097 18.58C172.097 20.01 171.852 21.095 171.362 21.835C170.872 22.575 170.107 22.945 169.067 22.945C168.027 22.945 167.262 22.575 166.772 21.835C166.292 21.095 166.052 20.01 166.052 18.58C166.052 17.15 166.292 16.065 166.772 15.325C167.262 14.585 168.027 14.215 169.067 14.215ZM169.067 15.535C168.467 15.535 168.042 15.795 167.792 16.315C167.552 16.825 167.432 17.58 167.432 18.58C167.432 19.58 167.552 20.34 167.792 20.86C168.042 21.37 168.467 21.625 169.067 21.625C169.667 21.625 170.092 21.37 170.342 20.86C170.592 20.34 170.717 19.58 170.717 18.58C170.717 17.58 170.592 16.825 170.342 16.315C170.092 15.795 169.667 15.535 169.067 15.535ZM174.302 13.48C174.472 13.48 174.627 13.53 174.767 13.63C174.917 13.72 174.992 13.865 174.992 14.065V25.075C174.992 25.275 174.917 25.42 174.767 25.51C174.627 25.61 174.472 25.66 174.302 25.66C174.122 25.66 173.957 25.61 173.807 25.51C173.667 25.42 173.597 25.275 173.597 25.075V19.21H171.197V17.935H173.597V14.065C173.597 13.865 173.667 13.72 173.807 13.63C173.957 13.53 174.122 13.48 174.302 13.48ZM176.987 13.33C177.167 13.33 177.327 13.38 177.467 13.48C177.617 13.57 177.692 13.715 177.692 13.915V25.705C177.692 25.905 177.617 26.05 177.467 26.14C177.327 26.24 177.167 26.29 176.987 26.29C176.817 26.29 176.657 26.24 176.507 26.14C176.367 26.05 176.297 25.905 176.297 25.705V13.915C176.297 13.715 176.367 13.57 176.507 13.48C176.657 13.38 176.817 13.33 176.987 13.33ZM192.619 13.795C193.059 13.795 193.359 13.875 193.519 14.035C193.689 14.195 193.774 14.49 193.774 14.92V17.605C193.774 18.035 193.689 18.33 193.519 18.49C193.359 18.65 193.059 18.73 192.619 18.73H185.779C185.339 18.73 185.039 18.65 184.879 18.49C184.719 18.33 184.639 18.035 184.639 17.605V14.92C184.639 14.49 184.719 14.195 184.879 14.035C185.039 13.875 185.339 13.795 185.779 13.795H192.619ZM186.439 15.04C186.319 15.04 186.234 15.065 186.184 15.115C186.144 15.155 186.124 15.23 186.124 15.34V17.185C186.124 17.295 186.144 17.375 186.184 17.425C186.234 17.465 186.319 17.485 186.439 17.485H191.959C192.079 17.485 192.159 17.465 192.199 17.425C192.249 17.375 192.274 17.295 192.274 17.185V15.34C192.274 15.23 192.249 15.155 192.199 15.115C192.159 15.065 192.079 15.04 191.959 15.04H186.439ZM189.934 20.23H194.989C195.159 20.23 195.284 20.295 195.364 20.425C195.454 20.545 195.499 20.69 195.499 20.86C195.499 21.03 195.454 21.18 195.364 21.31C195.284 21.43 195.159 21.49 194.989 21.49H183.409C183.239 21.49 183.109 21.43 183.019 21.31C182.939 21.18 182.899 21.03 182.899 20.86C182.899 20.69 182.939 20.545 183.019 20.425C183.109 20.295 183.239 20.23 183.409 20.23H188.464V18.115H189.934V20.23ZM192.649 22.66C193.089 22.66 193.389 22.74 193.549 22.9C193.719 23.06 193.804 23.355 193.804 23.785V26.71C193.804 26.93 193.724 27.09 193.564 27.19C193.414 27.29 193.239 27.34 193.039 27.34C192.849 27.34 192.679 27.29 192.529 27.19C192.379 27.09 192.304 26.93 192.304 26.71V24.235C192.304 24.115 192.279 24.035 192.229 23.995C192.179 23.945 192.099 23.92 191.989 23.92H184.939C184.759 23.92 184.629 23.86 184.549 23.74C184.469 23.61 184.429 23.46 184.429 23.29C184.429 23.12 184.469 22.975 184.549 22.855C184.629 22.725 184.759 22.66 184.939 22.66H192.649ZM207.052 14.26C207.232 14.26 207.362 14.325 207.442 14.455C207.532 14.575 207.577 14.72 207.577 14.89C207.577 15.06 207.532 15.205 207.442 15.325C207.362 15.445 207.232 15.505 207.052 15.505H205.597V19.51H207.127C207.297 19.51 207.422 19.575 207.502 19.705C207.592 19.825 207.637 19.97 207.637 20.14C207.637 20.31 207.592 20.46 207.502 20.59C207.422 20.71 207.297 20.77 207.127 20.77H198.127C197.957 20.77 197.827 20.71 197.737 20.59C197.657 20.46 197.617 20.31 197.617 20.14C197.617 19.97 197.657 19.825 197.737 19.705C197.827 19.575 197.957 19.51 198.127 19.51H199.657V15.505H198.202C198.022 15.505 197.887 15.445 197.797 15.325C197.717 15.205 197.677 15.06 197.677 14.89C197.677 14.72 197.717 14.575 197.797 14.455C197.887 14.325 198.022 14.26 198.202 14.26H207.052ZM204.142 19.51V15.505H201.112V19.51H204.142ZM201.352 23.725H203.902V20.08H205.327V23.725H208.402C208.582 23.725 208.712 23.785 208.792 23.905C208.882 24.025 208.927 24.17 208.927 24.34C208.927 24.51 208.882 24.66 208.792 24.79C208.712 24.92 208.582 24.985 208.402 24.985H196.852C196.672 24.985 196.537 24.92 196.447 24.79C196.367 24.66 196.327 24.51 196.327 24.34C196.327 24.17 196.367 24.025 196.447 23.905C196.537 23.785 196.672 23.725 196.852 23.725H199.927V20.08H201.352V23.725ZM214.224 13.285C214.424 13.285 214.599 13.335 214.749 13.435C214.899 13.535 214.974 13.695 214.974 13.915V15.175H217.524C217.704 15.175 217.834 15.24 217.914 15.37C218.004 15.5 218.049 15.65 218.049 15.82C218.049 15.99 218.004 16.14 217.914 16.27C217.834 16.4 217.704 16.465 217.524 16.465H214.974V17.425C214.974 17.745 214.989 18.025 215.019 18.265C215.059 18.505 215.119 18.73 215.199 18.94C215.289 19.15 215.404 19.355 215.544 19.555C215.694 19.755 215.884 19.965 216.114 20.185C216.434 20.505 216.744 20.805 217.044 21.085C217.344 21.365 217.624 21.615 217.884 21.835C218.024 21.965 218.079 22.125 218.049 22.315C218.029 22.495 217.959 22.645 217.839 22.765C217.719 22.885 217.574 22.96 217.404 22.99C217.234 23.02 217.079 22.97 216.939 22.84C216.719 22.65 216.479 22.43 216.219 22.18C215.959 21.92 215.674 21.64 215.364 21.34C215.154 21.13 214.979 20.95 214.839 20.8C214.699 20.64 214.584 20.505 214.494 20.395C214.414 20.285 214.354 20.19 214.314 20.11C214.274 20.03 214.249 19.95 214.239 19.87H214.224C214.204 19.96 214.174 20.05 214.134 20.14C214.104 20.22 214.044 20.32 213.954 20.44C213.874 20.55 213.764 20.685 213.624 20.845C213.494 20.995 213.319 21.175 213.099 21.385C212.789 21.675 212.494 21.96 212.214 22.24C211.934 22.51 211.634 22.78 211.314 23.05C211.154 23.18 210.984 23.225 210.804 23.185C210.624 23.135 210.479 23.045 210.369 22.915C210.249 22.775 210.184 22.62 210.174 22.45C210.174 22.27 210.249 22.115 210.399 21.985C210.749 21.695 211.079 21.405 211.389 21.115C211.699 20.815 212.014 20.505 212.334 20.185C212.554 19.965 212.739 19.755 212.889 19.555C213.039 19.355 213.154 19.15 213.234 18.94C213.324 18.73 213.384 18.505 213.414 18.265C213.454 18.025 213.474 17.745 213.474 17.425V16.465H210.834C210.654 16.465 210.519 16.4 210.429 16.27C210.349 16.14 210.309 15.99 210.309 15.82C210.309 15.65 210.349 15.5 210.429 15.37C210.519 15.24 210.654 15.175 210.834 15.175H213.474V13.915C213.474 13.695 213.549 13.535 213.699 13.435C213.859 13.335 214.034 13.285 214.224 13.285ZM220.299 13.33C220.499 13.33 220.674 13.38 220.824 13.48C220.984 13.58 221.064 13.74 221.064 13.96V25.66C221.064 25.88 220.984 26.04 220.824 26.14C220.674 26.24 220.499 26.29 220.299 26.29C220.109 26.29 219.934 26.24 219.774 26.14C219.624 26.04 219.549 25.88 219.549 25.66V13.96C219.549 13.74 219.624 13.58 219.774 13.48C219.934 13.38 220.109 13.33 220.299 13.33ZM232.826 13.585C233.266 13.585 233.566 13.665 233.726 13.825C233.896 13.985 233.981 14.28 233.981 14.71V15.67C233.981 16.09 233.896 16.38 233.726 16.54C233.566 16.7 233.266 16.78 232.826 16.78H226.646C226.486 16.78 226.406 16.86 226.406 17.02V17.515C226.406 17.665 226.486 17.74 226.646 17.74H233.831C234.001 17.74 234.121 17.8 234.191 17.92C234.271 18.03 234.311 18.16 234.311 18.31C234.311 18.46 234.271 18.595 234.191 18.715C234.121 18.825 234.001 18.88 233.831 18.88H226.121C225.681 18.88 225.376 18.805 225.206 18.655C225.046 18.495 224.966 18.2 224.966 17.77V16.81C224.966 16.38 225.046 16.085 225.206 15.925C225.376 15.765 225.681 15.685 226.121 15.685H232.301C232.461 15.685 232.541 15.605 232.541 15.445V14.965C232.541 14.815 232.461 14.74 232.301 14.74H225.416C225.246 14.74 225.121 14.685 225.041 14.575C224.971 14.455 224.936 14.32 224.936 14.17C224.936 14.02 224.971 13.885 225.041 13.765C225.121 13.645 225.246 13.585 225.416 13.585H232.826ZM235.271 19.81C235.441 19.81 235.566 19.87 235.646 19.99C235.736 20.1 235.781 20.24 235.781 20.41C235.781 20.58 235.736 20.72 235.646 20.83C235.566 20.94 235.441 20.995 235.271 20.995H223.691C223.521 20.995 223.391 20.94 223.301 20.83C223.221 20.72 223.181 20.58 223.181 20.41C223.181 20.24 223.221 20.1 223.301 19.99C223.391 19.87 223.521 19.81 223.691 19.81H235.271ZM232.916 21.925C233.356 21.925 233.656 22.005 233.816 22.165C233.986 22.325 234.071 22.62 234.071 23.05V23.995C234.071 24.425 233.986 24.72 233.816 24.88C233.656 25.04 233.356 25.12 232.916 25.12H226.556C226.396 25.12 226.316 25.195 226.316 25.345V25.84C226.316 25.99 226.396 26.065 226.556 26.065H233.906C234.076 26.065 234.201 26.125 234.281 26.245C234.361 26.365 234.401 26.495 234.401 26.635C234.401 26.795 234.361 26.93 234.281 27.04C234.201 27.16 234.076 27.22 233.906 27.22H226.031C225.591 27.22 225.286 27.14 225.116 26.98C224.956 26.82 224.876 26.525 224.876 26.095V25.135C224.876 24.705 224.956 24.41 225.116 24.25C225.286 24.09 225.591 24.01 226.031 24.01H232.391C232.541 24.01 232.616 23.935 232.616 23.785V23.305C232.616 23.145 232.541 23.065 232.391 23.065H225.326C225.156 23.065 225.031 23.01 224.951 22.9C224.881 22.78 224.846 22.645 224.846 22.495C224.846 22.345 224.881 22.215 224.951 22.105C225.031 21.985 225.156 21.925 225.326 21.925H232.916ZM246.644 13.915C246.824 13.915 246.954 13.98 247.034 14.11C247.124 14.24 247.169 14.39 247.169 14.56C247.169 14.73 247.124 14.88 247.034 15.01C246.954 15.14 246.824 15.205 246.644 15.205H242.504C242.294 15.205 242.189 15.305 242.189 15.505V18.145C242.189 18.265 242.214 18.35 242.264 18.4C242.314 18.44 242.394 18.46 242.504 18.46C243.494 18.46 244.414 18.435 245.264 18.385C246.114 18.335 246.944 18.255 247.754 18.145C247.924 18.125 248.059 18.17 248.159 18.28C248.269 18.38 248.334 18.515 248.354 18.685C248.374 18.865 248.349 19.025 248.279 19.165C248.219 19.305 248.104 19.385 247.934 19.405C247.584 19.455 247.204 19.5 246.794 19.54C246.394 19.58 245.949 19.615 245.459 19.645C244.969 19.675 244.424 19.7 243.824 19.72C243.234 19.73 242.574 19.735 241.844 19.735C241.404 19.735 241.099 19.655 240.929 19.495C240.769 19.335 240.689 19.04 240.689 18.61V15.04C240.689 14.61 240.769 14.315 240.929 14.155C241.099 13.995 241.404 13.915 241.844 13.915H246.644ZM250.049 13.33C250.249 13.33 250.424 13.38 250.574 13.48C250.724 13.58 250.799 13.74 250.799 13.96V16.165H252.449C252.649 16.165 252.789 16.23 252.869 16.36C252.959 16.49 253.004 16.64 253.004 16.81C253.004 17 252.959 17.16 252.869 17.29C252.789 17.41 252.649 17.47 252.449 17.47H250.799V19.78C250.799 20 250.724 20.16 250.574 20.26C250.424 20.36 250.249 20.41 250.049 20.41C249.849 20.41 249.674 20.36 249.524 20.26C249.374 20.16 249.299 20 249.299 19.78V13.96C249.299 13.74 249.374 13.58 249.524 13.48C249.674 13.38 249.849 13.33 250.049 13.33ZM249.644 21.055C250.084 21.055 250.384 21.135 250.544 21.295C250.714 21.455 250.799 21.75 250.799 22.18V23.56C250.799 23.99 250.714 24.285 250.544 24.445C250.384 24.605 250.084 24.685 249.644 24.685H243.989C243.879 24.685 243.799 24.71 243.749 24.76C243.699 24.8 243.674 24.88 243.674 25V25.645C243.674 25.855 243.779 25.96 243.989 25.96H250.634C250.804 25.96 250.929 26.02 251.009 26.14C251.089 26.26 251.129 26.4 251.129 26.56C251.129 26.72 251.089 26.86 251.009 26.98C250.929 27.1 250.804 27.16 250.634 27.16H243.374C242.934 27.16 242.629 27.08 242.459 26.92C242.299 26.76 242.219 26.465 242.219 26.035V24.655C242.219 24.225 242.299 23.93 242.459 23.77C242.629 23.61 242.934 23.53 243.374 23.53H249.014C249.134 23.53 249.214 23.51 249.254 23.47C249.304 23.42 249.329 23.335 249.329 23.215V22.57C249.329 22.46 249.304 22.385 249.254 22.345C249.214 22.295 249.134 22.27 249.014 22.27H242.684C242.514 22.27 242.389 22.21 242.309 22.09C242.229 21.97 242.189 21.825 242.189 21.655C242.189 21.495 242.229 21.355 242.309 21.235C242.389 21.115 242.514 21.055 242.684 21.055H249.644ZM257.821 13.78C258.021 13.78 258.196 13.83 258.346 13.93C258.506 14.03 258.586 14.19 258.586 14.41V15.88C258.586 16.36 258.661 16.77 258.811 17.11C258.961 17.45 259.211 17.77 259.561 18.07C259.911 18.36 260.241 18.625 260.551 18.865C260.861 19.105 261.136 19.31 261.376 19.48C261.546 19.6 261.631 19.75 261.631 19.93C261.641 20.1 261.591 20.255 261.481 20.395C261.381 20.525 261.246 20.62 261.076 20.68C260.906 20.74 260.731 20.705 260.551 20.575C260.361 20.435 260.121 20.255 259.831 20.035C259.551 19.805 259.251 19.56 258.931 19.3C258.561 19.01 258.296 18.77 258.136 18.58C257.986 18.38 257.891 18.205 257.851 18.055H257.836C257.796 18.225 257.691 18.415 257.521 18.625C257.361 18.825 257.101 19.075 256.741 19.375C256.421 19.635 256.106 19.885 255.796 20.125C255.486 20.365 255.176 20.595 254.866 20.815C254.696 20.935 254.521 20.97 254.341 20.92C254.171 20.86 254.036 20.765 253.936 20.635C253.836 20.495 253.786 20.335 253.786 20.155C253.786 19.965 253.876 19.805 254.056 19.675C254.406 19.425 254.746 19.175 255.076 18.925C255.406 18.675 255.746 18.405 256.096 18.115C256.446 17.815 256.696 17.495 256.846 17.155C256.996 16.805 257.071 16.39 257.071 15.91V14.41C257.071 14.19 257.146 14.03 257.296 13.93C257.446 13.83 257.621 13.78 257.821 13.78ZM264.226 13.33C264.416 13.33 264.586 13.38 264.736 13.48C264.886 13.58 264.961 13.74 264.961 13.96V20.935C264.961 21.145 264.886 21.3 264.736 21.4C264.586 21.5 264.416 21.55 264.226 21.55C264.026 21.55 263.851 21.5 263.701 21.4C263.551 21.3 263.476 21.145 263.476 20.935V17.38H261.196C261.006 17.38 260.866 17.32 260.776 17.2C260.696 17.07 260.656 16.92 260.656 16.75C260.656 16.57 260.696 16.42 260.776 16.3C260.866 16.17 261.006 16.105 261.196 16.105H263.476V13.96C263.476 13.74 263.551 13.58 263.701 13.48C263.851 13.38 264.026 13.33 264.226 13.33ZM260.641 21.685C262.041 21.685 263.121 21.925 263.881 22.405C264.651 22.875 265.036 23.58 265.036 24.52C265.036 25.46 264.651 26.165 263.881 26.635C263.121 27.115 262.041 27.355 260.641 27.355C259.241 27.355 258.156 27.115 257.386 26.635C256.626 26.165 256.246 25.46 256.246 24.52C256.246 23.58 256.626 22.875 257.386 22.405C258.156 21.925 259.241 21.685 260.641 21.685ZM260.641 22.9C259.621 22.9 258.881 23.05 258.421 23.35C257.961 23.64 257.731 24.03 257.731 24.52C257.731 25.02 257.961 25.415 258.421 25.705C258.881 25.995 259.621 26.14 260.641 26.14C261.661 26.14 262.401 25.995 262.861 25.705C263.321 25.415 263.551 25.02 263.551 24.52C263.551 24.02 263.321 23.625 262.861 23.335C262.401 23.045 261.661 22.9 260.641 22.9ZM270.423 16.825C271.323 16.825 272.018 17.04 272.508 17.47C272.998 17.89 273.243 18.46 273.243 19.18C273.243 19.9 272.998 20.475 272.508 20.905C272.018 21.325 271.323 21.535 270.423 21.535C269.513 21.535 268.813 21.325 268.323 20.905C267.833 20.475 267.588 19.9 267.588 19.18C267.588 18.46 267.833 17.89 268.323 17.47C268.813 17.04 269.513 16.825 270.423 16.825ZM270.408 13.27C270.608 13.27 270.783 13.32 270.933 13.42C271.083 13.52 271.158 13.675 271.158 13.885V14.815H273.273C273.453 14.815 273.583 14.88 273.663 15.01C273.753 15.14 273.798 15.29 273.798 15.46C273.798 15.63 273.753 15.78 273.663 15.91C273.583 16.03 273.453 16.09 273.273 16.09H267.363C267.173 16.09 267.033 16.03 266.943 15.91C266.863 15.78 266.823 15.63 266.823 15.46C266.823 15.29 266.863 15.14 266.943 15.01C267.033 14.88 267.173 14.815 267.363 14.815H269.673V13.885C269.673 13.675 269.748 13.52 269.898 13.42C270.058 13.32 270.228 13.27 270.408 13.27ZM270.423 17.98C269.943 17.98 269.568 18.09 269.298 18.31C269.028 18.52 268.893 18.81 268.893 19.18C268.893 19.55 269.028 19.845 269.298 20.065C269.568 20.275 269.943 20.38 270.423 20.38C270.903 20.38 271.278 20.275 271.548 20.065C271.818 19.845 271.953 19.55 271.953 19.18C271.953 18.81 271.818 18.52 271.548 18.31C271.278 18.09 270.903 17.98 270.423 17.98ZM278.028 13.33C278.208 13.33 278.368 13.38 278.508 13.48C278.658 13.57 278.733 13.715 278.733 13.915V21.1C278.733 21.3 278.658 21.45 278.508 21.55C278.368 21.64 278.208 21.685 278.028 21.685C277.858 21.685 277.698 21.64 277.548 21.55C277.408 21.45 277.338 21.3 277.338 21.1V18.115H275.748V21.04C275.748 21.24 275.673 21.385 275.523 21.475C275.383 21.565 275.228 21.61 275.058 21.61C274.888 21.61 274.728 21.565 274.578 21.475C274.438 21.385 274.368 21.24 274.368 21.04V13.975C274.368 13.775 274.438 13.63 274.578 13.54C274.728 13.45 274.888 13.405 275.058 13.405C275.228 13.405 275.383 13.45 275.523 13.54C275.673 13.63 275.748 13.775 275.748 13.975V16.87H277.338V13.915C277.338 13.715 277.408 13.57 277.548 13.48C277.698 13.38 277.858 13.33 278.028 13.33ZM271.593 22.075C271.783 22.075 271.953 22.125 272.103 22.225C272.253 22.325 272.328 22.48 272.328 22.69V23.05C272.328 23.26 272.333 23.44 272.343 23.59C272.363 23.74 272.398 23.88 272.448 24.01C272.498 24.14 272.563 24.27 272.643 24.4C272.733 24.52 272.848 24.655 272.988 24.805C273.248 25.065 273.498 25.3 273.738 25.51C273.868 25.61 273.963 25.66 274.023 25.66C274.093 25.66 274.193 25.61 274.323 25.51C274.433 25.4 274.553 25.285 274.683 25.165C274.823 25.045 274.953 24.925 275.073 24.805C275.213 24.655 275.323 24.52 275.403 24.4C275.493 24.27 275.563 24.14 275.613 24.01C275.663 23.88 275.693 23.74 275.703 23.59C275.723 23.44 275.733 23.26 275.733 23.05V22.69C275.733 22.48 275.803 22.325 275.943 22.225C276.093 22.125 276.268 22.075 276.468 22.075C276.658 22.075 276.828 22.125 276.978 22.225C277.128 22.325 277.203 22.48 277.203 22.69V23.05C277.203 23.26 277.213 23.445 277.233 23.605C277.263 23.765 277.308 23.915 277.368 24.055C277.438 24.195 277.528 24.33 277.638 24.46C277.748 24.58 277.888 24.715 278.058 24.865C278.268 25.035 278.498 25.215 278.748 25.405C278.998 25.595 279.238 25.77 279.468 25.93C279.618 26.03 279.693 26.165 279.693 26.335C279.703 26.505 279.653 26.66 279.543 26.8C279.443 26.93 279.308 27.015 279.138 27.055C278.968 27.095 278.798 27.055 278.628 26.935C278.428 26.795 278.233 26.655 278.043 26.515C277.853 26.375 277.673 26.235 277.503 26.095C277.153 25.805 276.903 25.57 276.753 25.39C276.603 25.22 276.508 25.06 276.468 24.91H276.453C276.423 25.06 276.343 25.22 276.213 25.39C276.083 25.56 275.843 25.805 275.493 26.125C275.373 26.235 275.253 26.34 275.133 26.44C275.013 26.55 274.893 26.65 274.773 26.74C274.483 26.97 274.233 27.085 274.023 27.085C273.823 27.085 273.578 26.97 273.288 26.74C273.168 26.65 273.048 26.55 272.928 26.44C272.808 26.34 272.688 26.235 272.568 26.125C272.218 25.805 271.978 25.56 271.848 25.39C271.718 25.22 271.638 25.055 271.608 24.895H271.593C271.543 25.065 271.443 25.235 271.293 25.405C271.153 25.585 270.908 25.82 270.558 26.11C270.388 26.25 270.203 26.39 270.003 26.53C269.813 26.68 269.618 26.825 269.418 26.965C269.248 27.085 269.078 27.12 268.908 27.07C268.748 27.03 268.618 26.94 268.518 26.8C268.408 26.66 268.353 26.505 268.353 26.335C268.363 26.165 268.443 26.03 268.593 25.93C268.823 25.77 269.063 25.595 269.313 25.405C269.563 25.215 269.793 25.035 270.003 24.865C270.173 24.715 270.313 24.58 270.423 24.46C270.533 24.33 270.618 24.195 270.678 24.055C270.748 23.915 270.793 23.765 270.813 23.605C270.843 23.445 270.858 23.26 270.858 23.05V22.69C270.858 22.48 270.933 22.325 271.083 22.225C271.233 22.125 271.403 22.075 271.593 22.075ZM284.316 14.11C285.466 14.11 286.331 14.49 286.911 15.25C287.501 16.01 287.796 17.12 287.796 18.58C287.796 20.04 287.501 21.15 286.911 21.91C286.331 22.67 285.466 23.05 284.316 23.05C283.166 23.05 282.301 22.67 281.721 21.91C281.141 21.15 280.851 20.04 280.851 18.58C280.851 17.12 281.141 16.01 281.721 15.25C282.301 14.49 283.166 14.11 284.316 14.11ZM284.316 15.43C283.596 15.43 283.081 15.7 282.771 16.24C282.461 16.77 282.306 17.55 282.306 18.58C282.306 19.61 282.461 20.395 282.771 20.935C283.081 21.465 283.596 21.73 284.316 21.73C285.046 21.73 285.566 21.465 285.876 20.935C286.186 20.395 286.341 19.61 286.341 18.58C286.341 17.55 286.186 16.77 285.876 16.24C285.566 15.7 285.046 15.43 284.316 15.43ZM291.066 13.33C291.266 13.33 291.441 13.38 291.591 13.48C291.741 13.58 291.816 13.74 291.816 13.96V25.66C291.816 25.88 291.741 26.04 291.591 26.14C291.441 26.24 291.266 26.29 291.066 26.29C290.876 26.29 290.706 26.24 290.556 26.14C290.406 26.04 290.331 25.88 290.331 25.66V19.21H286.836V17.935H290.331V13.96C290.331 13.74 290.406 13.58 290.556 13.48C290.706 13.38 290.876 13.33 291.066 13.33ZM300.143 13.855C300.863 13.855 301.508 13.935 302.078 14.095C302.658 14.255 303.143 14.49 303.533 14.8C303.933 15.1 304.238 15.475 304.448 15.925C304.658 16.365 304.763 16.865 304.763 17.425C304.763 18.555 304.353 19.435 303.533 20.065C302.723 20.685 301.593 20.995 300.143 20.995C298.693 20.995 297.563 20.685 296.753 20.065C295.943 19.435 295.538 18.555 295.538 17.425C295.538 16.865 295.643 16.365 295.853 15.925C296.063 15.475 296.363 15.1 296.753 14.8C297.153 14.49 297.638 14.255 298.208 14.095C298.778 13.935 299.423 13.855 300.143 13.855ZM300.143 15.13C299.603 15.13 299.138 15.19 298.748 15.31C298.358 15.42 298.033 15.58 297.773 15.79C297.523 15.99 297.338 16.23 297.218 16.51C297.098 16.79 297.038 17.095 297.038 17.425C297.038 17.755 297.098 18.06 297.218 18.34C297.338 18.62 297.523 18.865 297.773 19.075C298.033 19.275 298.358 19.435 298.748 19.555C299.138 19.665 299.603 19.72 300.143 19.72C300.683 19.72 301.148 19.665 301.538 19.555C301.928 19.435 302.248 19.275 302.498 19.075C302.758 18.865 302.948 18.62 303.068 18.34C303.188 18.06 303.248 17.755 303.248 17.425C303.248 17.095 303.188 16.79 303.068 16.51C302.948 16.23 302.758 15.99 302.498 15.79C302.248 15.58 301.928 15.42 301.538 15.31C301.148 15.19 300.683 15.13 300.143 15.13ZM297.833 21.295C298.033 21.295 298.208 21.345 298.358 21.445C298.508 21.545 298.583 21.7 298.583 21.91V23.725H301.703V21.91C301.703 21.7 301.778 21.545 301.928 21.445C302.078 21.345 302.253 21.295 302.453 21.295C302.653 21.295 302.828 21.345 302.978 21.445C303.128 21.545 303.203 21.7 303.203 21.91V23.725H305.918C306.098 23.725 306.228 23.785 306.308 23.905C306.398 24.025 306.443 24.17 306.443 24.34C306.443 24.51 306.398 24.66 306.308 24.79C306.228 24.92 306.098 24.985 305.918 24.985H294.368C294.188 24.985 294.053 24.92 293.963 24.79C293.883 24.66 293.843 24.51 293.843 24.34C293.843 24.17 293.883 24.025 293.963 23.905C294.053 23.785 294.188 23.725 294.368 23.725H297.083V21.91C297.083 21.7 297.158 21.545 297.308 21.445C297.458 21.345 297.633 21.295 297.833 21.295ZM309.01 13.9C309.26 13.9 309.46 13.955 309.61 14.065C309.77 14.175 309.845 14.36 309.835 14.62L309.655 21.7C309.645 21.94 309.575 22.11 309.445 22.21C309.325 22.3 309.18 22.345 309.01 22.345C308.84 22.345 308.69 22.3 308.56 22.21C308.44 22.11 308.38 21.94 308.38 21.7L308.185 14.62C308.185 14.36 308.26 14.175 308.41 14.065C308.56 13.955 308.76 13.9 309.01 13.9ZM309.01 23.575C309.29 23.575 309.525 23.67 309.715 23.86C309.905 24.04 310 24.27 310 24.55C310 24.83 309.905 25.065 309.715 25.255C309.525 25.445 309.29 25.54 309.01 25.54C308.73 25.54 308.495 25.445 308.305 25.255C308.115 25.065 308.02 24.83 308.02 24.55C308.02 24.27 308.115 24.04 308.305 23.86C308.495 23.67 308.73 23.575 309.01 23.575Z" fill="#E97E76"/>
<path d="M55.3332 14.11C56.4732 14.11 57.3282 14.49 57.8982 15.25C58.4782 16.01 58.7682 17.12 58.7682 18.58C58.7682 20.04 58.4782 21.15 57.8982 21.91C57.3282 22.67 56.4732 23.05 55.3332 23.05C54.1932 23.05 53.3382 22.67 52.7682 21.91C52.1982 21.15 51.9132 20.04 51.9132 18.58C51.9132 17.12 52.1982 16.01 52.7682 15.25C53.3382 14.49 54.1932 14.11 55.3332 14.11ZM55.3332 15.43C54.6232 15.43 54.1182 15.7 53.8182 16.24C53.5182 16.77 53.3682 17.55 53.3682 18.58C53.3682 19.61 53.5182 20.395 53.8182 20.935C54.1182 21.465 54.6232 21.73 55.3332 21.73C56.0532 21.73 56.5632 21.465 56.8632 20.935C57.1632 20.395 57.3132 19.61 57.3132 18.58C57.3132 17.55 57.1632 16.77 56.8632 16.24C56.5632 15.7 56.0532 15.43 55.3332 15.43ZM62.1282 13.33C62.3282 13.33 62.5032 13.38 62.6532 13.48C62.8032 13.58 62.8782 13.74 62.8782 13.96V25.66C62.8782 25.88 62.8032 26.04 62.6532 26.14C62.5032 26.24 62.3282 26.29 62.1282 26.29C61.9482 26.29 61.7782 26.24 61.6182 26.14C61.4682 26.04 61.3932 25.88 61.3932 25.66V20.86H59.6832C59.5032 20.86 59.3682 20.8 59.2782 20.68C59.1982 20.55 59.1582 20.395 59.1582 20.215C59.1582 20.045 59.1982 19.9 59.2782 19.78C59.3682 19.65 59.5032 19.585 59.6832 19.585H61.3932V17.575H59.6832C59.5032 17.575 59.3682 17.515 59.2782 17.395C59.1982 17.265 59.1582 17.11 59.1582 16.93C59.1582 16.76 59.1982 16.615 59.2782 16.495C59.3682 16.365 59.5032 16.3 59.6832 16.3H61.3932V13.96C61.3932 13.74 61.4682 13.58 61.6182 13.48C61.7782 13.38 61.9482 13.33 62.1282 13.33ZM70.4706 14.26C70.9106 14.26 71.2106 14.34 71.3706 14.5C71.5406 14.66 71.6256 14.955 71.6256 15.385V18.16C71.6256 18.59 71.5406 18.885 71.3706 19.045C71.2106 19.205 70.9106 19.285 70.4706 19.285H67.4706C67.3506 19.285 67.2656 19.31 67.2156 19.36C67.1756 19.4 67.1556 19.475 67.1556 19.585V21.565C67.1556 21.675 67.1756 21.755 67.2156 21.805C67.2656 21.845 67.3506 21.865 67.4706 21.865C68.4206 21.865 69.3156 21.845 70.1556 21.805C70.9956 21.755 71.8156 21.675 72.6156 21.565C72.7856 21.545 72.9206 21.59 73.0206 21.7C73.1306 21.8 73.1956 21.935 73.2156 22.105C73.2356 22.285 73.2106 22.45 73.1406 22.6C73.0806 22.74 72.9656 22.82 72.7956 22.84C72.4556 22.89 72.0856 22.935 71.6856 22.975C71.2856 23.015 70.8406 23.05 70.3506 23.08C69.8706 23.1 69.3356 23.12 68.7456 23.14C68.1656 23.15 67.5256 23.155 66.8256 23.155C66.3856 23.155 66.0806 23.075 65.9106 22.915C65.7506 22.755 65.6706 22.46 65.6706 22.03V19.165C65.6706 18.735 65.7506 18.445 65.9106 18.295C66.0806 18.135 66.3856 18.055 66.8256 18.055H69.8406C70.0506 18.055 70.1556 17.95 70.1556 17.74V15.85C70.1556 15.65 70.0506 15.55 69.8406 15.55H66.1956C66.0056 15.55 65.8706 15.485 65.7906 15.355C65.7106 15.225 65.6706 15.075 65.6706 14.905C65.6706 14.735 65.7106 14.585 65.7906 14.455C65.8706 14.325 66.0056 14.26 66.1956 14.26H70.4706ZM75.5556 13.33C75.7556 13.33 75.9306 13.38 76.0806 13.48C76.2306 13.58 76.3056 13.74 76.3056 13.96V25.66C76.3056 25.88 76.2306 26.04 76.0806 26.14C75.9306 26.24 75.7556 26.29 75.5556 26.29C75.3656 26.29 75.1956 26.24 75.0456 26.14C74.8956 26.04 74.8206 25.88 74.8206 25.66V19.105H73.0206C72.8306 19.105 72.6906 19.045 72.6006 18.925C72.5206 18.795 72.4806 18.64 72.4806 18.46C72.4806 18.28 72.5206 18.13 72.6006 18.01C72.6906 17.88 72.8306 17.815 73.0206 17.815H74.8206V13.96C74.8206 13.74 74.8956 13.58 75.0456 13.48C75.1956 13.38 75.3656 13.33 75.5556 13.33ZM80.7929 13.645C80.9829 13.645 81.1529 13.695 81.3029 13.795C81.4529 13.895 81.5279 14.05 81.5279 14.26V15.37H87.7379V14.26C87.7379 14.05 87.8129 13.895 87.9629 13.795C88.1129 13.695 88.2779 13.645 88.4579 13.645C88.6479 13.645 88.8179 13.695 88.9679 13.795C89.1279 13.895 89.2079 14.05 89.2079 14.26V18.025C89.2079 18.455 89.1229 18.75 88.9529 18.91C88.7929 19.07 88.4929 19.15 88.0529 19.15H81.2129C80.7729 19.15 80.4729 19.07 80.3129 18.91C80.1529 18.75 80.0729 18.455 80.0729 18.025V14.26C80.0729 14.05 80.1479 13.895 80.2979 13.795C80.4479 13.695 80.6129 13.645 80.7929 13.645ZM81.5279 17.68C81.5279 17.83 81.6079 17.905 81.7679 17.905H87.4979C87.6579 17.905 87.7379 17.83 87.7379 17.68V16.6H81.5279V17.68ZM90.4079 20.455C90.5879 20.455 90.7179 20.52 90.7979 20.65C90.8879 20.78 90.9329 20.93 90.9329 21.1C90.9329 21.27 90.8879 21.415 90.7979 21.535C90.7179 21.655 90.5879 21.715 90.4079 21.715H85.5479V23.68C85.5479 23.88 85.4729 24.025 85.3229 24.115C85.1829 24.205 85.0079 24.25 84.7979 24.25C84.5979 24.25 84.4229 24.205 84.2729 24.115C84.1329 24.025 84.0629 23.88 84.0629 23.68V21.715H78.8579C78.6779 21.715 78.5429 21.655 78.4529 21.535C78.3729 21.415 78.3329 21.27 78.3329 21.1C78.3329 20.93 78.3729 20.78 78.4529 20.65C78.5429 20.52 78.6779 20.455 78.8579 20.455H90.4079ZM80.7929 22.9C80.9929 22.9 81.1679 22.95 81.3179 23.05C81.4679 23.15 81.5429 23.31 81.5429 23.53V25.45C81.5429 25.66 81.6479 25.765 81.8579 25.765H88.9529C89.1329 25.765 89.2629 25.825 89.3429 25.945C89.4329 26.075 89.4779 26.225 89.4779 26.395C89.4779 26.565 89.4329 26.715 89.3429 26.845C89.2629 26.975 89.1329 27.04 88.9529 27.04H81.1829C80.7429 27.04 80.4429 26.96 80.2829 26.8C80.1229 26.64 80.0429 26.345 80.0429 25.915V23.53C80.0429 23.31 80.1179 23.15 80.2679 23.05C80.4179 22.95 80.5929 22.9 80.7929 22.9ZM96.3802 14.11C96.9802 14.11 97.5052 14.195 97.9552 14.365C98.4152 14.525 98.7952 14.755 99.0952 15.055C99.3952 15.345 99.6202 15.69 99.7702 16.09C99.9302 16.49 100.01 16.92 100.01 17.38C100.01 17.85 99.9302 18.285 99.7702 18.685C99.6202 19.085 99.3952 19.435 99.0952 19.735C98.7952 20.025 98.4152 20.255 97.9552 20.425C97.5052 20.585 96.9802 20.665 96.3802 20.665C95.7802 20.665 95.2502 20.585 94.7902 20.425C94.3402 20.255 93.9652 20.025 93.6652 19.735C93.3652 19.435 93.1352 19.085 92.9752 18.685C92.8252 18.285 92.7502 17.85 92.7502 17.38C92.7502 16.92 92.8252 16.49 92.9752 16.09C93.1352 15.69 93.3652 15.345 93.6652 15.055C93.9652 14.755 94.3402 14.525 94.7902 14.365C95.2502 14.195 95.7802 14.11 96.3802 14.11ZM96.3802 15.37C95.6302 15.37 95.0752 15.565 94.7152 15.955C94.3552 16.335 94.1752 16.81 94.1752 17.38C94.1752 17.95 94.3552 18.43 94.7152 18.82C95.0752 19.21 95.6302 19.405 96.3802 19.405C97.1302 19.405 97.6852 19.21 98.0452 18.82C98.4052 18.43 98.5852 17.95 98.5852 17.38C98.5852 16.81 98.4052 16.335 98.0452 15.955C97.6852 15.565 97.1302 15.37 96.3802 15.37ZM100.505 22.36C100.675 22.34 100.805 22.385 100.895 22.495C100.995 22.605 101.05 22.75 101.06 22.93C101.08 23.1 101.05 23.255 100.97 23.395C100.9 23.525 100.78 23.6 100.61 23.62C99.4002 23.73 98.1102 23.81 96.7402 23.86C95.3702 23.91 93.9452 23.935 92.4652 23.935C92.2852 23.935 92.1502 23.87 92.0602 23.74C91.9802 23.61 91.9402 23.46 91.9402 23.29C91.9402 23.12 91.9802 22.97 92.0602 22.84C92.1502 22.71 92.2852 22.645 92.4652 22.645C93.8052 22.645 95.1302 22.63 96.4402 22.6C97.7502 22.57 99.1052 22.49 100.505 22.36ZM102.59 13.33C102.79 13.33 102.965 13.38 103.115 13.48C103.265 13.58 103.34 13.74 103.34 13.96V25.66C103.34 25.88 103.265 26.04 103.115 26.14C102.965 26.24 102.79 26.29 102.59 26.29C102.4 26.29 102.23 26.24 102.08 26.14C101.93 26.04 101.855 25.88 101.855 25.66V13.96C101.855 13.74 101.93 13.58 102.08 13.48C102.23 13.38 102.4 13.33 102.59 13.33ZM112.973 13.78C113.173 13.78 113.348 13.83 113.498 13.93C113.658 14.03 113.738 14.19 113.738 14.41V15.88C113.738 16.36 113.813 16.77 113.963 17.11C114.113 17.45 114.363 17.77 114.713 18.07C115.063 18.36 115.393 18.625 115.703 18.865C116.013 19.105 116.288 19.31 116.528 19.48C116.698 19.6 116.783 19.75 116.783 19.93C116.793 20.1 116.743 20.255 116.633 20.395C116.533 20.525 116.398 20.62 116.228 20.68C116.058 20.74 115.883 20.705 115.703 20.575C115.513 20.435 115.273 20.255 114.983 20.035C114.703 19.805 114.403 19.56 114.083 19.3C113.713 19.01 113.448 18.77 113.288 18.58C113.138 18.38 113.043 18.205 113.003 18.055H112.988C112.948 18.225 112.843 18.415 112.673 18.625C112.513 18.825 112.253 19.075 111.893 19.375C111.573 19.635 111.258 19.885 110.948 20.125C110.638 20.365 110.328 20.595 110.018 20.815C109.848 20.935 109.673 20.97 109.493 20.92C109.323 20.86 109.188 20.765 109.088 20.635C108.988 20.495 108.938 20.335 108.938 20.155C108.938 19.965 109.028 19.805 109.208 19.675C109.558 19.425 109.898 19.175 110.228 18.925C110.558 18.675 110.898 18.405 111.248 18.115C111.598 17.815 111.848 17.495 111.998 17.155C112.148 16.805 112.223 16.39 112.223 15.91V14.41C112.223 14.19 112.298 14.03 112.448 13.93C112.598 13.83 112.773 13.78 112.973 13.78ZM119.378 13.33C119.568 13.33 119.738 13.38 119.888 13.48C120.038 13.58 120.113 13.74 120.113 13.96V20.935C120.113 21.145 120.038 21.3 119.888 21.4C119.738 21.5 119.568 21.55 119.378 21.55C119.178 21.55 119.003 21.5 118.853 21.4C118.703 21.3 118.628 21.145 118.628 20.935V17.38H116.348C116.158 17.38 116.018 17.32 115.928 17.2C115.848 17.07 115.808 16.92 115.808 16.75C115.808 16.57 115.848 16.42 115.928 16.3C116.018 16.17 116.158 16.105 116.348 16.105H118.628V13.96C118.628 13.74 118.703 13.58 118.853 13.48C119.003 13.38 119.178 13.33 119.378 13.33ZM115.793 21.685C117.193 21.685 118.273 21.925 119.033 22.405C119.803 22.875 120.188 23.58 120.188 24.52C120.188 25.46 119.803 26.165 119.033 26.635C118.273 27.115 117.193 27.355 115.793 27.355C114.393 27.355 113.308 27.115 112.538 26.635C111.778 26.165 111.398 25.46 111.398 24.52C111.398 23.58 111.778 22.875 112.538 22.405C113.308 21.925 114.393 21.685 115.793 21.685ZM115.793 22.9C114.773 22.9 114.033 23.05 113.573 23.35C113.113 23.64 112.883 24.03 112.883 24.52C112.883 25.02 113.113 25.415 113.573 25.705C114.033 25.995 114.773 26.14 115.793 26.14C116.813 26.14 117.553 25.995 118.013 25.705C118.473 25.415 118.703 25.02 118.703 24.52C118.703 24.02 118.473 23.625 118.013 23.335C117.553 23.045 116.813 22.9 115.793 22.9ZM126.835 13.585C128.025 13.585 128.915 13.82 129.505 14.29C130.095 14.75 130.39 15.35 130.39 16.09C130.39 16.83 130.095 17.435 129.505 17.905C128.915 18.365 128.025 18.595 126.835 18.595C125.645 18.595 124.755 18.365 124.165 17.905C123.585 17.445 123.295 16.84 123.295 16.09C123.295 15.34 123.585 14.735 124.165 14.275C124.755 13.815 125.645 13.585 126.835 13.585ZM126.835 14.77C126.095 14.77 125.555 14.895 125.215 15.145C124.875 15.395 124.705 15.71 124.705 16.09C124.705 16.47 124.875 16.785 125.215 17.035C125.555 17.285 126.095 17.41 126.835 17.41C127.575 17.41 128.115 17.285 128.455 17.035C128.805 16.785 128.98 16.47 128.98 16.09C128.98 15.71 128.805 15.395 128.455 15.145C128.115 14.895 127.575 14.77 126.835 14.77ZM132.97 13.33C133.17 13.33 133.345 13.38 133.495 13.48C133.645 13.58 133.72 13.74 133.72 13.96V23.29C133.72 23.51 133.645 23.67 133.495 23.77C133.345 23.87 133.17 23.92 132.97 23.92C132.78 23.92 132.61 23.87 132.46 23.77C132.31 23.67 132.235 23.51 132.235 23.29V22.6H129.835C129.665 22.6 129.535 22.545 129.445 22.435C129.365 22.315 129.325 22.17 129.325 22C129.325 21.83 129.365 21.685 129.445 21.565C129.535 21.445 129.665 21.385 129.835 21.385H132.235V13.96C132.235 13.74 132.31 13.58 132.46 13.48C132.61 13.38 132.78 13.33 132.97 13.33ZM130.87 19.21C131.04 19.19 131.175 19.235 131.275 19.345C131.375 19.445 131.43 19.585 131.44 19.765C131.46 19.935 131.43 20.085 131.35 20.215C131.28 20.345 131.16 20.42 130.99 20.44C130.47 20.51 129.91 20.57 129.31 20.62C128.72 20.66 128.1 20.695 127.45 20.725V22.495C127.45 22.695 127.375 22.845 127.225 22.945C127.085 23.035 126.91 23.08 126.7 23.08C126.5 23.08 126.325 23.035 126.175 22.945C126.035 22.845 125.965 22.695 125.965 22.495V20.77C124.915 20.8 123.875 20.815 122.845 20.815C122.665 20.815 122.53 20.755 122.44 20.635C122.36 20.515 122.32 20.37 122.32 20.2C122.32 20.03 122.36 19.885 122.44 19.765C122.53 19.635 122.665 19.57 122.845 19.57C124.105 19.57 125.42 19.55 126.79 19.51C128.17 19.47 129.53 19.37 130.87 19.21ZM125.29 23.32C125.48 23.32 125.65 23.37 125.8 23.47C125.96 23.57 126.04 23.73 126.04 23.95V25.42C126.04 25.53 126.06 25.61 126.1 25.66C126.15 25.71 126.235 25.735 126.355 25.735H133.555C133.735 25.735 133.865 25.795 133.945 25.915C134.035 26.045 134.08 26.195 134.08 26.365C134.08 26.535 134.035 26.685 133.945 26.815C133.865 26.945 133.735 27.01 133.555 27.01H125.68C125.24 27.01 124.935 26.93 124.765 26.77C124.605 26.61 124.525 26.315 124.525 25.885V23.95C124.525 23.73 124.6 23.57 124.75 23.47C124.91 23.37 125.09 23.32 125.29 23.32ZM145.752 14.065C145.932 14.065 146.062 14.13 146.142 14.26C146.232 14.38 146.277 14.525 146.277 14.695C146.277 14.865 146.232 15.015 146.142 15.145C146.062 15.275 145.932 15.34 145.752 15.34H141.672C141.562 15.34 141.482 15.365 141.432 15.415C141.382 15.455 141.357 15.535 141.357 15.655V19.195C141.357 19.395 141.462 19.495 141.672 19.495C142.662 19.495 143.582 19.47 144.432 19.42C145.282 19.37 146.112 19.29 146.922 19.18C147.092 19.16 147.227 19.2 147.327 19.3C147.437 19.4 147.502 19.535 147.522 19.705C147.542 19.885 147.517 20.05 147.447 20.2C147.387 20.34 147.272 20.42 147.102 20.44C146.752 20.49 146.372 20.535 145.962 20.575C145.562 20.615 145.117 20.65 144.627 20.68C144.137 20.71 143.592 20.735 142.992 20.755C142.402 20.765 141.742 20.77 141.012 20.77C140.572 20.77 140.267 20.69 140.097 20.53C139.937 20.37 139.857 20.075 139.857 19.645V15.19C139.857 14.76 139.937 14.465 140.097 14.305C140.267 14.145 140.572 14.065 141.012 14.065H145.752ZM149.742 13.33C149.942 13.33 150.117 13.38 150.267 13.48C150.417 13.58 150.492 13.74 150.492 13.96V20.905C150.492 21.125 150.417 21.285 150.267 21.385C150.117 21.485 149.942 21.535 149.742 21.535C149.552 21.535 149.382 21.485 149.232 21.385C149.082 21.285 149.007 21.125 149.007 20.905V17.875H145.977C145.797 17.875 145.662 17.81 145.572 17.68C145.492 17.55 145.452 17.4 145.452 17.23C145.452 17.06 145.492 16.915 145.572 16.795C145.662 16.665 145.797 16.6 145.977 16.6H149.007V13.96C149.007 13.74 149.082 13.58 149.232 13.48C149.382 13.38 149.552 13.33 149.742 13.33ZM149.337 22.18C149.777 22.18 150.077 22.26 150.237 22.42C150.407 22.58 150.492 22.875 150.492 23.305V26.65C150.492 26.87 150.417 27.03 150.267 27.13C150.117 27.23 149.942 27.28 149.742 27.28C149.542 27.28 149.367 27.23 149.217 27.13C149.067 27.03 148.992 26.87 148.992 26.65V23.77C148.992 23.57 148.887 23.47 148.677 23.47H141.942C141.752 23.47 141.612 23.405 141.522 23.275C141.442 23.145 141.402 22.995 141.402 22.825C141.402 22.655 141.442 22.505 141.522 22.375C141.612 22.245 141.752 22.18 141.942 22.18H149.337ZM154.98 13.645C155.17 13.645 155.34 13.695 155.49 13.795C155.64 13.895 155.715 14.05 155.715 14.26V15.37H161.925V14.26C161.925 14.05 162 13.895 162.15 13.795C162.3 13.695 162.465 13.645 162.645 13.645C162.835 13.645 163.005 13.695 163.155 13.795C163.315 13.895 163.395 14.05 163.395 14.26V18.025C163.395 18.455 163.31 18.75 163.14 18.91C162.98 19.07 162.68 19.15 162.24 19.15H155.4C154.96 19.15 154.66 19.07 154.5 18.91C154.34 18.75 154.26 18.455 154.26 18.025V14.26C154.26 14.05 154.335 13.895 154.485 13.795C154.635 13.695 154.8 13.645 154.98 13.645ZM155.715 17.68C155.715 17.83 155.795 17.905 155.955 17.905H161.685C161.845 17.905 161.925 17.83 161.925 17.68V16.6H155.715V17.68ZM164.595 20.455C164.775 20.455 164.905 20.52 164.985 20.65C165.075 20.78 165.12 20.93 165.12 21.1C165.12 21.27 165.075 21.415 164.985 21.535C164.905 21.655 164.775 21.715 164.595 21.715H159.735V23.68C159.735 23.88 159.66 24.025 159.51 24.115C159.37 24.205 159.195 24.25 158.985 24.25C158.785 24.25 158.61 24.205 158.46 24.115C158.32 24.025 158.25 23.88 158.25 23.68V21.715H153.045C152.865 21.715 152.73 21.655 152.64 21.535C152.56 21.415 152.52 21.27 152.52 21.1C152.52 20.93 152.56 20.78 152.64 20.65C152.73 20.52 152.865 20.455 153.045 20.455H164.595ZM154.98 22.9C155.18 22.9 155.355 22.95 155.505 23.05C155.655 23.15 155.73 23.31 155.73 23.53V25.45C155.73 25.66 155.835 25.765 156.045 25.765H163.14C163.32 25.765 163.45 25.825 163.53 25.945C163.62 26.075 163.665 26.225 163.665 26.395C163.665 26.565 163.62 26.715 163.53 26.845C163.45 26.975 163.32 27.04 163.14 27.04H155.37C154.93 27.04 154.63 26.96 154.47 26.8C154.31 26.64 154.23 26.345 154.23 25.915V23.53C154.23 23.31 154.305 23.15 154.455 23.05C154.605 22.95 154.78 22.9 154.98 22.9ZM169.067 14.215C170.107 14.215 170.872 14.585 171.362 15.325C171.852 16.065 172.097 17.15 172.097 18.58C172.097 20.01 171.852 21.095 171.362 21.835C170.872 22.575 170.107 22.945 169.067 22.945C168.027 22.945 167.262 22.575 166.772 21.835C166.292 21.095 166.052 20.01 166.052 18.58C166.052 17.15 166.292 16.065 166.772 15.325C167.262 14.585 168.027 14.215 169.067 14.215ZM169.067 15.535C168.467 15.535 168.042 15.795 167.792 16.315C167.552 16.825 167.432 17.58 167.432 18.58C167.432 19.58 167.552 20.34 167.792 20.86C168.042 21.37 168.467 21.625 169.067 21.625C169.667 21.625 170.092 21.37 170.342 20.86C170.592 20.34 170.717 19.58 170.717 18.58C170.717 17.58 170.592 16.825 170.342 16.315C170.092 15.795 169.667 15.535 169.067 15.535ZM174.302 13.48C174.472 13.48 174.627 13.53 174.767 13.63C174.917 13.72 174.992 13.865 174.992 14.065V25.075C174.992 25.275 174.917 25.42 174.767 25.51C174.627 25.61 174.472 25.66 174.302 25.66C174.122 25.66 173.957 25.61 173.807 25.51C173.667 25.42 173.597 25.275 173.597 25.075V19.21H171.197V17.935H173.597V14.065C173.597 13.865 173.667 13.72 173.807 13.63C173.957 13.53 174.122 13.48 174.302 13.48ZM176.987 13.33C177.167 13.33 177.327 13.38 177.467 13.48C177.617 13.57 177.692 13.715 177.692 13.915V25.705C177.692 25.905 177.617 26.05 177.467 26.14C177.327 26.24 177.167 26.29 176.987 26.29C176.817 26.29 176.657 26.24 176.507 26.14C176.367 26.05 176.297 25.905 176.297 25.705V13.915C176.297 13.715 176.367 13.57 176.507 13.48C176.657 13.38 176.817 13.33 176.987 13.33ZM192.619 13.795C193.059 13.795 193.359 13.875 193.519 14.035C193.689 14.195 193.774 14.49 193.774 14.92V17.605C193.774 18.035 193.689 18.33 193.519 18.49C193.359 18.65 193.059 18.73 192.619 18.73H185.779C185.339 18.73 185.039 18.65 184.879 18.49C184.719 18.33 184.639 18.035 184.639 17.605V14.92C184.639 14.49 184.719 14.195 184.879 14.035C185.039 13.875 185.339 13.795 185.779 13.795H192.619ZM186.439 15.04C186.319 15.04 186.234 15.065 186.184 15.115C186.144 15.155 186.124 15.23 186.124 15.34V17.185C186.124 17.295 186.144 17.375 186.184 17.425C186.234 17.465 186.319 17.485 186.439 17.485H191.959C192.079 17.485 192.159 17.465 192.199 17.425C192.249 17.375 192.274 17.295 192.274 17.185V15.34C192.274 15.23 192.249 15.155 192.199 15.115C192.159 15.065 192.079 15.04 191.959 15.04H186.439ZM189.934 20.23H194.989C195.159 20.23 195.284 20.295 195.364 20.425C195.454 20.545 195.499 20.69 195.499 20.86C195.499 21.03 195.454 21.18 195.364 21.31C195.284 21.43 195.159 21.49 194.989 21.49H183.409C183.239 21.49 183.109 21.43 183.019 21.31C182.939 21.18 182.899 21.03 182.899 20.86C182.899 20.69 182.939 20.545 183.019 20.425C183.109 20.295 183.239 20.23 183.409 20.23H188.464V18.115H189.934V20.23ZM192.649 22.66C193.089 22.66 193.389 22.74 193.549 22.9C193.719 23.06 193.804 23.355 193.804 23.785V26.71C193.804 26.93 193.724 27.09 193.564 27.19C193.414 27.29 193.239 27.34 193.039 27.34C192.849 27.34 192.679 27.29 192.529 27.19C192.379 27.09 192.304 26.93 192.304 26.71V24.235C192.304 24.115 192.279 24.035 192.229 23.995C192.179 23.945 192.099 23.92 191.989 23.92H184.939C184.759 23.92 184.629 23.86 184.549 23.74C184.469 23.61 184.429 23.46 184.429 23.29C184.429 23.12 184.469 22.975 184.549 22.855C184.629 22.725 184.759 22.66 184.939 22.66H192.649ZM207.052 14.26C207.232 14.26 207.362 14.325 207.442 14.455C207.532 14.575 207.577 14.72 207.577 14.89C207.577 15.06 207.532 15.205 207.442 15.325C207.362 15.445 207.232 15.505 207.052 15.505H205.597V19.51H207.127C207.297 19.51 207.422 19.575 207.502 19.705C207.592 19.825 207.637 19.97 207.637 20.14C207.637 20.31 207.592 20.46 207.502 20.59C207.422 20.71 207.297 20.77 207.127 20.77H198.127C197.957 20.77 197.827 20.71 197.737 20.59C197.657 20.46 197.617 20.31 197.617 20.14C197.617 19.97 197.657 19.825 197.737 19.705C197.827 19.575 197.957 19.51 198.127 19.51H199.657V15.505H198.202C198.022 15.505 197.887 15.445 197.797 15.325C197.717 15.205 197.677 15.06 197.677 14.89C197.677 14.72 197.717 14.575 197.797 14.455C197.887 14.325 198.022 14.26 198.202 14.26H207.052ZM204.142 19.51V15.505H201.112V19.51H204.142ZM201.352 23.725H203.902V20.08H205.327V23.725H208.402C208.582 23.725 208.712 23.785 208.792 23.905C208.882 24.025 208.927 24.17 208.927 24.34C208.927 24.51 208.882 24.66 208.792 24.79C208.712 24.92 208.582 24.985 208.402 24.985H196.852C196.672 24.985 196.537 24.92 196.447 24.79C196.367 24.66 196.327 24.51 196.327 24.34C196.327 24.17 196.367 24.025 196.447 23.905C196.537 23.785 196.672 23.725 196.852 23.725H199.927V20.08H201.352V23.725ZM214.224 13.285C214.424 13.285 214.599 13.335 214.749 13.435C214.899 13.535 214.974 13.695 214.974 13.915V15.175H217.524C217.704 15.175 217.834 15.24 217.914 15.37C218.004 15.5 218.049 15.65 218.049 15.82C218.049 15.99 218.004 16.14 217.914 16.27C217.834 16.4 217.704 16.465 217.524 16.465H214.974V17.425C214.974 17.745 214.989 18.025 215.019 18.265C215.059 18.505 215.119 18.73 215.199 18.94C215.289 19.15 215.404 19.355 215.544 19.555C215.694 19.755 215.884 19.965 216.114 20.185C216.434 20.505 216.744 20.805 217.044 21.085C217.344 21.365 217.624 21.615 217.884 21.835C218.024 21.965 218.079 22.125 218.049 22.315C218.029 22.495 217.959 22.645 217.839 22.765C217.719 22.885 217.574 22.96 217.404 22.99C217.234 23.02 217.079 22.97 216.939 22.84C216.719 22.65 216.479 22.43 216.219 22.18C215.959 21.92 215.674 21.64 215.364 21.34C215.154 21.13 214.979 20.95 214.839 20.8C214.699 20.64 214.584 20.505 214.494 20.395C214.414 20.285 214.354 20.19 214.314 20.11C214.274 20.03 214.249 19.95 214.239 19.87H214.224C214.204 19.96 214.174 20.05 214.134 20.14C214.104 20.22 214.044 20.32 213.954 20.44C213.874 20.55 213.764 20.685 213.624 20.845C213.494 20.995 213.319 21.175 213.099 21.385C212.789 21.675 212.494 21.96 212.214 22.24C211.934 22.51 211.634 22.78 211.314 23.05C211.154 23.18 210.984 23.225 210.804 23.185C210.624 23.135 210.479 23.045 210.369 22.915C210.249 22.775 210.184 22.62 210.174 22.45C210.174 22.27 210.249 22.115 210.399 21.985C210.749 21.695 211.079 21.405 211.389 21.115C211.699 20.815 212.014 20.505 212.334 20.185C212.554 19.965 212.739 19.755 212.889 19.555C213.039 19.355 213.154 19.15 213.234 18.94C213.324 18.73 213.384 18.505 213.414 18.265C213.454 18.025 213.474 17.745 213.474 17.425V16.465H210.834C210.654 16.465 210.519 16.4 210.429 16.27C210.349 16.14 210.309 15.99 210.309 15.82C210.309 15.65 210.349 15.5 210.429 15.37C210.519 15.24 210.654 15.175 210.834 15.175H213.474V13.915C213.474 13.695 213.549 13.535 213.699 13.435C213.859 13.335 214.034 13.285 214.224 13.285ZM220.299 13.33C220.499 13.33 220.674 13.38 220.824 13.48C220.984 13.58 221.064 13.74 221.064 13.96V25.66C221.064 25.88 220.984 26.04 220.824 26.14C220.674 26.24 220.499 26.29 220.299 26.29C220.109 26.29 219.934 26.24 219.774 26.14C219.624 26.04 219.549 25.88 219.549 25.66V13.96C219.549 13.74 219.624 13.58 219.774 13.48C219.934 13.38 220.109 13.33 220.299 13.33ZM232.826 13.585C233.266 13.585 233.566 13.665 233.726 13.825C233.896 13.985 233.981 14.28 233.981 14.71V15.67C233.981 16.09 233.896 16.38 233.726 16.54C233.566 16.7 233.266 16.78 232.826 16.78H226.646C226.486 16.78 226.406 16.86 226.406 17.02V17.515C226.406 17.665 226.486 17.74 226.646 17.74H233.831C234.001 17.74 234.121 17.8 234.191 17.92C234.271 18.03 234.311 18.16 234.311 18.31C234.311 18.46 234.271 18.595 234.191 18.715C234.121 18.825 234.001 18.88 233.831 18.88H226.121C225.681 18.88 225.376 18.805 225.206 18.655C225.046 18.495 224.966 18.2 224.966 17.77V16.81C224.966 16.38 225.046 16.085 225.206 15.925C225.376 15.765 225.681 15.685 226.121 15.685H232.301C232.461 15.685 232.541 15.605 232.541 15.445V14.965C232.541 14.815 232.461 14.74 232.301 14.74H225.416C225.246 14.74 225.121 14.685 225.041 14.575C224.971 14.455 224.936 14.32 224.936 14.17C224.936 14.02 224.971 13.885 225.041 13.765C225.121 13.645 225.246 13.585 225.416 13.585H232.826ZM235.271 19.81C235.441 19.81 235.566 19.87 235.646 19.99C235.736 20.1 235.781 20.24 235.781 20.41C235.781 20.58 235.736 20.72 235.646 20.83C235.566 20.94 235.441 20.995 235.271 20.995H223.691C223.521 20.995 223.391 20.94 223.301 20.83C223.221 20.72 223.181 20.58 223.181 20.41C223.181 20.24 223.221 20.1 223.301 19.99C223.391 19.87 223.521 19.81 223.691 19.81H235.271ZM232.916 21.925C233.356 21.925 233.656 22.005 233.816 22.165C233.986 22.325 234.071 22.62 234.071 23.05V23.995C234.071 24.425 233.986 24.72 233.816 24.88C233.656 25.04 233.356 25.12 232.916 25.12H226.556C226.396 25.12 226.316 25.195 226.316 25.345V25.84C226.316 25.99 226.396 26.065 226.556 26.065H233.906C234.076 26.065 234.201 26.125 234.281 26.245C234.361 26.365 234.401 26.495 234.401 26.635C234.401 26.795 234.361 26.93 234.281 27.04C234.201 27.16 234.076 27.22 233.906 27.22H226.031C225.591 27.22 225.286 27.14 225.116 26.98C224.956 26.82 224.876 26.525 224.876 26.095V25.135C224.876 24.705 224.956 24.41 225.116 24.25C225.286 24.09 225.591 24.01 226.031 24.01H232.391C232.541 24.01 232.616 23.935 232.616 23.785V23.305C232.616 23.145 232.541 23.065 232.391 23.065H225.326C225.156 23.065 225.031 23.01 224.951 22.9C224.881 22.78 224.846 22.645 224.846 22.495C224.846 22.345 224.881 22.215 224.951 22.105C225.031 21.985 225.156 21.925 225.326 21.925H232.916ZM246.644 13.915C246.824 13.915 246.954 13.98 247.034 14.11C247.124 14.24 247.169 14.39 247.169 14.56C247.169 14.73 247.124 14.88 247.034 15.01C246.954 15.14 246.824 15.205 246.644 15.205H242.504C242.294 15.205 242.189 15.305 242.189 15.505V18.145C242.189 18.265 242.214 18.35 242.264 18.4C242.314 18.44 242.394 18.46 242.504 18.46C243.494 18.46 244.414 18.435 245.264 18.385C246.114 18.335 246.944 18.255 247.754 18.145C247.924 18.125 248.059 18.17 248.159 18.28C248.269 18.38 248.334 18.515 248.354 18.685C248.374 18.865 248.349 19.025 248.279 19.165C248.219 19.305 248.104 19.385 247.934 19.405C247.584 19.455 247.204 19.5 246.794 19.54C246.394 19.58 245.949 19.615 245.459 19.645C244.969 19.675 244.424 19.7 243.824 19.72C243.234 19.73 242.574 19.735 241.844 19.735C241.404 19.735 241.099 19.655 240.929 19.495C240.769 19.335 240.689 19.04 240.689 18.61V15.04C240.689 14.61 240.769 14.315 240.929 14.155C241.099 13.995 241.404 13.915 241.844 13.915H246.644ZM250.049 13.33C250.249 13.33 250.424 13.38 250.574 13.48C250.724 13.58 250.799 13.74 250.799 13.96V16.165H252.449C252.649 16.165 252.789 16.23 252.869 16.36C252.959 16.49 253.004 16.64 253.004 16.81C253.004 17 252.959 17.16 252.869 17.29C252.789 17.41 252.649 17.47 252.449 17.47H250.799V19.78C250.799 20 250.724 20.16 250.574 20.26C250.424 20.36 250.249 20.41 250.049 20.41C249.849 20.41 249.674 20.36 249.524 20.26C249.374 20.16 249.299 20 249.299 19.78V13.96C249.299 13.74 249.374 13.58 249.524 13.48C249.674 13.38 249.849 13.33 250.049 13.33ZM249.644 21.055C250.084 21.055 250.384 21.135 250.544 21.295C250.714 21.455 250.799 21.75 250.799 22.18V23.56C250.799 23.99 250.714 24.285 250.544 24.445C250.384 24.605 250.084 24.685 249.644 24.685H243.989C243.879 24.685 243.799 24.71 243.749 24.76C243.699 24.8 243.674 24.88 243.674 25V25.645C243.674 25.855 243.779 25.96 243.989 25.96H250.634C250.804 25.96 250.929 26.02 251.009 26.14C251.089 26.26 251.129 26.4 251.129 26.56C251.129 26.72 251.089 26.86 251.009 26.98C250.929 27.1 250.804 27.16 250.634 27.16H243.374C242.934 27.16 242.629 27.08 242.459 26.92C242.299 26.76 242.219 26.465 242.219 26.035V24.655C242.219 24.225 242.299 23.93 242.459 23.77C242.629 23.61 242.934 23.53 243.374 23.53H249.014C249.134 23.53 249.214 23.51 249.254 23.47C249.304 23.42 249.329 23.335 249.329 23.215V22.57C249.329 22.46 249.304 22.385 249.254 22.345C249.214 22.295 249.134 22.27 249.014 22.27H242.684C242.514 22.27 242.389 22.21 242.309 22.09C242.229 21.97 242.189 21.825 242.189 21.655C242.189 21.495 242.229 21.355 242.309 21.235C242.389 21.115 242.514 21.055 242.684 21.055H249.644ZM257.821 13.78C258.021 13.78 258.196 13.83 258.346 13.93C258.506 14.03 258.586 14.19 258.586 14.41V15.88C258.586 16.36 258.661 16.77 258.811 17.11C258.961 17.45 259.211 17.77 259.561 18.07C259.911 18.36 260.241 18.625 260.551 18.865C260.861 19.105 261.136 19.31 261.376 19.48C261.546 19.6 261.631 19.75 261.631 19.93C261.641 20.1 261.591 20.255 261.481 20.395C261.381 20.525 261.246 20.62 261.076 20.68C260.906 20.74 260.731 20.705 260.551 20.575C260.361 20.435 260.121 20.255 259.831 20.035C259.551 19.805 259.251 19.56 258.931 19.3C258.561 19.01 258.296 18.77 258.136 18.58C257.986 18.38 257.891 18.205 257.851 18.055H257.836C257.796 18.225 257.691 18.415 257.521 18.625C257.361 18.825 257.101 19.075 256.741 19.375C256.421 19.635 256.106 19.885 255.796 20.125C255.486 20.365 255.176 20.595 254.866 20.815C254.696 20.935 254.521 20.97 254.341 20.92C254.171 20.86 254.036 20.765 253.936 20.635C253.836 20.495 253.786 20.335 253.786 20.155C253.786 19.965 253.876 19.805 254.056 19.675C254.406 19.425 254.746 19.175 255.076 18.925C255.406 18.675 255.746 18.405 256.096 18.115C256.446 17.815 256.696 17.495 256.846 17.155C256.996 16.805 257.071 16.39 257.071 15.91V14.41C257.071 14.19 257.146 14.03 257.296 13.93C257.446 13.83 257.621 13.78 257.821 13.78ZM264.226 13.33C264.416 13.33 264.586 13.38 264.736 13.48C264.886 13.58 264.961 13.74 264.961 13.96V20.935C264.961 21.145 264.886 21.3 264.736 21.4C264.586 21.5 264.416 21.55 264.226 21.55C264.026 21.55 263.851 21.5 263.701 21.4C263.551 21.3 263.476 21.145 263.476 20.935V17.38H261.196C261.006 17.38 260.866 17.32 260.776 17.2C260.696 17.07 260.656 16.92 260.656 16.75C260.656 16.57 260.696 16.42 260.776 16.3C260.866 16.17 261.006 16.105 261.196 16.105H263.476V13.96C263.476 13.74 263.551 13.58 263.701 13.48C263.851 13.38 264.026 13.33 264.226 13.33ZM260.641 21.685C262.041 21.685 263.121 21.925 263.881 22.405C264.651 22.875 265.036 23.58 265.036 24.52C265.036 25.46 264.651 26.165 263.881 26.635C263.121 27.115 262.041 27.355 260.641 27.355C259.241 27.355 258.156 27.115 257.386 26.635C256.626 26.165 256.246 25.46 256.246 24.52C256.246 23.58 256.626 22.875 257.386 22.405C258.156 21.925 259.241 21.685 260.641 21.685ZM260.641 22.9C259.621 22.9 258.881 23.05 258.421 23.35C257.961 23.64 257.731 24.03 257.731 24.52C257.731 25.02 257.961 25.415 258.421 25.705C258.881 25.995 259.621 26.14 260.641 26.14C261.661 26.14 262.401 25.995 262.861 25.705C263.321 25.415 263.551 25.02 263.551 24.52C263.551 24.02 263.321 23.625 262.861 23.335C262.401 23.045 261.661 22.9 260.641 22.9ZM270.423 16.825C271.323 16.825 272.018 17.04 272.508 17.47C272.998 17.89 273.243 18.46 273.243 19.18C273.243 19.9 272.998 20.475 272.508 20.905C272.018 21.325 271.323 21.535 270.423 21.535C269.513 21.535 268.813 21.325 268.323 20.905C267.833 20.475 267.588 19.9 267.588 19.18C267.588 18.46 267.833 17.89 268.323 17.47C268.813 17.04 269.513 16.825 270.423 16.825ZM270.408 13.27C270.608 13.27 270.783 13.32 270.933 13.42C271.083 13.52 271.158 13.675 271.158 13.885V14.815H273.273C273.453 14.815 273.583 14.88 273.663 15.01C273.753 15.14 273.798 15.29 273.798 15.46C273.798 15.63 273.753 15.78 273.663 15.91C273.583 16.03 273.453 16.09 273.273 16.09H267.363C267.173 16.09 267.033 16.03 266.943 15.91C266.863 15.78 266.823 15.63 266.823 15.46C266.823 15.29 266.863 15.14 266.943 15.01C267.033 14.88 267.173 14.815 267.363 14.815H269.673V13.885C269.673 13.675 269.748 13.52 269.898 13.42C270.058 13.32 270.228 13.27 270.408 13.27ZM270.423 17.98C269.943 17.98 269.568 18.09 269.298 18.31C269.028 18.52 268.893 18.81 268.893 19.18C268.893 19.55 269.028 19.845 269.298 20.065C269.568 20.275 269.943 20.38 270.423 20.38C270.903 20.38 271.278 20.275 271.548 20.065C271.818 19.845 271.953 19.55 271.953 19.18C271.953 18.81 271.818 18.52 271.548 18.31C271.278 18.09 270.903 17.98 270.423 17.98ZM278.028 13.33C278.208 13.33 278.368 13.38 278.508 13.48C278.658 13.57 278.733 13.715 278.733 13.915V21.1C278.733 21.3 278.658 21.45 278.508 21.55C278.368 21.64 278.208 21.685 278.028 21.685C277.858 21.685 277.698 21.64 277.548 21.55C277.408 21.45 277.338 21.3 277.338 21.1V18.115H275.748V21.04C275.748 21.24 275.673 21.385 275.523 21.475C275.383 21.565 275.228 21.61 275.058 21.61C274.888 21.61 274.728 21.565 274.578 21.475C274.438 21.385 274.368 21.24 274.368 21.04V13.975C274.368 13.775 274.438 13.63 274.578 13.54C274.728 13.45 274.888 13.405 275.058 13.405C275.228 13.405 275.383 13.45 275.523 13.54C275.673 13.63 275.748 13.775 275.748 13.975V16.87H277.338V13.915C277.338 13.715 277.408 13.57 277.548 13.48C277.698 13.38 277.858 13.33 278.028 13.33ZM271.593 22.075C271.783 22.075 271.953 22.125 272.103 22.225C272.253 22.325 272.328 22.48 272.328 22.69V23.05C272.328 23.26 272.333 23.44 272.343 23.59C272.363 23.74 272.398 23.88 272.448 24.01C272.498 24.14 272.563 24.27 272.643 24.4C272.733 24.52 272.848 24.655 272.988 24.805C273.248 25.065 273.498 25.3 273.738 25.51C273.868 25.61 273.963 25.66 274.023 25.66C274.093 25.66 274.193 25.61 274.323 25.51C274.433 25.4 274.553 25.285 274.683 25.165C274.823 25.045 274.953 24.925 275.073 24.805C275.213 24.655 275.323 24.52 275.403 24.4C275.493 24.27 275.563 24.14 275.613 24.01C275.663 23.88 275.693 23.74 275.703 23.59C275.723 23.44 275.733 23.26 275.733 23.05V22.69C275.733 22.48 275.803 22.325 275.943 22.225C276.093 22.125 276.268 22.075 276.468 22.075C276.658 22.075 276.828 22.125 276.978 22.225C277.128 22.325 277.203 22.48 277.203 22.69V23.05C277.203 23.26 277.213 23.445 277.233 23.605C277.263 23.765 277.308 23.915 277.368 24.055C277.438 24.195 277.528 24.33 277.638 24.46C277.748 24.58 277.888 24.715 278.058 24.865C278.268 25.035 278.498 25.215 278.748 25.405C278.998 25.595 279.238 25.77 279.468 25.93C279.618 26.03 279.693 26.165 279.693 26.335C279.703 26.505 279.653 26.66 279.543 26.8C279.443 26.93 279.308 27.015 279.138 27.055C278.968 27.095 278.798 27.055 278.628 26.935C278.428 26.795 278.233 26.655 278.043 26.515C277.853 26.375 277.673 26.235 277.503 26.095C277.153 25.805 276.903 25.57 276.753 25.39C276.603 25.22 276.508 25.06 276.468 24.91H276.453C276.423 25.06 276.343 25.22 276.213 25.39C276.083 25.56 275.843 25.805 275.493 26.125C275.373 26.235 275.253 26.34 275.133 26.44C275.013 26.55 274.893 26.65 274.773 26.74C274.483 26.97 274.233 27.085 274.023 27.085C273.823 27.085 273.578 26.97 273.288 26.74C273.168 26.65 273.048 26.55 272.928 26.44C272.808 26.34 272.688 26.235 272.568 26.125C272.218 25.805 271.978 25.56 271.848 25.39C271.718 25.22 271.638 25.055 271.608 24.895H271.593C271.543 25.065 271.443 25.235 271.293 25.405C271.153 25.585 270.908 25.82 270.558 26.11C270.388 26.25 270.203 26.39 270.003 26.53C269.813 26.68 269.618 26.825 269.418 26.965C269.248 27.085 269.078 27.12 268.908 27.07C268.748 27.03 268.618 26.94 268.518 26.8C268.408 26.66 268.353 26.505 268.353 26.335C268.363 26.165 268.443 26.03 268.593 25.93C268.823 25.77 269.063 25.595 269.313 25.405C269.563 25.215 269.793 25.035 270.003 24.865C270.173 24.715 270.313 24.58 270.423 24.46C270.533 24.33 270.618 24.195 270.678 24.055C270.748 23.915 270.793 23.765 270.813 23.605C270.843 23.445 270.858 23.26 270.858 23.05V22.69C270.858 22.48 270.933 22.325 271.083 22.225C271.233 22.125 271.403 22.075 271.593 22.075ZM284.316 14.11C285.466 14.11 286.331 14.49 286.911 15.25C287.501 16.01 287.796 17.12 287.796 18.58C287.796 20.04 287.501 21.15 286.911 21.91C286.331 22.67 285.466 23.05 284.316 23.05C283.166 23.05 282.301 22.67 281.721 21.91C281.141 21.15 280.851 20.04 280.851 18.58C280.851 17.12 281.141 16.01 281.721 15.25C282.301 14.49 283.166 14.11 284.316 14.11ZM284.316 15.43C283.596 15.43 283.081 15.7 282.771 16.24C282.461 16.77 282.306 17.55 282.306 18.58C282.306 19.61 282.461 20.395 282.771 20.935C283.081 21.465 283.596 21.73 284.316 21.73C285.046 21.73 285.566 21.465 285.876 20.935C286.186 20.395 286.341 19.61 286.341 18.58C286.341 17.55 286.186 16.77 285.876 16.24C285.566 15.7 285.046 15.43 284.316 15.43ZM291.066 13.33C291.266 13.33 291.441 13.38 291.591 13.48C291.741 13.58 291.816 13.74 291.816 13.96V25.66C291.816 25.88 291.741 26.04 291.591 26.14C291.441 26.24 291.266 26.29 291.066 26.29C290.876 26.29 290.706 26.24 290.556 26.14C290.406 26.04 290.331 25.88 290.331 25.66V19.21H286.836V17.935H290.331V13.96C290.331 13.74 290.406 13.58 290.556 13.48C290.706 13.38 290.876 13.33 291.066 13.33ZM300.143 13.855C300.863 13.855 301.508 13.935 302.078 14.095C302.658 14.255 303.143 14.49 303.533 14.8C303.933 15.1 304.238 15.475 304.448 15.925C304.658 16.365 304.763 16.865 304.763 17.425C304.763 18.555 304.353 19.435 303.533 20.065C302.723 20.685 301.593 20.995 300.143 20.995C298.693 20.995 297.563 20.685 296.753 20.065C295.943 19.435 295.538 18.555 295.538 17.425C295.538 16.865 295.643 16.365 295.853 15.925C296.063 15.475 296.363 15.1 296.753 14.8C297.153 14.49 297.638 14.255 298.208 14.095C298.778 13.935 299.423 13.855 300.143 13.855ZM300.143 15.13C299.603 15.13 299.138 15.19 298.748 15.31C298.358 15.42 298.033 15.58 297.773 15.79C297.523 15.99 297.338 16.23 297.218 16.51C297.098 16.79 297.038 17.095 297.038 17.425C297.038 17.755 297.098 18.06 297.218 18.34C297.338 18.62 297.523 18.865 297.773 19.075C298.033 19.275 298.358 19.435 298.748 19.555C299.138 19.665 299.603 19.72 300.143 19.72C300.683 19.72 301.148 19.665 301.538 19.555C301.928 19.435 302.248 19.275 302.498 19.075C302.758 18.865 302.948 18.62 303.068 18.34C303.188 18.06 303.248 17.755 303.248 17.425C303.248 17.095 303.188 16.79 303.068 16.51C302.948 16.23 302.758 15.99 302.498 15.79C302.248 15.58 301.928 15.42 301.538 15.31C301.148 15.19 300.683 15.13 300.143 15.13ZM297.833 21.295C298.033 21.295 298.208 21.345 298.358 21.445C298.508 21.545 298.583 21.7 298.583 21.91V23.725H301.703V21.91C301.703 21.7 301.778 21.545 301.928 21.445C302.078 21.345 302.253 21.295 302.453 21.295C302.653 21.295 302.828 21.345 302.978 21.445C303.128 21.545 303.203 21.7 303.203 21.91V23.725H305.918C306.098 23.725 306.228 23.785 306.308 23.905C306.398 24.025 306.443 24.17 306.443 24.34C306.443 24.51 306.398 24.66 306.308 24.79C306.228 24.92 306.098 24.985 305.918 24.985H294.368C294.188 24.985 294.053 24.92 293.963 24.79C293.883 24.66 293.843 24.51 293.843 24.34C293.843 24.17 293.883 24.025 293.963 23.905C294.053 23.785 294.188 23.725 294.368 23.725H297.083V21.91C297.083 21.7 297.158 21.545 297.308 21.445C297.458 21.345 297.633 21.295 297.833 21.295ZM309.01 13.9C309.26 13.9 309.46 13.955 309.61 14.065C309.77 14.175 309.845 14.36 309.835 14.62L309.655 21.7C309.645 21.94 309.575 22.11 309.445 22.21C309.325 22.3 309.18 22.345 309.01 22.345C308.84 22.345 308.69 22.3 308.56 22.21C308.44 22.11 308.38 21.94 308.38 21.7L308.185 14.62C308.185 14.36 308.26 14.175 308.41 14.065C308.56 13.955 308.76 13.9 309.01 13.9ZM309.01 23.575C309.29 23.575 309.525 23.67 309.715 23.86C309.905 24.04 310 24.27 310 24.55C310 24.83 309.905 25.065 309.715 25.255C309.525 25.445 309.29 25.54 309.01 25.54C308.73 25.54 308.495 25.445 308.305 25.255C308.115 25.065 308.02 24.83 308.02 24.55C308.02 24.27 308.115 24.04 308.305 23.86C308.495 23.67 308.73 23.575 309.01 23.575Z" fill="#E97E76"/>
<path d="M151.258 40.095C151.698 40.095 151.998 40.175 152.158 40.335C152.328 40.495 152.413 40.79 152.413 41.22V42.3C152.413 42.82 152.348 43.265 152.218 43.635C152.088 43.995 151.828 44.345 151.438 44.685C151.058 45.025 150.513 45.38 149.803 45.75C149.093 46.12 148.158 46.57 146.998 47.1C146.828 47.18 146.658 47.18 146.488 47.1C146.328 47.02 146.208 46.895 146.128 46.725C146.058 46.585 146.033 46.425 146.053 46.245C146.083 46.055 146.198 45.92 146.398 45.84C147.438 45.37 148.258 44.98 148.858 44.67C149.458 44.36 149.908 44.085 150.208 43.845C150.518 43.595 150.713 43.35 150.793 43.11C150.873 42.86 150.913 42.57 150.913 42.24V41.7C150.913 41.59 150.888 41.51 150.838 41.46C150.798 41.41 150.718 41.385 150.598 41.385H146.713C146.533 41.385 146.398 41.325 146.308 41.205C146.228 41.075 146.188 40.925 146.188 40.755C146.188 40.575 146.228 40.42 146.308 40.29C146.398 40.16 146.533 40.095 146.713 40.095H151.258ZM155.608 39.33C155.808 39.33 155.983 39.38 156.133 39.48C156.283 39.58 156.358 39.74 156.358 39.96V42.495H158.008C158.208 42.495 158.348 42.56 158.428 42.69C158.518 42.82 158.563 42.97 158.563 43.14C158.563 43.33 158.518 43.49 158.428 43.62C158.348 43.74 158.208 43.8 158.008 43.8H156.358V46.515C156.358 46.735 156.283 46.895 156.133 46.995C155.983 47.095 155.808 47.145 155.608 47.145C155.408 47.145 155.233 47.095 155.083 46.995C154.933 46.895 154.858 46.735 154.858 46.515V39.96C154.858 39.74 154.933 39.58 155.083 39.48C155.233 39.38 155.408 39.33 155.608 39.33ZM155.203 47.79C155.643 47.79 155.943 47.87 156.103 48.03C156.273 48.19 156.358 48.485 156.358 48.915V51.96C156.358 52.39 156.273 52.685 156.103 52.845C155.943 53.005 155.643 53.085 155.203 53.085H148.903C148.463 53.085 148.158 53.005 147.988 52.845C147.828 52.685 147.748 52.39 147.748 51.96V48.915C147.748 48.485 147.828 48.19 147.988 48.03C148.158 47.87 148.463 47.79 148.903 47.79H155.203ZM149.548 49.05C149.338 49.05 149.233 49.155 149.233 49.365V51.51C149.233 51.72 149.338 51.825 149.548 51.825H154.558C154.768 51.825 154.873 51.72 154.873 51.51V49.365C154.873 49.155 154.768 49.05 154.558 49.05H149.548ZM163.216 40.035C163.416 40.035 163.591 40.085 163.741 40.185C163.901 40.285 163.981 40.445 163.981 40.665V42.9C163.981 43.22 164.001 43.51 164.041 43.77C164.081 44.02 164.146 44.26 164.236 44.49C164.336 44.72 164.461 44.945 164.611 45.165C164.761 45.385 164.951 45.615 165.181 45.855C165.481 46.175 165.776 46.485 166.066 46.785C166.366 47.075 166.646 47.34 166.906 47.58C167.056 47.71 167.116 47.865 167.086 48.045C167.066 48.225 166.996 48.38 166.876 48.51C166.766 48.63 166.616 48.705 166.426 48.735C166.246 48.765 166.086 48.715 165.946 48.585C165.486 48.155 164.971 47.64 164.401 47.04C164.181 46.82 164.001 46.625 163.861 46.455C163.721 46.285 163.606 46.14 163.516 46.02C163.426 45.89 163.356 45.78 163.306 45.69C163.266 45.6 163.241 45.515 163.231 45.435H163.216C163.196 45.525 163.166 45.62 163.126 45.72C163.086 45.81 163.021 45.92 162.931 46.05C162.841 46.18 162.726 46.33 162.586 46.5C162.446 46.66 162.266 46.85 162.046 47.07C161.756 47.37 161.471 47.66 161.191 47.94C160.911 48.21 160.611 48.495 160.291 48.795C160.131 48.935 159.961 48.985 159.781 48.945C159.601 48.895 159.456 48.805 159.346 48.675C159.226 48.535 159.161 48.38 159.151 48.21C159.141 48.04 159.206 47.885 159.346 47.745C159.686 47.425 160.016 47.11 160.336 46.8C160.656 46.49 160.966 46.175 161.266 45.855C161.486 45.615 161.671 45.385 161.821 45.165C161.971 44.945 162.091 44.72 162.181 44.49C162.281 44.26 162.351 44.02 162.391 43.77C162.431 43.51 162.451 43.22 162.451 42.9V40.665C162.451 40.445 162.526 40.285 162.676 40.185C162.836 40.085 163.016 40.035 163.216 40.035ZM169.036 39.33C169.236 39.33 169.411 39.38 169.561 39.48C169.711 39.58 169.786 39.74 169.786 39.96V43.86H171.436C171.636 43.86 171.776 43.925 171.856 44.055C171.946 44.175 171.991 44.325 171.991 44.505C171.991 44.685 171.946 44.84 171.856 44.97C171.776 45.1 171.636 45.165 171.436 45.165H169.786V51.66C169.786 51.88 169.711 52.04 169.561 52.14C169.411 52.24 169.236 52.29 169.036 52.29C168.836 52.29 168.661 52.24 168.511 52.14C168.361 52.04 168.286 51.88 168.286 51.66V39.96C168.286 39.74 168.361 39.58 168.511 39.48C168.661 39.38 168.836 39.33 169.036 39.33ZM176.613 42.585C177.613 42.585 178.393 42.795 178.953 43.215C179.523 43.625 179.808 44.19 179.808 44.91C179.808 45.63 179.523 46.2 178.953 46.62C178.393 47.04 177.613 47.25 176.613 47.25C175.613 47.25 174.828 47.04 174.258 46.62C173.698 46.2 173.418 45.63 173.418 44.91C173.418 44.19 173.698 43.625 174.258 43.215C174.828 42.795 175.613 42.585 176.613 42.585ZM176.613 39.03C176.813 39.03 176.988 39.08 177.138 39.18C177.288 39.28 177.363 39.44 177.363 39.66V40.575H180.048C180.228 40.575 180.358 40.64 180.438 40.77C180.528 40.89 180.573 41.035 180.573 41.205C180.573 41.375 180.528 41.525 180.438 41.655C180.358 41.775 180.228 41.835 180.048 41.835H173.028C172.848 41.835 172.713 41.775 172.623 41.655C172.543 41.525 172.503 41.375 172.503 41.205C172.503 41.035 172.543 40.89 172.623 40.77C172.713 40.64 172.848 40.575 173.028 40.575H175.863V39.66C175.863 39.44 175.938 39.28 176.088 39.18C176.248 39.08 176.423 39.03 176.613 39.03ZM176.613 43.74C176.013 43.74 175.553 43.85 175.233 44.07C174.923 44.28 174.768 44.56 174.768 44.91C174.768 45.26 174.923 45.545 175.233 45.765C175.553 45.975 176.013 46.08 176.613 46.08C177.223 46.08 177.683 45.975 177.993 45.765C178.303 45.545 178.458 45.26 178.458 44.91C178.458 44.56 178.303 44.28 177.993 44.07C177.683 43.85 177.223 43.74 176.613 43.74ZM182.463 39.33C182.663 39.33 182.838 39.38 182.988 39.48C183.138 39.58 183.213 39.74 183.213 39.96V42.735H184.878C185.068 42.735 185.203 42.8 185.283 42.93C185.373 43.06 185.418 43.21 185.418 43.38C185.418 43.56 185.373 43.715 185.283 43.845C185.203 43.975 185.068 44.04 184.878 44.04H183.213V46.68C183.213 46.89 183.138 47.045 182.988 47.145C182.838 47.245 182.663 47.295 182.463 47.295C182.273 47.295 182.103 47.245 181.953 47.145C181.803 47.045 181.728 46.89 181.728 46.68V39.96C181.728 39.74 181.803 39.58 181.953 39.48C182.103 39.38 182.273 39.33 182.463 39.33ZM175.323 47.955C175.503 47.955 175.668 48.005 175.818 48.105C175.968 48.195 176.043 48.34 176.043 48.54V49.545H181.758V48.54C181.758 48.34 181.833 48.195 181.983 48.105C182.143 48.005 182.308 47.955 182.478 47.955C182.668 47.955 182.838 48.005 182.988 48.105C183.138 48.195 183.213 48.34 183.213 48.54V51.96C183.213 52.39 183.128 52.685 182.958 52.845C182.798 53.005 182.498 53.085 182.058 53.085H175.758C175.318 53.085 175.013 53.005 174.843 52.845C174.683 52.685 174.603 52.39 174.603 51.96V48.54C174.603 48.34 174.678 48.195 174.828 48.105C174.978 48.005 175.143 47.955 175.323 47.955ZM176.043 51.66C176.043 51.81 176.123 51.885 176.283 51.885H181.533C181.683 51.885 181.758 51.81 181.758 51.66V50.73H176.043V51.66ZM187.625 40.2C187.825 40.2 188 40.25 188.15 40.35C188.3 40.45 188.375 40.615 188.375 40.845V47.205C188.375 47.415 188.48 47.52 188.69 47.52C189.73 47.52 190.68 47.495 191.54 47.445C192.4 47.385 193.235 47.3 194.045 47.19C194.215 47.17 194.35 47.215 194.45 47.325C194.56 47.435 194.625 47.575 194.645 47.745C194.665 47.925 194.64 48.09 194.57 48.24C194.51 48.38 194.395 48.46 194.225 48.48C193.875 48.53 193.495 48.575 193.085 48.615C192.685 48.655 192.235 48.69 191.735 48.72C191.235 48.75 190.68 48.775 190.07 48.795C189.46 48.805 188.775 48.81 188.015 48.81C187.575 48.81 187.275 48.73 187.115 48.57C186.955 48.41 186.875 48.115 186.875 47.685V40.845C186.875 40.615 186.95 40.45 187.1 40.35C187.25 40.25 187.425 40.2 187.625 40.2ZM196.52 39.33C196.72 39.33 196.895 39.38 197.045 39.48C197.205 39.58 197.285 39.74 197.285 39.96V51.66C197.285 51.88 197.205 52.04 197.045 52.14C196.895 52.24 196.72 52.29 196.52 52.29C196.33 52.29 196.155 52.24 195.995 52.14C195.845 52.04 195.77 51.88 195.77 51.66V39.96C195.77 39.74 195.845 39.58 195.995 39.48C196.155 39.38 196.33 39.33 196.52 39.33ZM205.973 40.335C206.153 40.335 206.283 40.4 206.363 40.53C206.453 40.66 206.498 40.815 206.498 40.995C206.498 41.165 206.453 41.315 206.363 41.445C206.283 41.565 206.153 41.625 205.973 41.625H201.773C201.563 41.625 201.458 41.73 201.458 41.94V47.25C201.458 47.46 201.563 47.565 201.773 47.565C202.763 47.565 203.683 47.54 204.533 47.49C205.383 47.43 206.213 47.345 207.023 47.235C207.193 47.215 207.328 47.26 207.428 47.37C207.538 47.48 207.603 47.62 207.623 47.79C207.643 47.97 207.618 48.135 207.548 48.285C207.488 48.425 207.373 48.505 207.203 48.525C206.853 48.575 206.473 48.62 206.063 48.66C205.663 48.7 205.218 48.735 204.728 48.765C204.238 48.795 203.693 48.82 203.093 48.84C202.503 48.85 201.843 48.855 201.113 48.855C200.673 48.855 200.368 48.775 200.198 48.615C200.038 48.455 199.958 48.16 199.958 47.73V41.46C199.958 41.03 200.038 40.735 200.198 40.575C200.368 40.415 200.673 40.335 201.113 40.335H205.973ZM209.318 39.33C209.518 39.33 209.693 39.38 209.843 39.48C209.993 39.58 210.068 39.74 210.068 39.96V43.86H211.718C211.918 43.86 212.058 43.925 212.138 44.055C212.228 44.175 212.273 44.325 212.273 44.505C212.273 44.685 212.228 44.84 212.138 44.97C212.058 45.1 211.918 45.165 211.718 45.165H210.068V51.66C210.068 51.88 209.993 52.04 209.843 52.14C209.693 52.24 209.518 52.29 209.318 52.29C209.118 52.29 208.943 52.24 208.793 52.14C208.643 52.04 208.568 51.88 208.568 51.66V39.96C208.568 39.74 208.643 39.58 208.793 39.48C208.943 39.38 209.118 39.33 209.318 39.33ZM214.57 39.9C214.82 39.9 215.02 39.955 215.17 40.065C215.33 40.175 215.405 40.36 215.395 40.62L215.215 47.7C215.205 47.94 215.135 48.11 215.005 48.21C214.885 48.3 214.74 48.345 214.57 48.345C214.4 48.345 214.25 48.3 214.12 48.21C214 48.11 213.94 47.94 213.94 47.7L213.745 40.62C213.745 40.36 213.82 40.175 213.97 40.065C214.12 39.955 214.32 39.9 214.57 39.9ZM214.57 49.575C214.85 49.575 215.085 49.67 215.275 49.86C215.465 50.04 215.56 50.27 215.56 50.55C215.56 50.83 215.465 51.065 215.275 51.255C215.085 51.445 214.85 51.54 214.57 51.54C214.29 51.54 214.055 51.445 213.865 51.255C213.675 51.065 213.58 50.83 213.58 50.55C213.58 50.27 213.675 50.04 213.865 49.86C214.055 49.67 214.29 49.575 214.57 49.575Z" fill="#E97E76"/>
<line x1="-4.37114e-08" y1="2.5" x2="363" y2="2.49997" stroke="#F08F7D"/>
<line x1="-4.37114e-08" y1="66.5" x2="363" y2="66.5" stroke="#EC877A"/>
<defs>
<linearGradient id="paint0_linear" x1="363" y1="35" x2="-3.04455e-07" y2="35" gradientUnits="userSpaceOnUse">
<stop stop-color="white" stop-opacity="0"/>
<stop offset="0.114583" stop-color="white"/>
<stop offset="0.869792" stop-color="white"/>
<stop offset="1" stop-color="white" stop-opacity="0"/>
</linearGradient>
</defs>
</svg>
