<svg width="28" height="28" viewBox="0 0 28 28" fill="none" xmlns="http://www.w3.org/2000/svg">
<g filter="url(#filter0_d)">
<path fill-rule="evenodd" clip-rule="evenodd" d="M23.6333 0.367142C23.7497 0.483227 23.842 0.621131 23.905 0.772955C23.968 0.92478 24.0005 1.08754 24.0005 1.25192C24.0005 1.4163 23.968 1.57906 23.905 1.73088C23.842 1.88271 23.7497 2.02061 23.6333 2.1367L6.13775 19.6323C5.90309 19.8669 5.58483 19.9988 5.25297 19.9988C4.92112 19.9988 4.60285 19.8669 4.3682 19.6323C4.13354 19.3976 4.00171 19.0794 4.00171 18.7475C4.00171 18.4156 4.13354 18.0974 4.3682 17.8627L21.8638 0.367142C21.9799 0.250763 22.1178 0.158429 22.2696 0.0954286C22.4214 0.0324284 22.5842 0 22.7486 0C22.9129 0 23.0757 0.0324284 23.2275 0.0954286C23.3793 0.158429 23.5173 0.250763 23.6333 0.367142Z" fill="#E26C67"/>
<path fill-rule="evenodd" clip-rule="evenodd" d="M4.36714 0.367142C4.25076 0.483227 4.15843 0.621131 4.09543 0.772955C4.03243 0.92478 4 1.08754 4 1.25192C4 1.4163 4.03243 1.57906 4.09543 1.73088C4.15843 1.88271 4.25076 2.02061 4.36714 2.1367L21.8627 19.6323C22.0974 19.8669 22.4156 19.9988 22.7475 19.9988C23.0794 19.9988 23.3976 19.8669 23.6323 19.6323C23.8669 19.3976 23.9988 19.0794 23.9988 18.7475C23.9988 18.4156 23.8669 18.0974 23.6323 17.8627L6.1367 0.367142C6.02061 0.250763 5.88271 0.158429 5.73088 0.0954286C5.57906 0.0324284 5.4163 0 5.25192 0C5.08754 0 4.92478 0.0324284 4.77296 0.0954286C4.62113 0.158429 4.48323 0.250763 4.36714 0.367142Z" fill="#E26C67"/>
</g>
<defs>
<filter id="filter0_d" x="0" y="0" width="28.0005" height="27.9988" filterUnits="userSpaceOnUse" color-interpolation-filters="sRGB">
<feFlood flood-opacity="0" result="BackgroundImageFix"/>
<feColorMatrix in="SourceAlpha" type="matrix" values="0 0 0 0 0 0 0 0 0 0 0 0 0 0 0 0 0 0 127 0"/>
<feOffset dy="4"/>
<feGaussianBlur stdDeviation="2"/>
<feColorMatrix type="matrix" values="0 0 0 0 0 0 0 0 0 0 0 0 0 0 0 0 0 0 0.25 0"/>
<feBlend mode="normal" in2="BackgroundImageFix" result="effect1_dropShadow"/>
<feBlend mode="normal" in="SourceGraphic" in2="effect1_dropShadow" result="shape"/>
</filter>
</defs>
</svg>
