<svg width="127" height="76" viewBox="0 0 127 76" fill="none" xmlns="http://www.w3.org/2000/svg">
<g filter="url(#filter0_d)">
<rect x="4" width="119" height="68" fill="white"/>
</g>
<path d="M96 32L79 0H123V68H79L96 32Z" fill="#E26C67"/>
<path d="M26.2454 30.032H21.3494V27.608H26.6774L27.3974 23H15.5894V41H21.3494V34.328H26.2454V30.032ZM41.3523 35L44.4723 41H38.1363L35.7843 35.648H34.5363V41H28.7763V23H37.8483C41.9763 23 44.0403 25.104 44.0403 29.312C44.0403 32.192 43.1443 34.088 41.3523 35ZM35.8563 27.608H34.5363V31.208H35.8563C36.5603 31.208 37.0643 31.136 37.3683 30.992C37.6883 30.848 37.8483 30.52 37.8483 30.008V28.808C37.8483 28.296 37.6883 27.968 37.3683 27.824C37.0643 27.68 36.5603 27.608 35.8563 27.608ZM57.655 30.032H51.895V27.608H58.087L58.807 23H46.135V41H58.951V36.392H51.895V34.208H57.655V30.032ZM72.5528 30.032H66.7928V27.608H72.9848L73.7048 23H61.0328V41H73.8488V36.392H66.7928V34.208H72.5528V30.032Z" fill="#E26C67"/>
<rect x="4" width="119" height="68" fill="black" fill-opacity="0.4"/>
<path d="M51.8773 29.696H53.6773V33.296H51.8773V41H47.3653V22.76H51.8773V29.696ZM42.9493 27.296C42.9493 30.208 43.2293 32.408 43.7893 33.896C44.3653 35.384 45.2053 36.312 46.3093 36.68L44.8693 40.28C44.1493 40.152 43.4213 39.8 42.6853 39.224C41.9653 38.648 41.3173 37.864 40.7413 36.872C40.1333 37.864 39.4613 38.648 38.7253 39.224C38.0053 39.8 37.2773 40.152 36.5413 40.28L35.1013 36.68C36.2213 36.296 37.0773 35.36 37.6693 33.872C38.2773 32.368 38.5813 30.176 38.5813 27.296V23H42.9493V27.296ZM72.0481 30.56V33.464H54.7681V30.56H57.5521V29.552C56.8481 29.328 56.2881 28.944 55.8721 28.4C55.4561 27.84 55.2481 27.168 55.2481 26.384C55.2481 25.344 55.5921 24.52 56.2801 23.912C56.9841 23.304 57.8961 23 59.0161 23H67.8001C68.9201 23 69.8241 23.304 70.5121 23.912C71.2161 24.52 71.5681 25.344 71.5681 26.384C71.5681 27.168 71.3601 27.84 70.9441 28.4C70.5281 28.944 69.9681 29.328 69.2641 29.552V30.56H72.0481ZM60.2161 25.928C60.0881 25.928 59.9761 25.976 59.8801 26.072C59.8001 26.152 59.7601 26.256 59.7601 26.384C59.7601 26.512 59.8001 26.624 59.8801 26.72C59.9761 26.8 60.0881 26.84 60.2161 26.84H66.6001C66.7281 26.84 66.8321 26.8 66.9121 26.72C67.0081 26.624 67.0561 26.512 67.0561 26.384C67.0561 26.256 67.0081 26.152 66.9121 26.072C66.8321 25.976 66.7281 25.928 66.6001 25.928H60.2161ZM62.0641 29.768V30.56H64.7521V29.768H62.0641ZM67.8001 34.232C69.0001 34.232 69.9281 34.528 70.5841 35.12C71.2401 35.696 71.5681 36.528 71.5681 37.616C71.5681 38.704 71.2401 39.544 70.5841 40.136C69.9281 40.712 69.0001 41 67.8001 41H59.0161C57.8161 41 56.8881 40.712 56.2321 40.136C55.5761 39.544 55.2481 38.704 55.2481 37.616C55.2481 36.528 55.5761 35.696 56.2321 35.12C56.8881 34.528 57.8161 34.232 59.0161 34.232H67.8001ZM66.6001 38.072C66.9041 38.072 67.0561 37.92 67.0561 37.616C67.0561 37.312 66.9041 37.16 66.6001 37.16H60.2161C59.9121 37.16 59.7601 37.312 59.7601 37.616C59.7601 37.92 59.9121 38.072 60.2161 38.072H66.6001ZM91.4124 22.712L91.3884 33.608H86.9004V22.712H91.4124ZM86.1804 30.536V33.392H74.5644V30.536H78.1164V29.72H75.0444V22.952H84.9804V25.928H79.5564V26.744H85.4604V29.72H82.6284V30.536H86.1804ZM75.0444 41V34.208H91.4124V41H75.0444ZM79.5564 37.184V38H86.9004V37.184H79.5564Z" fill="white"/>
<defs>
<filter id="filter0_d" x="0" y="0" width="127" height="76" filterUnits="userSpaceOnUse" color-interpolation-filters="sRGB">
<feFlood flood-opacity="0" result="BackgroundImageFix"/>
<feColorMatrix in="SourceAlpha" type="matrix" values="0 0 0 0 0 0 0 0 0 0 0 0 0 0 0 0 0 0 127 0"/>
<feOffset dy="4"/>
<feGaussianBlur stdDeviation="2"/>
<feColorMatrix type="matrix" values="0 0 0 0 0 0 0 0 0 0 0 0 0 0 0 0 0 0 0.25 0"/>
<feBlend mode="normal" in2="BackgroundImageFix" result="effect1_dropShadow"/>
<feBlend mode="normal" in="SourceGraphic" in2="effect1_dropShadow" result="shape"/>
</filter>
</defs>
</svg>
