<svg width="127" height="76" viewBox="0 0 127 76" fill="none" xmlns="http://www.w3.org/2000/svg">
<g filter="url(#filter0_d)">
<rect x="4" width="119" height="68" fill="white"/>
</g>
<path d="M96 32L79 0H123V68H79L96 32Z" fill="#E26C67"/>
<path d="M26.2454 30.032H21.3494V27.608H26.6774L27.3974 23H15.5894V41H21.3494V34.328H26.2454V30.032ZM41.3523 35L44.4723 41H38.1363L35.7843 35.648H34.5363V41H28.7763V23H37.8483C41.9763 23 44.0403 25.104 44.0403 29.312C44.0403 32.192 43.1443 34.088 41.3523 35ZM35.8563 27.608H34.5363V31.208H35.8563C36.5603 31.208 37.0643 31.136 37.3683 30.992C37.6883 30.848 37.8483 30.52 37.8483 30.008V28.808C37.8483 28.296 37.6883 27.968 37.3683 27.824C37.0643 27.68 36.5603 27.608 35.8563 27.608ZM57.655 30.032H51.895V27.608H58.087L58.807 23H46.135V41H58.951V36.392H51.895V34.208H57.655V30.032ZM72.5528 30.032H66.7928V27.608H72.9848L73.7048 23H61.0328V41H73.8488V36.392H66.7928V34.208H72.5528V30.032Z" fill="#E26C67"/>
<rect x="4" width="119" height="68" fill="black" fill-opacity="0.4"/>
<path d="M51.6011 22.76H47.0891V35.096H51.6011V30.416H53.4011V26.816H51.6011V22.76ZM34.7531 33.776H45.4571V22.952H34.7531V33.776ZM39.2651 30.176V26.576H40.9451V30.176H39.2651ZM35.2331 34.856V41L51.6011 40.976V37.376H39.7451V34.856H35.2331ZM71.3991 31.088V34.28H54.9591V27.032H66.8631V26.192H54.9591V23H71.3991V30.224H59.4951V31.088H71.3991ZM69.2871 36.848H71.8791V40.28H54.4791V36.848H57.0951V35.144H61.6071V36.848H64.7751V35.144H69.2871V36.848ZM91.2405 22.712L91.2165 33.608H86.7285V22.712H91.2405ZM86.0085 30.536V33.392H74.3925V30.536H77.9445V29.72H74.8725V22.952H84.8085V25.928H79.3845V26.744H85.2885V29.72H82.4565V30.536H86.0085ZM74.8725 41V34.208H91.2405V41H74.8725ZM79.3845 37.184V38H86.7285V37.184H79.3845Z" fill="white"/>
<defs>
<filter id="filter0_d" x="0" y="0" width="127" height="76" filterUnits="userSpaceOnUse" color-interpolation-filters="sRGB">
<feFlood flood-opacity="0" result="BackgroundImageFix"/>
<feColorMatrix in="SourceAlpha" type="matrix" values="0 0 0 0 0 0 0 0 0 0 0 0 0 0 0 0 0 0 127 0"/>
<feOffset dy="4"/>
<feGaussianBlur stdDeviation="2"/>
<feColorMatrix type="matrix" values="0 0 0 0 0 0 0 0 0 0 0 0 0 0 0 0 0 0 0.25 0"/>
<feBlend mode="normal" in2="BackgroundImageFix" result="effect1_dropShadow"/>
<feBlend mode="normal" in="SourceGraphic" in2="effect1_dropShadow" result="shape"/>
</filter>
</defs>
</svg>
