<svg width="83" height="24" viewBox="0 0 83 24" fill="none" xmlns="http://www.w3.org/2000/svg">
<path d="M3.51967 4.01449L9.88967 2.12449C11.7497 1.57449 13.7097 2.63448 14.2597 4.49448L16.1497 10.8645C16.6997 12.7245 15.6397 14.6845 13.7797 15.2345L7.40967 17.1245C5.54967 17.6745 3.58966 16.6145 3.03966 14.7545L1.14966 8.38448C0.589664 6.52448 1.64967 4.56449 3.51967 4.01449Z" fill="#FF5A5A" fill-opacity="0.3" stroke="#FF5A5A" stroke-miterlimit="10"/>
<path d="M53.6996 1.03438L60.2796 1.94438C62.2096 2.21438 63.5496 3.98437 63.2896 5.91437L62.3796 12.4944C62.1096 14.4244 60.3396 15.7644 58.4096 15.5044L51.8296 14.5944C49.8996 14.3244 48.5596 12.5544 48.8196 10.6244L49.7296 4.04437C49.9996 2.11437 51.7796 0.764377 53.6996 1.03438Z" fill="#FF5A5A" fill-opacity="0.3" stroke="#FF5A5A" stroke-miterlimit="10"/>
<path d="M75.4195 2.19446L80.6495 6.28445C82.1795 7.48445 82.4495 9.69445 81.2595 11.2245L77.1695 16.4544C75.9695 17.9844 73.7595 18.2545 72.2295 17.0645L66.9995 12.9745C65.4695 11.7745 65.1995 9.56445 66.3895 8.03445L70.4795 2.80444C71.6695 1.26444 73.8795 0.994456 75.4195 2.19446Z" fill="#FF5A5A" fill-opacity="0.3" stroke="#FF5A5A" stroke-miterlimit="10"/>
<path d="M34.4597 1.42432H41.0997C43.0397 1.42432 44.6197 3.00432 44.6197 4.94432V11.5843C44.6197 13.5243 43.0397 15.1043 41.0997 15.1043H34.4597C32.5197 15.1043 30.9397 13.5243 30.9397 11.5843V4.94432C30.9397 2.99432 32.5097 1.42432 34.4597 1.42432Z" fill="#FF5A5A" fill-opacity="0.3" stroke="#FF5A5A" stroke-miterlimit="10"/>
<path d="M24.4996 7.66444L29.7296 11.7544C31.2596 12.9544 31.5296 15.1645 30.3396 16.6945L26.2496 21.9244C25.0496 23.4544 22.8396 23.7244 21.3096 22.5344L16.0796 18.4445C14.5496 17.2445 14.2796 15.0344 15.4696 13.5044L19.5596 8.27444C20.7596 6.74444 22.9696 6.47444 24.4996 7.66444Z" fill="#FF5A5A" fill-opacity="0.3" stroke="#FF5A5A" stroke-miterlimit="10"/>
<path d="M8.02974 6.63428C8.66974 6.63428 8.66974 5.63428 8.02974 5.63428C7.37974 5.63428 7.37974 6.63428 8.02974 6.63428Z" fill="#FF5A5A"/>
<path d="M5.74978 10.8545C6.38978 10.8545 6.38978 9.85449 5.74978 9.85449C5.10978 9.85449 5.10978 10.8545 5.74978 10.8545Z" fill="#FF5A5A"/>
<path d="M11.9297 10.2043C12.5697 10.2043 12.5697 9.20435 11.9297 9.20435C11.2897 9.20435 11.2897 10.2043 11.9297 10.2043Z" fill="#FF5A5A"/>
<path d="M10.9497 14.6543C11.5897 14.6543 11.5897 13.6543 10.9497 13.6543C10.3097 13.6543 10.3097 14.6543 10.9497 14.6543Z" fill="#FF5A5A"/>
<path d="M22.4496 17.0444C23.0896 17.0444 23.0896 16.0444 22.4496 16.0444C21.8096 16.0444 21.7996 17.0444 22.4496 17.0444Z" fill="#FF5A5A"/>
<path d="M22.4496 21.0544C23.0896 21.0544 23.0896 20.0544 22.4496 20.0544C21.8096 20.0544 21.7996 21.0544 22.4496 21.0544Z" fill="#FF5A5A"/>
<path d="M36.6497 14.0044C37.2897 14.0044 37.2897 13.0044 36.6497 13.0044C36.0097 13.0044 36.0097 14.0044 36.6497 14.0044Z" fill="#FF5A5A"/>
<path d="M39.0397 4.13428C39.6797 4.13428 39.6797 3.13428 39.0397 3.13428C38.3997 3.13428 38.3897 4.13428 39.0397 4.13428Z" fill="#FF5A5A"/>
<path d="M35.8897 4.67432C36.5297 4.67432 36.5297 3.67432 35.8897 3.67432C35.2497 3.67432 35.2497 4.67432 35.8897 4.67432Z" fill="#FF5A5A"/>
<path d="M55.6298 9.55444C56.2698 9.55444 56.2698 8.55444 55.6298 8.55444C54.9898 8.55444 54.9798 9.55444 55.6298 9.55444Z" fill="#FF5A5A"/>
<path d="M60.2896 7.06445C60.9296 7.06445 60.9296 6.06445 60.2896 6.06445C59.6496 6.06445 59.6496 7.06445 60.2896 7.06445Z" fill="#FF5A5A"/>
<path d="M59.4197 12.4844C60.0597 12.4844 60.0597 11.4844 59.4197 11.4844C58.7797 11.4844 58.7797 12.4844 59.4197 12.4844Z" fill="#FF5A5A"/>
<path d="M52.4798 6.30444C53.1198 6.30444 53.1198 5.30444 52.4798 5.30444C51.8398 5.30444 51.8398 6.30444 52.4798 6.30444Z" fill="#FF5A5A"/>
<path d="M74.0596 8.14429C74.6996 8.14429 74.6996 7.14429 74.0596 7.14429C73.4196 7.14429 73.4196 8.14429 74.0596 8.14429Z" fill="#FF5A5A"/>
<path d="M69.6196 11.8345C70.2596 11.8345 70.2596 10.8345 69.6196 10.8345C68.9696 10.8345 68.9696 11.8345 69.6196 11.8345Z" fill="#FF5A5A"/>
<path d="M76.6696 11.7244C77.3096 11.7244 77.3096 10.7244 76.6696 10.7244C76.0196 10.7244 76.0196 11.7244 76.6696 11.7244Z" fill="#FF5A5A"/>
<path d="M74.6096 14.8743C75.2496 14.8743 75.2496 13.8743 74.6096 13.8743C73.9596 13.8743 73.9596 14.8743 74.6096 14.8743Z" fill="#FF5A5A"/>
<path d="M26.3496 14.8743C26.9896 14.8743 26.9896 13.8743 26.3496 13.8743C25.7096 13.8743 25.7096 14.8743 26.3496 14.8743Z" fill="#FF5A5A"/>
</svg>
