<svg width="127" height="76" viewBox="0 0 127 76" fill="none" xmlns="http://www.w3.org/2000/svg">
<g filter="url(#filter0_d)">
<rect x="4" width="119" height="68" fill="white"/>
</g>
<path d="M96 32L79 0H123V68H79L96 32Z" fill="#E26C67"/>
<path d="M34.6816 38.24H30.6496V21.5H24.9616L16.6816 23.372V29.132L23.0896 28.7V38.24H16.6816V44H34.6816V38.24ZM46.6916 27.8V24.02H41.2916V27.8H37.5116V33.2H41.2916V36.98H46.6916V33.2H50.4716V27.8H46.6916ZM72.4844 38.24H68.4524V21.5H62.7644L54.4844 23.372V29.132L60.8924 28.7V38.24H54.4844V44H72.4844V38.24Z" fill="#E26C67"/>
<defs>
<filter id="filter0_d" x="0" y="0" width="127" height="76" filterUnits="userSpaceOnUse" color-interpolation-filters="sRGB">
<feFlood flood-opacity="0" result="BackgroundImageFix"/>
<feColorMatrix in="SourceAlpha" type="matrix" values="0 0 0 0 0 0 0 0 0 0 0 0 0 0 0 0 0 0 127 0"/>
<feOffset dy="4"/>
<feGaussianBlur stdDeviation="2"/>
<feColorMatrix type="matrix" values="0 0 0 0 0 0 0 0 0 0 0 0 0 0 0 0 0 0 0.25 0"/>
<feBlend mode="normal" in2="BackgroundImageFix" result="effect1_dropShadow"/>
<feBlend mode="normal" in="SourceGraphic" in2="effect1_dropShadow" result="shape"/>
</filter>
</defs>
</svg>
