<svg width="127" height="76" viewBox="0 0 127 76" fill="none" xmlns="http://www.w3.org/2000/svg">
<g filter="url(#filter0_d)">
<rect x="4" width="119" height="68" fill="white"/>
</g>
<path d="M96 32L79 0H123V68H79L96 32Z" fill="#E26C67"/>
<path d="M34.6816 38.24H30.6496V21.5H24.9616L16.6816 23.372V29.132L23.0896 28.7V38.24H16.6816V44H34.6816V38.24ZM46.6916 27.8V24.02H41.2916V27.8H37.5116V33.2H41.2916V36.98H46.6916V33.2H50.4716V27.8H46.6916ZM72.4844 38.24H68.4524V21.5H62.7644L54.4844 23.372V29.132L60.8924 28.7V38.24H54.4844V44H72.4844V38.24Z" fill="#E26C67"/>
<rect x="4" width="119" height="68" fill="black" fill-opacity="0.4"/>
<path d="M52.8773 29.696H54.6773V33.296H52.8773V41H48.3653V22.76H52.8773V29.696ZM43.9493 27.296C43.9493 30.208 44.2293 32.408 44.7893 33.896C45.3653 35.384 46.2053 36.312 47.3093 36.68L45.8693 40.28C45.1493 40.152 44.4213 39.8 43.6853 39.224C42.9653 38.648 42.3173 37.864 41.7413 36.872C41.1333 37.864 40.4613 38.648 39.7253 39.224C39.0053 39.8 38.2773 40.152 37.5413 40.28L36.1013 36.68C37.2213 36.296 38.0773 35.36 38.6693 33.872C39.2773 32.368 39.5813 30.176 39.5813 27.296V23H43.9493V27.296ZM73.0481 30.56V33.464H55.7681V30.56H58.5521V29.552C57.8481 29.328 57.2881 28.944 56.8721 28.4C56.4561 27.84 56.2481 27.168 56.2481 26.384C56.2481 25.344 56.5921 24.52 57.2801 23.912C57.9841 23.304 58.8961 23 60.0161 23H68.8001C69.9201 23 70.8241 23.304 71.5121 23.912C72.2161 24.52 72.5681 25.344 72.5681 26.384C72.5681 27.168 72.3601 27.84 71.9441 28.4C71.5281 28.944 70.9681 29.328 70.2641 29.552V30.56H73.0481ZM61.2161 25.928C61.0881 25.928 60.9761 25.976 60.8801 26.072C60.8001 26.152 60.7601 26.256 60.7601 26.384C60.7601 26.512 60.8001 26.624 60.8801 26.72C60.9761 26.8 61.0881 26.84 61.2161 26.84H67.6001C67.7281 26.84 67.8321 26.8 67.9121 26.72C68.0081 26.624 68.0561 26.512 68.0561 26.384C68.0561 26.256 68.0081 26.152 67.9121 26.072C67.8321 25.976 67.7281 25.928 67.6001 25.928H61.2161ZM63.0641 29.768V30.56H65.7521V29.768H63.0641ZM68.8001 34.232C70.0001 34.232 70.9281 34.528 71.5841 35.12C72.2401 35.696 72.5681 36.528 72.5681 37.616C72.5681 38.704 72.2401 39.544 71.5841 40.136C70.9281 40.712 70.0001 41 68.8001 41H60.0161C58.8161 41 57.8881 40.712 57.2321 40.136C56.5761 39.544 56.2481 38.704 56.2481 37.616C56.2481 36.528 56.5761 35.696 57.2321 35.12C57.8881 34.528 58.8161 34.232 60.0161 34.232H68.8001ZM67.6001 38.072C67.9041 38.072 68.0561 37.92 68.0561 37.616C68.0561 37.312 67.9041 37.16 67.6001 37.16H61.2161C60.9121 37.16 60.7601 37.312 60.7601 37.616C60.7601 37.92 60.9121 38.072 61.2161 38.072H67.6001ZM92.4124 22.712L92.3884 33.608H87.9004V22.712H92.4124ZM87.1804 30.536V33.392H75.5644V30.536H79.1164V29.72H76.0444V22.952H85.9804V25.928H80.5564V26.744H86.4604V29.72H83.6284V30.536H87.1804ZM76.0444 41V34.208H92.4124V41H76.0444ZM80.5564 37.184V38H87.9004V37.184H80.5564Z" fill="white"/>
<defs>
<filter id="filter0_d" x="0" y="0" width="127" height="76" filterUnits="userSpaceOnUse" color-interpolation-filters="sRGB">
<feFlood flood-opacity="0" result="BackgroundImageFix"/>
<feColorMatrix in="SourceAlpha" type="matrix" values="0 0 0 0 0 0 0 0 0 0 0 0 0 0 0 0 0 0 127 0"/>
<feOffset dy="4"/>
<feGaussianBlur stdDeviation="2"/>
<feColorMatrix type="matrix" values="0 0 0 0 0 0 0 0 0 0 0 0 0 0 0 0 0 0 0.25 0"/>
<feBlend mode="normal" in2="BackgroundImageFix" result="effect1_dropShadow"/>
<feBlend mode="normal" in="SourceGraphic" in2="effect1_dropShadow" result="shape"/>
</filter>
</defs>
</svg>
