<svg width="127" height="76" viewBox="0 0 127 76" fill="none" xmlns="http://www.w3.org/2000/svg">
<g filter="url(#filter0_d)">
<rect x="4" width="119" height="68" fill="white"/>
</g>
<path d="M96 32L79 0H123V68H79L96 32Z" fill="#E26C67"/>
<path d="M34.6816 38.24H30.6496V21.5H24.9616L16.6816 23.372V29.132L23.0896 28.7V38.24H16.6816V44H34.6816V38.24ZM46.6916 27.8V24.02H41.2916V27.8H37.5116V33.2H41.2916V36.98H46.6916V33.2H50.4716V27.8H46.6916ZM72.4844 38.24H68.4524V21.5H62.7644L54.4844 23.372V29.132L60.8924 28.7V38.24H54.4844V44H72.4844V38.24Z" fill="#E26C67"/>
<rect x="4" width="119" height="68" fill="black" fill-opacity="0.4"/>
<path d="M52.6011 22.76H48.0891V35.096H52.6011V30.416H54.4011V26.816H52.6011V22.76ZM35.7531 33.776H46.4571V22.952H35.7531V33.776ZM40.2651 30.176V26.576H41.9451V30.176H40.2651ZM36.2331 34.856V41L52.6011 40.976V37.376H40.7451V34.856H36.2331ZM72.3991 31.088V34.28H55.9591V27.032H67.8631V26.192H55.9591V23H72.3991V30.224H60.4951V31.088H72.3991ZM70.2871 36.848H72.8791V40.28H55.4791V36.848H58.0951V35.144H62.6071V36.848H65.7751V35.144H70.2871V36.848ZM92.2405 22.712L92.2165 33.608H87.7285V22.712H92.2405ZM87.0085 30.536V33.392H75.3925V30.536H78.9445V29.72H75.8725V22.952H85.8085V25.928H80.3845V26.744H86.2885V29.72H83.4565V30.536H87.0085ZM75.8725 41V34.208H92.2405V41H75.8725ZM80.3845 37.184V38H87.7285V37.184H80.3845Z" fill="white"/>
<defs>
<filter id="filter0_d" x="0" y="0" width="127" height="76" filterUnits="userSpaceOnUse" color-interpolation-filters="sRGB">
<feFlood flood-opacity="0" result="BackgroundImageFix"/>
<feColorMatrix in="SourceAlpha" type="matrix" values="0 0 0 0 0 0 0 0 0 0 0 0 0 0 0 0 0 0 127 0"/>
<feOffset dy="4"/>
<feGaussianBlur stdDeviation="2"/>
<feColorMatrix type="matrix" values="0 0 0 0 0 0 0 0 0 0 0 0 0 0 0 0 0 0 0.25 0"/>
<feBlend mode="normal" in2="BackgroundImageFix" result="effect1_dropShadow"/>
<feBlend mode="normal" in="SourceGraphic" in2="effect1_dropShadow" result="shape"/>
</filter>
</defs>
</svg>
