<svg width="57" height="54" viewBox="0 0 57 54" fill="none" xmlns="http://www.w3.org/2000/svg">
<g filter="url(#filter0_d)">
<rect x="11.8" y="22.8" width="32.4" height="5.4" fill="white"/>
<path d="M28 3.60001L33.7158 27.9H22.2843L28 3.60001Z" fill="white"/>
<path d="M49.9 11.4L44.5158 27.9H33.0842L49.9 11.4Z" fill="white"/>
<path d="M39.7315 7.8V25.2L28 21.9L39.7315 7.8Z" fill="white"/>
<path d="M16 7.8V25.2L27.7315 21.9L16 7.8Z" fill="white"/>
<path d="M6.39999 11.4L11.7842 27.9H23.2158L6.39999 11.4Z" fill="white"/>
<circle cx="51.1" cy="9.3" r="1.5" fill="white"/>
<circle cx="5.5" cy="9.3" r="1.5" fill="white"/>
<circle cx="15.7" cy="5.7" r="1.5" fill="white"/>
<circle cx="28" cy="1.5" r="1.5" fill="white"/>
<circle cx="40.3" cy="5.7" r="1.5" fill="white"/>
<path d="M19.5452 32.185C19.9352 32.185 20.2052 32.26 20.3552 32.41C20.5052 32.55 20.5802 32.81 20.5802 33.19V35.02C20.5802 35.4 20.5052 35.665 20.3552 35.815C20.2052 35.955 19.9352 36.025 19.5452 36.025H16.8602C16.6702 36.025 16.5752 36.12 16.5752 36.31V37.795C16.5752 37.985 16.6702 38.08 16.8602 38.08C17.2302 38.08 17.6102 38.075 18.0002 38.065C18.3902 38.045 18.7702 38.025 19.1402 38.005C19.5202 37.985 19.8802 37.96 20.2202 37.93C20.5702 37.89 20.8902 37.845 21.1802 37.795C21.2902 37.775 21.3852 37.805 21.4652 37.885C21.5452 37.955 21.5952 38.06 21.6152 38.2C21.6352 38.33 21.6152 38.45 21.5552 38.56C21.5052 38.66 21.4202 38.72 21.3002 38.74C20.8502 38.82 20.2102 38.885 19.3802 38.935C18.5602 38.985 17.6152 39.01 16.5452 39.01C16.1552 39.01 15.8852 38.94 15.7352 38.8C15.5852 38.65 15.5102 38.385 15.5102 38.005V36.13C15.5102 35.75 15.5852 35.49 15.7352 35.35C15.8852 35.2 16.1552 35.125 16.5452 35.125H19.2302C19.3402 35.125 19.4152 35.11 19.4552 35.08C19.4952 35.04 19.5152 34.965 19.5152 34.855V33.4C19.5152 33.21 19.4202 33.115 19.2302 33.115H15.8852C15.7452 33.115 15.6452 33.07 15.5852 32.98C15.5352 32.89 15.5102 32.78 15.5102 32.65C15.5102 32.52 15.5352 32.41 15.5852 32.32C15.6452 32.23 15.7452 32.185 15.8852 32.185H19.5452ZM26.0702 31.39C26.2102 31.39 26.3302 31.425 26.4302 31.495C26.5402 31.565 26.5952 31.675 26.5952 31.825V39.67C26.5952 39.82 26.5402 39.93 26.4302 40C26.3302 40.06 26.2102 40.09 26.0702 40.09C25.9402 40.09 25.8202 40.06 25.7102 40C25.6102 39.93 25.5602 39.82 25.5602 39.67V35.995H23.5652V39.04C23.5652 39.19 23.5102 39.3 23.4002 39.37C23.3002 39.43 23.1802 39.46 23.0402 39.46C22.9102 39.46 22.7902 39.43 22.6802 39.37C22.5802 39.3 22.5302 39.19 22.5302 39.04V31.9C22.5302 31.75 22.5802 31.64 22.6802 31.57C22.7902 31.5 22.9102 31.465 23.0402 31.465C23.1802 31.465 23.3002 31.5 23.4002 31.57C23.5102 31.64 23.5652 31.75 23.5652 31.9V35.05H25.5602V31.825C25.5602 31.675 25.6102 31.565 25.7102 31.495C25.8202 31.425 25.9402 31.39 26.0702 31.39ZM22.1552 40.225C23.5752 40.225 24.6652 40.435 25.4252 40.855C26.1952 41.275 26.5802 41.905 26.5802 42.745C26.5802 43.595 26.1952 44.225 25.4252 44.635C24.6652 45.055 23.5752 45.265 22.1552 45.265C20.7352 45.265 19.6402 45.055 18.8702 44.635C18.1102 44.225 17.7302 43.595 17.7302 42.745C17.7302 41.905 18.1102 41.275 18.8702 40.855C19.6402 40.435 20.7352 40.225 22.1552 40.225ZM22.1552 41.125C21.0152 41.125 20.1752 41.27 19.6352 41.56C19.0952 41.84 18.8252 42.235 18.8252 42.745C18.8252 43.255 19.0952 43.655 19.6352 43.945C20.1752 44.235 21.0152 44.38 22.1552 44.38C23.2952 44.38 24.1352 44.235 24.6752 43.945C25.2152 43.655 25.4852 43.255 25.4852 42.745C25.4852 42.235 25.2152 41.84 24.6752 41.56C24.1352 41.27 23.2952 41.125 22.1552 41.125ZM34.4575 32.155C34.8475 32.155 35.1175 32.23 35.2675 32.38C35.4175 32.52 35.4925 32.78 35.4925 33.16V34.69C35.4925 35.21 35.4275 35.655 35.2975 36.025C35.1675 36.395 34.9075 36.745 34.5175 37.075C34.1275 37.405 33.5725 37.75 32.8525 38.11C32.1425 38.46 31.1975 38.885 30.0175 39.385C29.9075 39.435 29.7925 39.44 29.6725 39.4C29.5525 39.36 29.4575 39.275 29.3875 39.145C29.3275 39.035 29.3075 38.915 29.3275 38.785C29.3475 38.645 29.4275 38.545 29.5675 38.485C30.4375 38.125 31.1625 37.815 31.7425 37.555C32.3325 37.295 32.8075 37.06 33.1675 36.85C33.5275 36.64 33.7975 36.44 33.9775 36.25C34.1575 36.06 34.2775 35.85 34.3375 35.62L29.5375 35.845C29.3975 35.855 29.2925 35.82 29.2225 35.74C29.1625 35.65 29.1275 35.535 29.1175 35.395C29.1075 35.275 29.1325 35.165 29.1925 35.065C29.2525 34.965 29.3475 34.915 29.4775 34.915L34.4275 34.75V33.355C34.4275 33.245 34.4075 33.175 34.3675 33.145C34.3275 33.105 34.2525 33.085 34.1425 33.085H29.8675C29.7275 33.085 29.6275 33.04 29.5675 32.95C29.5075 32.85 29.4775 32.74 29.4775 32.62C29.4775 32.48 29.5075 32.37 29.5675 32.29C29.6275 32.2 29.7275 32.155 29.8675 32.155H34.4575ZM39.0475 31.39C39.1875 31.39 39.3125 31.425 39.4225 31.495C39.5325 31.565 39.5875 31.68 39.5875 31.84V39.235C39.5875 39.395 39.5325 39.51 39.4225 39.58C39.3125 39.65 39.1875 39.685 39.0475 39.685C38.9075 39.685 38.7775 39.65 38.6575 39.58C38.5475 39.51 38.4925 39.395 38.4925 39.235V31.84C38.4925 31.68 38.5475 31.565 38.6575 31.495C38.7775 31.425 38.9075 31.39 39.0475 31.39ZM35.4475 39.865C36.8175 39.865 37.8675 40.095 38.5975 40.555C39.3275 41.015 39.6925 41.685 39.6925 42.565C39.6925 43.445 39.3275 44.115 38.5975 44.575C37.8675 45.035 36.8175 45.265 35.4475 45.265C34.0775 45.265 33.0275 45.035 32.2975 44.575C31.5775 44.115 31.2175 43.445 31.2175 42.565C31.2175 41.685 31.5775 41.015 32.2975 40.555C33.0275 40.095 34.0775 39.865 35.4475 39.865ZM35.4475 40.765C34.3675 40.765 33.5725 40.925 33.0625 41.245C32.5525 41.565 32.2975 42.005 32.2975 42.565C32.2975 43.125 32.5525 43.565 33.0625 43.885C33.5725 44.205 34.3675 44.365 35.4475 44.365C36.5375 44.365 37.3375 44.205 37.8475 43.885C38.3575 43.565 38.6125 43.125 38.6125 42.565C38.6125 42.005 38.3575 41.565 37.8475 41.245C37.3375 40.925 36.5375 40.765 35.4475 40.765Z" fill="white"/>
</g>
<defs>
<filter id="filter0_d" x="0" y="0" width="56.6" height="59" filterUnits="userSpaceOnUse" color-interpolation-filters="sRGB">
<feFlood flood-opacity="0" result="BackgroundImageFix"/>
<feColorMatrix in="SourceAlpha" type="matrix" values="0 0 0 0 0 0 0 0 0 0 0 0 0 0 0 0 0 0 127 0"/>
<feOffset dy="4"/>
<feGaussianBlur stdDeviation="2"/>
<feColorMatrix type="matrix" values="0 0 0 0 0 0 0 0 0 0 0 0 0 0 0 0 0 0 0.25 0"/>
<feBlend mode="normal" in2="BackgroundImageFix" result="effect1_dropShadow"/>
<feBlend mode="normal" in="SourceGraphic" in2="effect1_dropShadow" result="shape"/>
</filter>
</defs>
</svg>
