<svg width="49" height="51" viewBox="0 0 49 51" fill="none" xmlns="http://www.w3.org/2000/svg">
<rect x="7.8" y="22.8" width="32.4" height="5.4" fill="#E26C67"/>
<path d="M24 3.59998L29.7158 27.9H18.2842L24 3.59998Z" fill="#E26C67"/>
<path d="M45.9 11.4L40.5158 27.9H29.0842L45.9 11.4Z" fill="#E26C67"/>
<path d="M35.7315 7.80005V25.2L24 21.9L35.7315 7.80005Z" fill="#E26C67"/>
<path d="M12 7.80005V25.2L23.7315 21.9L12 7.80005Z" fill="#E26C67"/>
<path d="M2.39999 11.4L7.78422 27.9H19.2158L2.39999 11.4Z" fill="#E26C67"/>
<circle cx="47.1" cy="9.30005" r="1.5" fill="#E26C67"/>
<circle cx="1.5" cy="9.30005" r="1.5" fill="#E26C67"/>
<circle cx="11.7" cy="5.69995" r="1.5" fill="#E26C67"/>
<circle cx="24" cy="1.5" r="1.5" fill="#E26C67"/>
<circle cx="36.3" cy="5.69995" r="1.5" fill="#E26C67"/>
<path d="M15.5452 32.185C15.9352 32.185 16.2052 32.26 16.3552 32.41C16.5052 32.55 16.5802 32.81 16.5802 33.19V35.02C16.5802 35.4 16.5052 35.665 16.3552 35.815C16.2052 35.955 15.9352 36.025 15.5452 36.025H12.8602C12.6702 36.025 12.5752 36.12 12.5752 36.31V37.795C12.5752 37.985 12.6702 38.08 12.8602 38.08C13.2302 38.08 13.6102 38.075 14.0002 38.065C14.3902 38.045 14.7702 38.025 15.1402 38.005C15.5202 37.985 15.8802 37.96 16.2202 37.93C16.5702 37.89 16.8902 37.845 17.1802 37.795C17.2902 37.775 17.3852 37.805 17.4652 37.885C17.5452 37.955 17.5952 38.06 17.6152 38.2C17.6352 38.33 17.6152 38.45 17.5552 38.56C17.5052 38.66 17.4202 38.72 17.3002 38.74C16.8502 38.82 16.2102 38.885 15.3802 38.935C14.5602 38.985 13.6152 39.01 12.5452 39.01C12.1552 39.01 11.8852 38.94 11.7352 38.8C11.5852 38.65 11.5102 38.385 11.5102 38.005V36.13C11.5102 35.75 11.5852 35.49 11.7352 35.35C11.8852 35.2 12.1552 35.125 12.5452 35.125H15.2302C15.3402 35.125 15.4152 35.11 15.4552 35.08C15.4952 35.04 15.5152 34.965 15.5152 34.855V33.4C15.5152 33.21 15.4202 33.115 15.2302 33.115H11.8852C11.7452 33.115 11.6452 33.07 11.5852 32.98C11.5352 32.89 11.5102 32.78 11.5102 32.65C11.5102 32.52 11.5352 32.41 11.5852 32.32C11.6452 32.23 11.7452 32.185 11.8852 32.185H15.5452ZM22.0702 31.39C22.2102 31.39 22.3302 31.425 22.4302 31.495C22.5402 31.565 22.5952 31.675 22.5952 31.825V39.67C22.5952 39.82 22.5402 39.93 22.4302 40C22.3302 40.06 22.2102 40.09 22.0702 40.09C21.9402 40.09 21.8202 40.06 21.7102 40C21.6102 39.93 21.5602 39.82 21.5602 39.67V35.995H19.5652V39.04C19.5652 39.19 19.5102 39.3 19.4002 39.37C19.3002 39.43 19.1802 39.46 19.0402 39.46C18.9102 39.46 18.7902 39.43 18.6802 39.37C18.5802 39.3 18.5302 39.19 18.5302 39.04V31.9C18.5302 31.75 18.5802 31.64 18.6802 31.57C18.7902 31.5 18.9102 31.465 19.0402 31.465C19.1802 31.465 19.3002 31.5 19.4002 31.57C19.5102 31.64 19.5652 31.75 19.5652 31.9V35.05H21.5602V31.825C21.5602 31.675 21.6102 31.565 21.7102 31.495C21.8202 31.425 21.9402 31.39 22.0702 31.39ZM18.1552 40.225C19.5752 40.225 20.6652 40.435 21.4252 40.855C22.1952 41.275 22.5802 41.905 22.5802 42.745C22.5802 43.595 22.1952 44.225 21.4252 44.635C20.6652 45.055 19.5752 45.265 18.1552 45.265C16.7352 45.265 15.6402 45.055 14.8702 44.635C14.1102 44.225 13.7302 43.595 13.7302 42.745C13.7302 41.905 14.1102 41.275 14.8702 40.855C15.6402 40.435 16.7352 40.225 18.1552 40.225ZM18.1552 41.125C17.0152 41.125 16.1752 41.27 15.6352 41.56C15.0952 41.84 14.8252 42.235 14.8252 42.745C14.8252 43.255 15.0952 43.655 15.6352 43.945C16.1752 44.235 17.0152 44.38 18.1552 44.38C19.2952 44.38 20.1352 44.235 20.6752 43.945C21.2152 43.655 21.4852 43.255 21.4852 42.745C21.4852 42.235 21.2152 41.84 20.6752 41.56C20.1352 41.27 19.2952 41.125 18.1552 41.125ZM30.4575 32.155C30.8475 32.155 31.1175 32.23 31.2675 32.38C31.4175 32.52 31.4925 32.78 31.4925 33.16V34.69C31.4925 35.21 31.4275 35.655 31.2975 36.025C31.1675 36.395 30.9075 36.745 30.5175 37.075C30.1275 37.405 29.5725 37.75 28.8525 38.11C28.1425 38.46 27.1975 38.885 26.0175 39.385C25.9075 39.435 25.7925 39.44 25.6725 39.4C25.5525 39.36 25.4575 39.275 25.3875 39.145C25.3275 39.035 25.3075 38.915 25.3275 38.785C25.3475 38.645 25.4275 38.545 25.5675 38.485C26.4375 38.125 27.1625 37.815 27.7425 37.555C28.3325 37.295 28.8075 37.06 29.1675 36.85C29.5275 36.64 29.7975 36.44 29.9775 36.25C30.1575 36.06 30.2775 35.85 30.3375 35.62L25.5375 35.845C25.3975 35.855 25.2925 35.82 25.2225 35.74C25.1625 35.65 25.1275 35.535 25.1175 35.395C25.1075 35.275 25.1325 35.165 25.1925 35.065C25.2525 34.965 25.3475 34.915 25.4775 34.915L30.4275 34.75V33.355C30.4275 33.245 30.4075 33.175 30.3675 33.145C30.3275 33.105 30.2525 33.085 30.1425 33.085H25.8675C25.7275 33.085 25.6275 33.04 25.5675 32.95C25.5075 32.85 25.4775 32.74 25.4775 32.62C25.4775 32.48 25.5075 32.37 25.5675 32.29C25.6275 32.2 25.7275 32.155 25.8675 32.155H30.4575ZM35.0475 31.39C35.1875 31.39 35.3125 31.425 35.4225 31.495C35.5325 31.565 35.5875 31.68 35.5875 31.84V39.235C35.5875 39.395 35.5325 39.51 35.4225 39.58C35.3125 39.65 35.1875 39.685 35.0475 39.685C34.9075 39.685 34.7775 39.65 34.6575 39.58C34.5475 39.51 34.4925 39.395 34.4925 39.235V31.84C34.4925 31.68 34.5475 31.565 34.6575 31.495C34.7775 31.425 34.9075 31.39 35.0475 31.39ZM31.4475 39.865C32.8175 39.865 33.8675 40.095 34.5975 40.555C35.3275 41.015 35.6925 41.685 35.6925 42.565C35.6925 43.445 35.3275 44.115 34.5975 44.575C33.8675 45.035 32.8175 45.265 31.4475 45.265C30.0775 45.265 29.0275 45.035 28.2975 44.575C27.5775 44.115 27.2175 43.445 27.2175 42.565C27.2175 41.685 27.5775 41.015 28.2975 40.555C29.0275 40.095 30.0775 39.865 31.4475 39.865ZM31.4475 40.765C30.3675 40.765 29.5725 40.925 29.0625 41.245C28.5525 41.565 28.2975 42.005 28.2975 42.565C28.2975 43.125 28.5525 43.565 29.0625 43.885C29.5725 44.205 30.3675 44.365 31.4475 44.365C32.5375 44.365 33.3375 44.205 33.8475 43.885C34.3575 43.565 34.6125 43.125 34.6125 42.565C34.6125 42.005 34.3575 41.565 33.8475 41.245C33.3375 40.925 32.5375 40.765 31.4475 40.765Z" fill="#E26C67"/>
</svg>
