<svg width="29" height="29" viewBox="0 0 29 29" fill="none" xmlns="http://www.w3.org/2000/svg">
<circle cx="14.012" cy="14.012" r="14.012" fill="#FFB68C"/>
<path d="M13.905 20.5389C16.425 20.5389 18.135 19.0089 18.135 16.9989C18.135 15.3339 16.89 14.3889 15.675 14.1639C16.785 13.8939 17.82 12.8739 17.82 11.4039C17.82 9.51393 16.215 7.96893 13.74 7.96893C11.28 7.96893 9.66 9.61893 9.66 11.7339H11.235C11.235 10.4589 12.12 9.31893 13.74 9.31893C15.33 9.31893 16.26 10.2789 16.26 11.4489C16.26 12.6939 15.225 13.5639 13.695 13.5639H12.375V14.8689H13.695C15.51 14.8689 16.59 15.6639 16.59 17.0139C16.59 18.2139 15.585 19.1739 13.905 19.1739C12.21 19.1739 11.25 18.1689 11.205 16.8789H9.645C9.735 18.9789 11.325 20.5389 13.905 20.5389Z" fill="white"/>
</svg>
