<svg width="53" height="54" viewBox="0 0 53 54" fill="none" xmlns="http://www.w3.org/2000/svg">
<g filter="url(#filter0_d)">
<path d="M7.07344 34.4048C7.19477 34.4048 7.3031 34.4351 7.39844 34.4958C7.50244 34.5564 7.55444 34.6561 7.55444 34.7948V36.8878C7.55444 37.1651 7.56744 37.4164 7.59344 37.6418C7.61944 37.8584 7.66277 38.0621 7.72344 38.2528C7.79277 38.4434 7.87944 38.6298 7.98344 38.8118C8.0961 38.9938 8.23477 39.1801 8.39944 39.3708C8.65077 39.6741 8.89344 39.9601 9.12744 40.2288C9.3701 40.4888 9.5911 40.7271 9.79044 40.9438C9.86844 41.0304 9.9031 41.1344 9.89444 41.2558C9.89444 41.3684 9.84677 41.4638 9.75144 41.5418C9.67344 41.6111 9.5781 41.6501 9.46544 41.6588C9.35277 41.6588 9.24877 41.6111 9.15344 41.5158C9.0061 41.3684 8.8241 41.1778 8.60744 40.9438C8.39077 40.7011 8.16977 40.4454 7.94444 40.1768C7.62377 39.8041 7.4071 39.5138 7.29444 39.3058C7.18177 39.0978 7.11677 38.9244 7.09944 38.7858H7.08644C7.0691 38.8551 7.04744 38.9331 7.02144 39.0198C6.99544 39.1064 6.94777 39.2061 6.87844 39.3188C6.81777 39.4228 6.73544 39.5484 6.63144 39.6958C6.52744 39.8431 6.3931 40.0121 6.22844 40.2028C6.0031 40.4714 5.77344 40.7358 5.53944 40.9958C5.30544 41.2471 5.07577 41.4898 4.85044 41.7238C4.7551 41.8191 4.64677 41.8624 4.52544 41.8538C4.4041 41.8364 4.30877 41.7931 4.23944 41.7238C4.15277 41.6458 4.10077 41.5504 4.08344 41.4378C4.07477 41.3164 4.1181 41.2081 4.21344 41.1128C4.47344 40.8354 4.73344 40.5538 4.99344 40.2678C5.25344 39.9731 5.5091 39.6741 5.76044 39.3708C5.9251 39.1801 6.05944 38.9938 6.16344 38.8118C6.2761 38.6298 6.36277 38.4434 6.42344 38.2528C6.49277 38.0621 6.54044 37.8584 6.56644 37.6418C6.59244 37.4164 6.60544 37.1651 6.60544 36.8878V34.7948C6.60544 34.6561 6.6531 34.5564 6.74844 34.4958C6.84377 34.4351 6.9521 34.4048 7.07344 34.4048ZM13.6904 33.7158C13.8118 33.7158 13.9158 33.7461 14.0024 33.8068C14.0978 33.8674 14.1454 33.9628 14.1454 34.0928V44.4668C14.1454 44.5968 14.0978 44.6921 14.0024 44.7528C13.9158 44.8134 13.8118 44.8438 13.6904 44.8438C13.5778 44.8438 13.4738 44.8134 13.3784 44.7528C13.2918 44.6921 13.2484 44.5968 13.2484 44.4668V38.6168H11.5194V43.9208C11.5194 44.0508 11.4718 44.1461 11.3764 44.2068C11.2898 44.2674 11.1858 44.2978 11.0644 44.2978C10.9518 44.2978 10.8478 44.2674 10.7524 44.2068C10.6658 44.1461 10.6224 44.0508 10.6224 43.9208V34.2228C10.6224 34.0928 10.6658 33.9974 10.7524 33.9368C10.8478 33.8761 10.9518 33.8458 11.0644 33.8458C11.1858 33.8458 11.2898 33.8761 11.3764 33.9368C11.4718 33.9974 11.5194 34.0928 11.5194 34.2228V37.7978H13.2484V34.0928C13.2484 33.9628 13.2918 33.8674 13.3784 33.8068C13.4738 33.7461 13.5778 33.7158 13.6904 33.7158ZM24.1055 34.4178C24.4435 34.4178 24.6775 34.4828 24.8075 34.6128C24.9375 34.7341 25.0025 34.9594 25.0025 35.2888V36.9788C25.0025 37.3081 24.9375 37.5378 24.8075 37.6678C24.6775 37.7891 24.4435 37.8498 24.1055 37.8498H18.5285C18.3638 37.8498 18.2815 37.9321 18.2815 38.0968V39.4618C18.2815 39.6178 18.3638 39.6958 18.5285 39.6958H24.9895C25.1021 39.6958 25.1845 39.7348 25.2365 39.8128C25.2885 39.8908 25.3145 39.9861 25.3145 40.0988C25.3145 40.2114 25.2885 40.3111 25.2365 40.3978C25.1845 40.4758 25.1021 40.5148 24.9895 40.5148H18.2425C17.9045 40.5148 17.6705 40.4541 17.5405 40.3328C17.4105 40.2028 17.3455 39.9731 17.3455 39.6438V37.9408C17.3455 37.6114 17.4105 37.3861 17.5405 37.2648C17.6705 37.1348 17.9045 37.0698 18.2425 37.0698H23.8325C23.9971 37.0698 24.0795 36.9874 24.0795 36.8228V35.4708C24.0795 35.3061 23.9971 35.2238 23.8325 35.2238H17.6445C17.5318 35.2238 17.4495 35.1848 17.3975 35.1068C17.3455 35.0288 17.3195 34.9334 17.3195 34.8208C17.3195 34.7081 17.3455 34.6128 17.3975 34.5348C17.4495 34.4568 17.5318 34.4178 17.6445 34.4178H24.1055ZM21.6615 42.8158H26.2635C26.3848 42.8158 26.4715 42.8548 26.5235 42.9328C26.5755 43.0108 26.6015 43.1104 26.6015 43.2318C26.6015 43.3444 26.5755 43.4398 26.5235 43.5178C26.4715 43.5958 26.3848 43.6348 26.2635 43.6348H16.0975C15.9761 43.6348 15.8895 43.5958 15.8375 43.5178C15.7855 43.4398 15.7595 43.3444 15.7595 43.2318C15.7595 43.1104 15.7855 43.0108 15.8375 42.9328C15.8895 42.8548 15.9761 42.8158 16.0975 42.8158H20.7125V40.0728H21.6615V42.8158ZM35.7945 34.5738C36.1325 34.5738 36.3665 34.6388 36.4965 34.7688C36.6265 34.8901 36.6915 35.1154 36.6915 35.4448V36.6408C36.6915 37.0394 36.6785 37.4164 36.6525 37.7718C36.6352 38.1271 36.6048 38.4738 36.5615 38.8118C36.5268 39.1411 36.4792 39.4661 36.4185 39.7868C36.3665 40.1074 36.3058 40.4281 36.2365 40.7488C36.2105 40.8701 36.1455 40.9568 36.0415 41.0088C35.9375 41.0521 35.8162 41.0651 35.6775 41.0478C35.5562 41.0218 35.4565 40.9698 35.3785 40.8918C35.3092 40.8138 35.2875 40.7184 35.3135 40.6058C35.4522 39.9471 35.5605 39.3014 35.6385 38.6688C35.7165 38.0361 35.7555 37.3471 35.7555 36.6018V35.6528C35.7555 35.4881 35.6732 35.4058 35.5085 35.4058H29.1125C28.9998 35.4058 28.9175 35.3668 28.8655 35.2888C28.8135 35.2108 28.7875 35.1111 28.7875 34.9898C28.7875 34.8684 28.8135 34.7688 28.8655 34.6908C28.9175 34.6128 28.9998 34.5738 29.1125 34.5738H35.7945ZM32.0245 38.3308C32.1458 38.3308 32.2542 38.3611 32.3495 38.4218C32.4448 38.4824 32.4925 38.5821 32.4925 38.7208V42.8158H37.9005C38.0218 42.8158 38.1085 42.8548 38.1605 42.9328C38.2125 43.0108 38.2385 43.1104 38.2385 43.2318C38.2385 43.3444 38.2125 43.4398 38.1605 43.5178C38.1085 43.5958 38.0218 43.6348 37.9005 43.6348H27.7345C27.6132 43.6348 27.5265 43.5958 27.4745 43.5178C27.4225 43.4398 27.3965 43.3444 27.3965 43.2318C27.3965 43.1104 27.4225 43.0108 27.4745 42.9328C27.5265 42.8548 27.6132 42.8158 27.7345 42.8158H31.5565V38.7208C31.5565 38.5821 31.6042 38.4824 31.6995 38.4218C31.7948 38.3611 31.9032 38.3308 32.0245 38.3308ZM42.8945 33.5858C43.0159 33.5858 43.1242 33.6161 43.2195 33.6768C43.3235 33.7374 43.3755 33.8371 43.3755 33.9758V35.1198H45.8455C45.9582 35.1198 46.0405 35.1588 46.0925 35.2368C46.1445 35.3148 46.1705 35.4101 46.1705 35.5228C46.1705 35.6441 46.1445 35.7438 46.0925 35.8218C46.0405 35.8998 45.9582 35.9388 45.8455 35.9388H43.3755V36.5368C43.3755 36.9788 43.4449 37.3384 43.5835 37.6158C43.7222 37.8844 43.9562 38.1358 44.2855 38.3698C44.6149 38.6038 44.9225 38.8204 45.2085 39.0198C45.5032 39.2104 45.7545 39.3708 45.9625 39.5008C46.0752 39.5701 46.1402 39.6654 46.1575 39.7868C46.1749 39.8994 46.1489 40.0034 46.0795 40.0988C46.0189 40.1854 45.9365 40.2461 45.8325 40.2808C45.7285 40.3068 45.6159 40.2851 45.4945 40.2158C45.3212 40.1031 45.0959 39.9558 44.8185 39.7738C44.5412 39.5918 44.2595 39.4011 43.9735 39.2018C43.6095 38.9504 43.3495 38.7338 43.1935 38.5518C43.0375 38.3611 42.9422 38.1964 42.9075 38.0578H42.8945C42.8685 38.2051 42.7732 38.3741 42.6085 38.5648C42.4439 38.7554 42.1839 38.9764 41.8285 39.2278C41.5252 39.4444 41.2262 39.6524 40.9315 39.8518C40.6455 40.0424 40.3639 40.2244 40.0865 40.3978C39.9739 40.4671 39.8655 40.4844 39.7615 40.4498C39.6575 40.4151 39.5752 40.3544 39.5145 40.2678C39.4452 40.1724 39.4149 40.0684 39.4235 39.9558C39.4322 39.8344 39.4972 39.7391 39.6185 39.6698C39.9392 39.4618 40.2512 39.2581 40.5545 39.0588C40.8579 38.8508 41.1742 38.6254 41.5035 38.3828C41.8329 38.1488 42.0669 37.8974 42.2055 37.6288C42.3442 37.3514 42.4135 36.9918 42.4135 36.5498V35.9388H39.8655C39.7529 35.9388 39.6705 35.8998 39.6185 35.8218C39.5665 35.7438 39.5405 35.6441 39.5405 35.5228C39.5405 35.4101 39.5665 35.3148 39.6185 35.2368C39.6705 35.1588 39.7529 35.1198 39.8655 35.1198H42.4135V33.9758C42.4135 33.8371 42.4612 33.7374 42.5565 33.6768C42.6605 33.6161 42.7732 33.5858 42.8945 33.5858ZM48.2115 33.7158C48.3329 33.7158 48.4412 33.7461 48.5365 33.8068C48.6319 33.8674 48.6795 33.9671 48.6795 34.1058V40.2808C48.6795 40.4194 48.6319 40.5191 48.5365 40.5798C48.4412 40.6404 48.3329 40.6708 48.2115 40.6708C48.0902 40.6708 47.9775 40.6404 47.8735 40.5798C47.7782 40.5191 47.7305 40.4194 47.7305 40.2808V34.1058C47.7305 33.9671 47.7782 33.8674 47.8735 33.8068C47.9775 33.7461 48.0902 33.7158 48.2115 33.7158ZM47.7825 41.3338C48.1205 41.3338 48.3545 41.3988 48.4845 41.5288C48.6145 41.6501 48.6795 41.8754 48.6795 42.2048V44.6358C48.6795 44.9651 48.6145 45.1904 48.4845 45.3118C48.3545 45.4418 48.1205 45.5068 47.7825 45.5068H42.2055C41.8675 45.5068 41.6335 45.4418 41.5035 45.3118C41.3735 45.1904 41.3085 44.9651 41.3085 44.6358V42.2048C41.3085 41.8754 41.3735 41.6501 41.5035 41.5288C41.6335 41.3988 41.8675 41.3338 42.2055 41.3338H47.7825ZM42.5045 42.1398C42.3399 42.1398 42.2575 42.2178 42.2575 42.3738V44.4668C42.2575 44.6228 42.3399 44.7008 42.5045 44.7008H47.4965C47.6612 44.7008 47.7435 44.6228 47.7435 44.4668V42.3738C47.7435 42.2178 47.6612 42.1398 47.4965 42.1398H42.5045Z" fill="white"/>
<path d="M22.7407 12.6983H16.5669L16.5691 12.6792C16.8471 11.326 17.3914 10.0407 18.1706 8.89708C19.33 7.19929 20.9564 5.86876 22.8557 5.06416C23.4989 4.79325 24.1697 4.58584 24.8533 4.44827C26.2714 4.16253 27.7328 4.16253 29.1509 4.44827C31.1889 4.86329 33.059 5.86506 34.5282 7.32878L37.5438 4.34033C36.1847 2.98926 34.5767 1.91071 32.8075 1.16351C31.9052 0.783879 30.9671 0.494608 30.007 0.299992C28.0261 -0.0999973 25.9845 -0.0999973 24.0036 0.299992C23.0428 0.495415 22.104 0.785389 21.201 1.16563C18.5401 2.28757 16.2623 4.15004 14.6418 6.52876C13.5512 8.13273 12.7885 9.93414 12.3971 11.8305C12.3375 12.1162 12.3056 12.4083 12.263 12.6983H5.7037L14.2222 21.1641L22.7407 12.6983ZM31.2593 16.9312H37.4331L37.4309 16.9481C36.8745 19.6609 35.2656 22.0469 32.9523 23.5896C31.8019 24.3646 30.5085 24.9055 29.1467 25.1812C27.7293 25.4669 26.2686 25.4669 24.8512 25.1812C23.4896 24.9048 22.1963 24.364 21.0456 23.5896C20.4804 23.2097 19.9527 22.7774 19.4696 22.2986L16.4583 25.2912C17.8181 26.6419 19.4269 27.7198 21.1968 28.4659C22.0997 28.8469 23.0431 29.1369 23.9972 29.3295C25.9774 29.7297 28.0184 29.7297 29.9985 29.3295C33.816 28.5421 37.1738 26.3059 39.3582 23.0965C40.4478 21.4937 41.2097 19.6938 41.6007 17.7989C41.6582 17.5132 41.6923 17.2212 41.7349 16.9312H48.2963L39.7778 8.46532L31.2593 16.9312Z" fill="white"/>
</g>
<defs>
<filter id="filter0_d" x="0.0823669" y="0" width="52.5972" height="53.5068" filterUnits="userSpaceOnUse" color-interpolation-filters="sRGB">
<feFlood flood-opacity="0" result="BackgroundImageFix"/>
<feColorMatrix in="SourceAlpha" type="matrix" values="0 0 0 0 0 0 0 0 0 0 0 0 0 0 0 0 0 0 127 0"/>
<feOffset dy="4"/>
<feGaussianBlur stdDeviation="2"/>
<feColorMatrix type="matrix" values="0 0 0 0 0 0 0 0 0 0 0 0 0 0 0 0 0 0 0.25 0"/>
<feBlend mode="normal" in2="BackgroundImageFix" result="effect1_dropShadow"/>
<feBlend mode="normal" in="SourceGraphic" in2="effect1_dropShadow" result="shape"/>
</filter>
</defs>
</svg>
