<svg width="54" height="57" viewBox="0 0 54 57" fill="none" xmlns="http://www.w3.org/2000/svg">
<path d="M33.969 9.31C33.969 9.31 29.949 5.46001 30.279 3.40001C30.279 3.40001 34.939 7.30001 36.139 7.74001C36.739 7.96001 37.049 6.36001 37.739 4.87001C38.429 3.38001 39.499 2 39.499 2C39.499 2 39.009 8.41 41.069 9.17C42.029 9.53 43.949 8.66001 46.059 8.07001C48.449 7.41001 50.989 6.99001 50.989 6.99001C50.989 6.99001 45.719 11.64 43.609 11.1C41.499 10.55 33.969 9.31 33.969 9.31Z" fill="#136B0C" fill-opacity="0.61" stroke="#136B0C" stroke-miterlimit="10"/>
<path d="M25.9089 9.90993C28.9289 7.46993 48.2689 10.8799 51.5189 15.2299C57.7589 23.5899 39.4889 49.2899 31.0189 48.3899C26.2389 47.8799 14.9389 18.7799 25.9089 9.90993Z" fill="#FF5A5A" fill-opacity="0.7" stroke="#FF5A5A" stroke-miterlimit="10"/>
<path d="M8.37906 17.9201C8.37906 17.9201 3.23906 15.8001 2.78906 13.7601C2.78906 13.7601 8.54906 15.7001 9.81906 15.6701C10.4491 15.6501 10.1591 14.0501 10.2591 12.4101C10.3591 10.7701 10.8491 9.09009 10.8491 9.09009C10.8491 9.09009 12.7291 15.2401 14.9191 15.1901C15.9491 15.1701 17.4191 13.6601 19.1691 12.3501C21.1591 10.8601 23.369 9.54008 23.369 9.54008C23.369 9.54008 20.149 15.7901 17.989 16.0601C15.839 16.3401 8.37906 17.9201 8.37906 17.9201Z" fill="#136B0C" fill-opacity="0.61" stroke="#136B0C" stroke-miterlimit="10"/>
<path d="M2.42892 21.5099C4.36892 18.1499 23.6389 14.3599 28.2389 17.2599C37.0689 22.8199 29.2789 53.3699 21.0489 55.5799C16.4089 56.8199 -4.61108 33.7399 2.42892 21.5099Z" fill="#FF5A5A" fill-opacity="0.7" stroke="#FF5A5A" stroke-miterlimit="10"/>
<path d="M11.0288 23.5701C11.6688 23.5701 11.6688 22.5701 11.0288 22.5701C10.3888 22.5701 10.3888 23.5701 11.0288 23.5701Z" fill="#FF5A5A"/>
<path d="M15.7988 25.6299C16.4388 25.6299 16.4388 24.6299 15.7988 24.6299C15.1588 24.6299 15.1588 25.6299 15.7988 25.6299Z" fill="#FF5A5A"/>
<path d="M22.529 23.78C23.169 23.78 23.169 22.78 22.529 22.78C21.879 22.78 21.879 23.78 22.529 23.78Z" fill="#FF5A5A"/>
<path d="M7.01882 33.3301C7.65882 33.3301 7.65882 32.3301 7.01882 32.3301C6.37882 32.3301 6.37882 33.3301 7.01882 33.3301Z" fill="#FF5A5A"/>
<path d="M5.17891 27.04C5.81891 27.04 5.81891 26.04 5.17891 26.04C4.52891 26.04 4.52891 27.04 5.17891 27.04Z" fill="#FF5A5A"/>
<path d="M13.6389 30.51C14.2789 30.51 14.2789 29.51 13.6389 29.51C12.9889 29.51 12.9889 30.51 13.6389 30.51Z" fill="#FF5A5A"/>
<path d="M13.3089 35.3899C13.9489 35.3899 13.9489 34.3899 13.3089 34.3899C12.6689 34.3899 12.6689 35.3899 13.3089 35.3899Z" fill="#FF5A5A"/>
<path d="M20.1389 31.7C20.7789 31.7 20.7789 30.7 20.1389 30.7C19.4989 30.7 19.4989 31.7 20.1389 31.7Z" fill="#FF5A5A"/>
<path d="M24.4789 40.48C25.1189 40.48 25.1189 39.48 24.4789 39.48C23.8389 39.48 23.8289 40.48 24.4789 40.48Z" fill="#FF5A5A"/>
<path d="M16.5589 42.4299C17.1989 42.4299 17.1989 41.4299 16.5589 41.4299C15.9189 41.4299 15.9189 42.4299 16.5589 42.4299Z" fill="#FF5A5A"/>
<path d="M28.059 34.1899C28.699 34.1899 28.699 33.1899 28.059 33.1899C27.409 33.1899 27.409 34.1899 28.059 34.1899Z" fill="#FF5A5A"/>
<path d="M28.4888 28.45C29.1288 28.45 29.1288 27.45 28.4888 27.45C27.8488 27.45 27.8488 28.45 28.4888 28.45Z" fill="#FF5A5A"/>
<path d="M35.969 16.0801C36.609 16.0801 36.609 15.0801 35.969 15.0801C35.329 15.0801 35.329 16.0801 35.969 16.0801Z" fill="#FF5A5A"/>
<path d="M44.969 21.9399C45.609 21.9399 45.609 20.9399 44.969 20.9399C44.329 20.9399 44.329 21.9399 44.969 21.9399Z" fill="#FF5A5A"/>
<path d="M47.679 16.1899C48.319 16.1899 48.319 15.1899 47.679 15.1899C47.039 15.1899 47.039 16.1899 47.679 16.1899Z" fill="#FF5A5A"/>
<path d="M42.6989 17.9299C43.3389 17.9299 43.3389 16.9299 42.6989 16.9299C42.0489 16.9299 42.0489 17.9299 42.6989 17.9299Z" fill="#FF5A5A"/>
<path d="M39.6591 25.95C40.2991 25.95 40.2991 24.95 39.6591 24.95C39.0191 24.95 39.0091 25.95 39.6591 25.95Z" fill="#FF5A5A"/>
<path d="M47.7888 25.4099C48.4288 25.4099 48.4288 24.4099 47.7888 24.4099C47.1488 24.4099 47.1488 25.4099 47.7888 25.4099Z" fill="#FF5A5A"/>
<path d="M37.059 20.4199C37.699 20.4199 37.699 19.4199 37.059 19.4199C36.409 19.4199 36.409 20.4199 37.059 20.4199Z" fill="#FF5A5A"/>
<path d="M36.189 25.4099C36.829 25.4099 36.829 24.4099 36.189 24.4099C35.549 24.4099 35.549 25.4099 36.189 25.4099Z" fill="#FF5A5A"/>
<path d="M42.3689 26.28C43.0089 26.28 43.0089 25.28 42.3689 25.28C41.7289 25.28 41.7289 26.28 42.3689 26.28Z" fill="#FF5A5A"/>
<path d="M42.6989 30.9399C43.3389 30.9399 43.3389 29.9399 42.6989 29.9399C42.0489 29.9399 42.0489 30.9399 42.6989 30.9399Z" fill="#FF5A5A"/>
<path d="M38.3588 34.4099C38.9988 34.4099 38.9988 33.4099 38.3588 33.4099C37.7088 33.4099 37.7088 34.4099 38.3588 34.4099Z" fill="#FF5A5A"/>
<path d="M36.8389 38.75C37.4789 38.75 37.4789 37.75 36.8389 37.75C36.1989 37.75 36.1989 38.75 36.8389 38.75Z" fill="#FF5A5A"/>
<path d="M32.1789 18.47C32.8189 18.47 32.8189 17.47 32.1789 17.47C31.5289 17.47 31.5289 18.47 32.1789 18.47Z" fill="#FF5A5A"/>
<path d="M28.819 14.1299C29.459 14.1299 29.459 13.1299 28.819 13.1299C28.169 13.1299 28.169 14.1299 28.819 14.1299Z" fill="#FF5A5A"/>
<path d="M35.1088 12.6101C35.7488 12.6101 35.7488 11.6101 35.1088 11.6101C34.4588 11.6101 34.4588 12.6101 35.1088 12.6101Z" fill="#FF5A5A"/>
</svg>
